<?xml version="1.0" encoding="utf-8"?>
<!-- Generator: Adobe Illustrator 22.0.1, SVG Export Plug-In . SVG Version: 6.00 Build 0)  -->
<svg version="1.1" xmlns="http://www.w3.org/2000/svg" xmlns:xlink="http://www.w3.org/1999/xlink" x="0px" y="0px"
	 viewBox="0 0 1100 800" style="enable-background:new 0 0 1100 800;" xml:space="preserve">
<g id="background">
</g>
<g id="shadow">
	<g style="opacity:0.5;">
		<path style="fill:#EED5D5;" d="M523.05,648.77c-27.11,0.08-54.22,0.76-81.28,3.89c-10.2,1.18-20.19,3.78-30.42,4.82
			c-20.43,2.09-40.49,5.99-60.99,7.79c-16.51,1.45-33.09,2.3-49.55,4.14c-15.43,1.72-32.52,1.33-47.83-1.52
			c-11.34-2.11-22.73-3.3-33.87-6.68c-12.47-3.79-26.01-6.5-39.01-6.4c-18.53,0.14-36.57,0.16-54.3,6.85
			c-6.22,2.35-13.84,6.21-18.57,11.14c-10.82,11.28-12.28,39.43-1.48,51.13c18.19,19.69,57.03,27.42,82.53,27.78
			c27.95,0.4,55.09-1.76,83.08-3.03c26.01-1.18,51.95-2.86,78-2.8c53.2,0.12,106.41,0,159.52-3.7c49.89-3.47,99.91-2.28,149.92-2.28
			c51.28,0,102.21,0.42,153.11,7.51c22.18,3.09,44.78,4.17,67.07,6.33c19.96,1.94,39.15-0.04,59.03-1.83
			c16.7-1.5,33.29-5.96,48.45-13.5c12.01-5.97,33.41-24.51,37.1-38.75c10.32-39.93-145.49-38.97-169.41-38.88
			c-26.76,0.1-53.74,1.02-80.48-0.04c-11.25-0.45-22.33-2.73-33.31-5.24c-10.93-2.5-21.95-1.86-33.04-2.91
			c-46.24-4.37-92.59-3.73-138.98-3.73C553.26,648.87,538.16,648.73,523.05,648.77z"/>
	</g>
</g>
<g id="object">
	<g>
		<g>
			<path style="fill:#E5D1BD;" d="M350.09,393.51c-0.23-0.19-0.46-0.38-0.73-0.49c-2.45-1.05-4.36-0.12-7-0.46
				c-1.18-0.15-2.5-2.9-4.09-1c-0.59,0.7-1.79,2.62-3.03,4.12c-1.81,2.19-5.43,3.87-8.55,4.67c-4.19,1.08-8.65,2.13-12.93,2.57
				c-8.98,0.92-19.07,0.96-28.07,0.16c0.66-14.92-7.74-29.88-20.82-37.09c-1.37-0.75-2.84-1.44-4.4-1.46
				c-1.32-0.01-2.6,0.46-3.77,1.06c-12.42,6.36-5.86,17.86-0.97,27.35c3.06,5.92,6.53,11.74,10.43,17.15
				c5.46,7.57,13.36,9.08,22.45,8.81c9.64-0.29,19.4-0.75,28.79-3.09c4.57-1.14,8.59-3.05,12.93-4.76c4.29-1.69,4.8,0.32,8.93-0.2
				c2.3-0.29,4.71-0.14,6.93-0.86c3.98-1.28,5.35-5.37,6.9-8.83c0.39-0.86,0.65-1.44,0.59-2.32c-0.09-1.44-1.01-2.49-1.88-3.56
				C351.29,394.63,350.72,394.04,350.09,393.51z"/>
		</g>
		<g>
			<path style="fill:#D67086;" d="M252.31,400.98c2.82,4.31,5.77,8.42,8.76,12.26c4.47,5.73,9.5,11.84,16.59,13.43
				c2.73,0.61,5.57,0.49,8.37,0.35c13.26-0.66,26.51-1.65,39.72-2.97c0.98-6.91,0.91-13.96-0.21-20.84c-0.32-1.93-0.8-4-2.28-5.28
				c-2.2-1.9-5.54-1.26-8.35-0.51c-4.58,1.22-9.15,2.44-13.73,3.66c-1.48,0.4-3.14,0.78-4.49,0.04c-0.88-0.48-1.46-1.36-2-2.21
				c-10.08-16.07-15.34-31.39-20.94-49.36c-2.47-7.92-5.09-16.11-10.65-22.28c-11.86-13.16-33.83-5.32-33.06,12.99
				C230.94,361.16,240.47,382.86,252.31,400.98z"/>
		</g>
	</g>
	<g>
		<g>
			<g>
				<g id="XMLID_79_">
					<path id="XMLID_80_" style="fill:#EACDB0;" d="M659.14,591.52l0.69,41.87c-0.28,11.62,0.77,23.2,1.47,34.78
						c0.66,10.76-1.51,21.84,3.59,31.81c1.6,3.13,5.01,5.3,7.6,1.69c2-2.78,1.08-7.6,1.57-10.83c3.71-24.27,10.6-47.94,14.05-72.26
						C691.72,593.1,681.86,593.77,659.14,591.52z"/>
				</g>
				<polygon style="fill:#292949;" points="661.52,692.81 658.83,699.8 672.08,711.46 684.21,711.96 688.14,705.56 671.82,691.36 
									"/>
			</g>
			<g>
				<g id="XMLID_77_">
					<path id="XMLID_78_" style="fill:#EACDB0;" d="M629.48,591.92c0,0-7.64,41.18-7.64,41.18c-2.65,18.42-8.66,36.36-11.31,54.78
						c-0.61,4.24-0.3,8.87-2.07,12.86c-1.73,3.91-5.12,4.06-8.11,1.41c-4.01-3.55-2.16-9.9-2.08-14.75
						c0.49-32.33-2.05-64.19-2.66-96.57c-0.01-0.42,0.01-0.91,0.34-1.18c0.27-0.22,0.65-0.21,0.99-0.19
						C600.07,589.67,629.32,592.81,629.48,591.92z"/>
				</g>
				<polygon style="fill:#292949;" points="598.17,694.53 593.97,700.73 604.24,715.08 615.95,718.3 621.22,712.95 608.52,695.44 
									"/>
			</g>
			<polygon style="fill:#1A3151;" points="702.3,618.16 696.59,558.3 693.83,519.4 684.57,487.63 634.55,479.87 572.72,490.47 
				569.75,502.48 581.65,613.69 641.29,618.16 640.48,548.95 649.68,591.84 649.29,618.16 			"/>
		</g>
		<path style="fill:#FFFFFF;" d="M585.85,370.68c-0.08,2.02-0.14,4.04-0.18,6.06c-0.72,41.06,1.54,82.64,1.8,124.05
			c21.2-3.32,42.64-5.15,64.1-5.47c4.97-0.08,27.55,3.41,30.69,0.45c4.27-4.02-0.43-3.27-0.11-8.51c0.4-6.78-2.86-12.34-1.62-20.38
			c1.45-9.45,4.33-18.79,5.98-28.24c3.32-18.94,5.33-38.12,5.98-57.34c0.58-17.05-0.04-34.73-7.37-50.13
			c-18.08-37.98-76.37-37.3-92.36,2.36C588.02,345.26,586.38,357.98,585.85,370.68z"/>
		<path style="fill:#474EBB;" d="M651.62,317.4l-15.83,28.85c0.83,29.14,1.65,58.29,2.48,87.43c0.38,13.43,0.76,26.86,1.14,40.29
			c0.13,4.66,0.25,9.33,0.4,13.99c0.07,2.09-0.51,5.62,0.68,7.33c2.59,3.71,12.07,2.55,16.2,2.88c6.44,0.51,12.98,1.03,19.05,3.26
			c4.04,1.48,7.87,3.71,12.14,4.31c0.96,0.13,2.03,0.15,2.78-0.45c0.84-0.68,0.98-1.89,1.06-2.96c1.48-20.01,1.51-40.63,2.62-60.86
			c0.87-15.9,3.03-31.93,2.27-47.86c-0.78-16.38-3.35-32.68-6.48-48.76c-1.85-9.52-4.03-19.23-9.27-27.39
			c-5.94-9.25-14.35-12.96-24.71-15.04c-3.66-0.74-17.27-5.88-15,2.43C642.28,308.95,648.84,314.09,651.62,317.4z"/>
		<path style="fill:#474EBB;" d="M617.18,320.11l15.83,28.85c-0.33,0-2.01,70.72-2.14,75.49c-0.52,18.15-1.03,36.31-1.55,54.46
			c-0.14,5.05,0.53,10.96-0.45,15.92c-1.38,6.92-8.67,5.56-14.88,6.12c-13.59,1.22-27.89,3.54-41.52,2.86
			c-3.93-0.2,1.24-82.21,1.24-89.87c-0.03-27.53-5.71-58.07,8.28-83.03c4.07-7.26,11.24-18.91,19.16-22.49
			c7.38-3.34,17.94-3.91,25.95-5.78l0.42,5.19L617.18,320.11z"/>
		<g>
			<g>
				<path style="fill:#292949;" d="M651.54,250.23c2.49,4.37,3.69,9.4,3.91,14.42c0.06,1.34,0.15,2.88,1.23,3.67
					c1.16,0.84,0.14,2.7,1.02,1.57c0.88-1.13,3.87-5.05,4-6.48c0.31-3.34,0.31-6.71-0.01-10.05c-0.28-2.9-0.88-5.94-2.77-8.15
					c-1.13-1.31-2.63-2.23-4.11-3.13c-2.15-1.3-4.36-2.61-6.82-3.06c-4.25-0.79-6.86,0.73-3.11,3.7
					C647.56,244.84,649.83,247.24,651.54,250.23z"/>
				<g>
					<path style="fill:#EACDB0;" d="M624.99,307.22c0.03,2.06-0.39,4.19,1.42,5.78c0.87,0.77,2.05,1.07,3.2,1.26
						c2.96,0.47,6.04,0.25,8.9-0.63c1.18-0.36,2.36-0.86,3.25-1.71c1.05-1.01,1.11-1.97,1.16-3.29c0.06-1.55,0.37-3.13,0.58-4.7
						c0.44-3.44,0.64-6.9,0.74-10.37c5.09-0.87,11.08-2.52,12.82-7.85c0.55-1.68,0.57-3.51,0.58-5.29
						c0.05-7.39,0.11-14.78,0.16-22.17c0.02-2.56,0.02-5.19-0.85-7.56c-1.54-4.16-5.44-6.64-9.26-8.2
						c-9.76-3.98-21.15-3.82-30.16,1.84c-2.4,1.51-4.66,3.45-6.04,6.08c-2.13,4.06-1.86,9.07-1.53,13.75
						c0.31,4.32,0.61,8.65,0.92,12.97c0.35,4.97,1.1,10.7,4.96,13.32c2.05,1.39,4.7,1.65,6.47,3.45c3.08,3.15,1.61,7.85,2.53,11.67
						C624.94,306.11,624.98,306.66,624.99,307.22z"/>
				</g>
				<path style="fill:#292949;" d="M659.42,277.46c-0.08-1.37-0.68-5.39-2.74-2.86c-0.54,0.66-0.67,1.59-0.71,2.47
					c-0.03,0.88,0.01,1.78-0.27,2.61c-0.64,1.9-2.74,2.76-4.61,2.73c-0.74-0.01-1.5-0.14-2.16-0.51c-0.64-0.36-1.15-0.94-1.64-1.51
					c-1.2-1.38-2.4-2.76-3.6-4.14c-2.07-2.37-6.16-1.35-8.94-0.98c-3.21,0.42-6.42,1.39-9.04,3.5c-0.26,0.21-0.52,0.44-0.78,0.66
					c-0.63,0.54-1.27,1.08-2,1.44c-2.48,1.21-5.54-0.05-7.28-2.31c-0.8-1.03-1.54-2.36-2.77-2.54c-0.97-0.14-1.91,0.56-2.4,1.46
					c-0.5,0.9-0.63,1.98-0.7,3.03c-0.24,3.82,0.28,7.75,1.94,11.14c3.59,7.34,10.52,8.24,17.49,8.08c2.76-0.07,5.51-0.13,8.27-0.2
					c5.04-0.12,10.36-0.33,14.61-3.26c3.74-2.58,5.97-6.98,6.88-11.58C659.43,282.34,659.57,279.89,659.42,277.46z M640.99,287.87
					c-2.65,1.78-5.58,1.88-8.53,0.99c-1.26-0.38-0.72-2.49,0.54-2.11c2.45,0.74,4.76,0.72,6.97-0.77
					C641.08,285.24,642.09,287.13,640.99,287.87z"/>
				<path style="fill:#292949;" d="M660.47,237.42c0.49-1.79,0.85-3.62,1.08-5.46c-1.7,0.6-3.56,0.76-5.34,0.46
					c0-1.06-0.01-2.12-0.01-3.19c-0.01-0.88-11.96-1.5-12.93-1.58c-9.09-0.75-17.41-1.46-25.63,3.43
					c-7.02,4.17-11.53,10.4-12.61,18.5c-1.03,7.74,1.5,17.85,5.98,24.28c-0.03-2.06-1.21-6.92-0.73-8.88
					c0.3-1.96,0.98-3.86,1.91-5.6c1.87-3.49,4.76-6.43,8.11-8.52c5.33-3.34,11.53-5.11,17.72-5.97c5.67-0.79,12.58-1.52,18.18-0.02
					c2.69,0.72,3.14,1.4,4.77-1.32c0.29-0.48,2.57-6.08,2.34-6.08C662.36,237.45,661.42,237.44,660.47,237.42z"/>
			</g>
		</g>
	</g>
	<g>
		<g>
			<g>
				<path style="fill:#EACDB0;" d="M696.85,345.01c-2.62-0.06-5.1-1.24-7.29-2.69c-8.75-5.79-12.55-16.38-17.36-25.27
					c-2.87-5.3-5.68-13.17-10.12-17.28c-0.83-0.77-10.4-5.32-10.32-5.61c0-0.03,0.49-2.62,0.49-2.62l2.6,0.5l1.54-1.06l-6.96-3.6
					l4.57-7.7l10.37-0.26c3.02,5.77,4.61,12.45,8.97,17.41c1.84,2.1,4.01,3.88,6.03,5.81c3.46,3.32,6.44,7.08,9.57,10.7
					c4.01,4.64,10.11,8.42,12.45,14.24c1.31,3.24,3.46,10.55,1.97,13.81C702.25,343.77,699.47,345.06,696.85,345.01z"/>
			</g>
		</g>
		<path style="fill:#474EBB;" d="M704.47,333.13c0.63,0.1,1.31,0.22,1.77,0.67c0.51,0.5,0.62,1.28,0.67,1.99
			c0.67,8.24-0.6,16.5-1.96,24.65c-1.89,11.34-4.29,23.36-12.25,31.66c-4.58,4.78-12,7.96-17.84,4.84
			c-5.11-2.73-6.98-9.06-7.78-14.8c-2.35-16.96,0.53-34.62,8.17-49.95c0.51-1.03,1.07-2.08,2-2.75c2.28-1.64,9.38,0.94,12.07,1.35
			C694.36,331.57,699.42,332.35,704.47,333.13z"/>
	</g>
	<g>
		<g>
			<path style="fill:#EACDB0;" d="M573.86,297.93c3.41-2.8,4.67-7.45,3.14-11.6c-2.8-7.59-5.6-15.18-8.41-22.77
				c-1.57-4.26-4.58-9.34-4.63-13.79c-0.1-7.86,2.7-16.77,4.32-24.43c0.82-3.89,1.12-9.39,3.16-12.82c0.38-0.64,5.58-5.31,5.47-5.49
				c-0.01-0.02-0.8-1.56-0.8-1.56l-1.55,0.8l-1.17-0.38l3.73-3.58l-4.33-4.01l-6.61,1.78c-0.83,4.22-0.58,8.74-2.4,12.69
				c-0.77,1.67-1.81,3.2-2.72,4.8c-1.56,2.75-2.75,5.68-4.05,8.56c-1.26,2.78-3.06,5.33-4.26,8.08c-2.67,6.15-5.3,12.31-7.96,18.47
				l12.29,40.15C559.27,299.99,568.08,302.67,573.86,297.93z"/>
		</g>
		<path style="fill:#474EBB;" d="M603.1,301.71c-4.98-2.17-9.68-5.09-13.54-8.67c-1.78-1.65-9.8-16.86-8.34-17.26
			c-0.12,0.04-0.25,0.08-0.37,0.12l-1.08,0.4c-0.05-0.01-0.09-0.01-0.15-0.02c-2.4-0.24-6.72,2.14-9.05,2.88
			c-7.58,2.41-15.09,5.16-22.88,6.5c0,6.82,1.32,13.59,3.23,20.12c1.74,5.97,4.73,10.85,6.99,16.47c2.35,5.84,5.4,11.25,8.48,16.73
			c0.75,1.34,8.3,16.89,7.87,16.96c4.38-0.75,7.75-4.21,10.44-7.75c6.31-8.3,9.31-19.56,17.23-26.33
			c6.15-5.26,14.2-5.77,13.41-16.41C611.28,304.71,607.1,303.45,603.1,301.71z"/>
	</g>
	<g>
		<path style="fill:#EACDB0;" d="M472.54,274.27c0.07,1.23-0.61,2.62-1.05,3.74c-1.52,3.89-2.01,8.18-1.42,12.31
			c4.03-0.01,8.07,0.64,11.89,1.93c0.84-3.02,1.67-6.04,2.51-9.06c0.13-0.47,0.27-0.96,0.58-1.34c0.4-0.49,1.03-0.73,1.62-0.96
			c3.24-1.29,6.26-3.12,8.89-5.41c0.57-0.5,1.14-1.04,1.43-1.74c0.26-0.63,0.26-1.34,0.26-2.02c-0.01-5.46-0.02-10.92-0.03-16.39
			c0-0.61-0.01-1.26-0.36-1.76c-0.36-0.51-0.99-0.75-1.58-0.96c-0.93-0.33-1.87-0.66-2.8-0.99c-0.26-0.14-0.54-0.24-0.84-0.3
			c-1.9-0.67-2.35-0.62-4.23,0c-0.36,0.12-4.43,1.03-4.47,0.69c0.56,5.79-1.09,11.77-4.55,16.44c-0.24,0.32-0.53,0.66-0.92,0.69
			c-0.42,0.04-0.78-0.29-1.06-0.6c-1.28-1.38-2.33-2.96-3.11-4.66c-1.51,0.38-3.01,0.75-4.52,1.13c-0.4,2.41,0.4,5.1,2.12,6.86
			c0.18,0.19,0.35,0.34,0.51,0.47C472.05,272.89,472.48,273.12,472.54,274.27z"/>
		<polygon style="fill:#353A85;" points="487.72,282.51 468.9,279.43 449.7,331.97 404.35,324.24 414.23,384.69 471.92,350.14 		"/>
	</g>
	<g>
		<g>
			<g>
				<g>
					<path style="fill:#E5D1BD;" d="M338.52,685.78c-2.86,0.19-5.48-0.82-8.25-1.13c0.13-9.8,1.19-19.2,3.31-28.87
						c4.31,4.79,7.95,2.01,7.8,11C341.32,669.7,337.96,681.35,338.52,685.78z"/>
					<path style="fill:#292949;" d="M329.64,679.78c-3.26-1.16-3.99,6.61-4.01,8.44c-0.02,1.1,0.12,2.22-0.16,3.28
						c-0.31,1.17-1.08,2.15-1.83,3.1c-1.58,1.98-3.15,3.96-4.73,5.94c-0.71,0.89-1.43,1.8-1.81,2.88c-0.94,2.66,0.61,5.81,3.13,7.08
						c8.74,4.41,16.72-6.27,18.61-13.33c0.29-1.08,0.5-2.18,0.71-3.28c0.44-2.27,2.16-7.23,1.26-9.46
						c-1.05-2.59-4.24-0.71-6.33-1.69C332.53,681.84,330.95,680.25,329.64,679.78z"/>
				</g>
				<path style="fill:#5D66D3;" d="M391.7,524.32c-8.14,22.17-17.54,43.86-22.9,67.07c-6.62,28.67-17.3,56.63-22.77,85.37
					c-3.54,0.11-7.09-0.04-10.61-0.45c-4.03-0.48-10.43-1.56-11.89-5.97c-0.74-2.25,0.04-5.91,0.16-8.25
					c0.36-7.49,0.9-14.97,1.45-22.44c1.56-21.15,2.63-42.57,6.52-63.42c4.09-21.94,8.01-43.95,11.61-65.88
					c1.86-11.34,4.15-22.6,6.97-33.74c0.73-2.87,8.29-32.45,9.78-32.21c17.63,2.81,34.12,8.64,49.47,17.75
					c1.49,0.88,2.93,1.94,3.45,3.51c0.52,1.58,0.05,2.93-0.43,4.36c-4.59,13.63-10.71,26.42-15.6,40
					C395.21,514.75,393.48,519.47,391.7,524.32z"/>
			</g>
			<g>
				<g>
					<path style="fill:#E5D1BD;" d="M393.24,684.19c2.68,1.03,5.48,0.85,8.22,1.38c2.79-9.39,4.57-18.68,5.43-28.55
						c-5.54,3.29-8.18-0.45-10.72,8.19C395.34,668,395.09,680.13,393.24,684.19z"/>
					<path style="fill:#292949;" d="M404.26,682.74c0.01,5.31,4.19,11.03,6.5,15.81c0.27,0.56,0.55,1.15,0.56,1.77
						c0.02,0.93-0.55,1.75-1.09,2.5c-0.75,1.04-1.57,2.14-2.77,2.61c-1.18,0.46-2.5,0.23-3.74-0.04c-2.07-0.45-4.12-1-6.14-1.64
						c-0.5-0.16-1.02-0.33-1.43-0.66c-0.49-0.39-0.78-0.97-1.06-1.53c-1.43-2.87-2.64-4.91-2.56-8.11c0.08-3.31,0.5-6.73-0.11-10.01
						c-0.3-1.59-0.69-3.62,0.67-4.49c1.05-0.67,2.98,0.25,4.12,0.44c2.02,0.33,3.89,0.2,5.75,1.27c0.38,0.22,0.75,0.48,0.98,0.85
						C404.19,681.88,404.26,682.3,404.26,682.74z"/>
				</g>
				<path style="fill:#5D66D3;" d="M390.48,514.22c1.18,23.59,3.7,47.09,1.92,70.85c-2.21,29.35-0.33,59.22-3.65,88.28
					c3.35,1.16,6.78,2.07,10.26,2.72c3.99,0.75,10.43,1.61,13.13-2.16c1.38-1.93,1.72-5.66,2.3-7.92
					c1.88-7.26,3.59-14.56,5.29-21.86c4.8-20.66,10.15-41.42,12.64-62.49c2.62-22.16,5.42-44.34,8.51-66.36
					c1.59-11.38,2.76-22.82,3.38-34.29c0.16-2.96,1.73-33.45,0.25-33.66c-17.67-2.56-35.15-1.9-52.51,2.23
					c-1.69,0.4-3.38,0.98-4.34,2.33c-0.96,1.35-0.92,2.79-0.88,4.29c0.33,14.38,2.36,28.41,2.99,42.83
					C389.98,504.03,390.22,509.06,390.48,514.22z"/>
			</g>
			<path style="fill:#353A85;" d="M380.56,324.9c-0.29,0.1-0.57,0.2-0.86,0.31c-4.74,1.8-8.78,5.04-12.72,8.23
				c-5.93,4.79-8.85,6.89-11.14,13.98c-2.13,6.61-3.47,13.6-4.78,20.41c-6.71,34.98-8.01,69.82-12.83,105.07
				c-1.31,9.59-2.32,20.87,4.77,27.46c12.59-9.8,28.41-10.36,43.68-10.38c10.72-0.01,21.21-3.48,31.95-2.29
				c10.27,1.14,19.24-1.42,29.67-0.75c2.51,0.16,5.72,0.14,6.71-2.18c-3.61-10.81-3.55-22.44-4.36-33.81
				c-2.11-29.41-11.86-57.64-15.79-86.85c-1.34-9.93-2.05-26.41-9.74-33.93c-8.36-8.17-27.42-8.33-38.16-6.74
				C384.81,323.75,382.64,324.19,380.56,324.9z"/>
			<g>
				<g>
					<g>
						<g>
							<path style="fill:#EACDB0;" d="M388.54,324.4c0.18,0.34,0.41,0.67,0.73,0.98c1.25,1.23,2.98,1.93,4.69,2.17
								c2.26,0.32,4.56-0.05,6.81-0.48c3.03-0.58,2.93-2.35,3.36-5.11c0.24-1.5,0.39-3.02,0.5-4.54c0.06-0.83-0.26-3.81,0.27-4.4
								c0.36-0.4,1.83-0.26,2.47-0.6c1.02-0.53,1.87-1.51,2.48-2.46c0.99-1.53,1.53-3.3,2.06-5.05c0.92-3.03,1.85-6.07,2.77-9.1
								c0.94-3.1,1.89-6.23,2.2-9.45c0.46-4.86-0.33-11.73-4-15.29c-3.35-3.24-8.24-4.38-12.72-4.95
								c-5.93-0.76-12.08,0.33-17.21,3.48c-2.07,1.27-4.03,2.92-5.25,5.19c-1.88,3.5-1.74,7.86-1.54,11.94
								c0.19,3.77,0.37,7.53,0.56,11.3c0.21,4.33,0.75,9.32,4,11.67c1.72,1.25,3.98,1.51,5.45,3.11c1.85,2,1.73,5.01,1.81,7.55
								C388.03,321.83,387.92,323.21,388.54,324.4z"/>
						</g>
						<path style="fill:#292949;" d="M407.32,275.71c0.2,0.35,0.38,0.72,0.51,1.1c0.69,2,0.22,4.25,0.9,6.25
							c1.07,3.17,4.78,5.08,5.33,8.39c0.46,2.7-1.39,5.27-1.55,8.01c-0.17,2.99,1.74,5.82,1.45,8.77c-0.26,2.56-1.88,6.16-3.41,8.22
							c0.47-0.64,4.76-0.41,5.88-1.09c1.71-1.04,1.9-1.7,2.41-3.47c0.5-1.76,0.11-3.5,0.9-5.31c0.96-2.22,2.94-3.84,3.63-6.21
							c0.95-3.23-0.77-6.63-0.64-9.99c0.2-5.08,4.6-9.87,3-14.71c-0.94-2.83-3.69-4.65-5.24-7.2c-1.18-1.94-1.61-4.22-2.42-6.34
							c-0.82-2.11-2.22-4.23-4.39-4.87c-1.21-0.36-2.51-0.21-3.75-0.44c-2.14-0.4-3.92-1.88-5.98-2.57c-2.95-1-8.15,1.99-9.88,4.49
							c-1.71,2.48-0.85,4.59,0.9,6.79C397.88,269.17,404.92,271.56,407.32,275.71z"/>
					</g>
					<path style="fill:#292949;" d="M367.59,260.7c-1.77,1.3-3.95,2.23-5.57,3.75c-3.15,2.95-3.75,7.68-3.86,12
						c-0.1,3.84-1.78,7.26-1.37,11.26c0.28,2.69,1.42,5.41,3.61,7c2.73,1.98,7.01,2.3,8.22,5.44c1.32,3.41-2.21,7.71-0.07,10.67
						c1.18,1.63,3.5,1.87,5.2,2.97c1.89,1.23,2.86,3.41,4.01,5.35c1.15,1.93,2.89,3.87,5.14,3.92c0.09-3.42,0.19-6.14-1.27-9.27
						c-0.85-1.82-3.36-5.19-1.43-7.16c1.22-1.64,4.08-2.18,4.16-4.22c0.03-0.96-0.63-1.77-1.16-2.58c-2.04-3.1-2.25-7.23-0.87-10.67
						c1.39-3.44,4.24-6.2,7.58-7.81c3.92-1.9,3.29-2.85,4.42-6.6c1.05-3.45,3.01-4.26,6.11-5.52c2.79-1.13,3.69-1.83,4.71-4.44
						c0.75-1.91,1.68-4.2,0.59-6.33c-0.87-1.69-2.43-2.91-3.94-4.06c-3.16-2.41-6.71-4.95-10.68-4.66c-2.2,0.16-4.27,1.19-6.48,1.32
						c-1.47,0.08-2.93-0.24-4.41-0.29c-2.51-0.08-5.16,0.68-7.19,2.17c-2.05,1.51-1.99,3.08-3.13,5.22
						C369.37,259.2,368.54,260,367.59,260.7z"/>
					<path style="fill:#292949;" d="M376.47,246.62c0.39-2.39,0.14-5.49-2.14-6.3c-1.25-0.44-2.65,0.04-3.94-0.22
						c-2.76-0.56-3.71-3.91-5.16-6.33c-0.22-0.36-0.48-0.73-0.86-0.9c-0.55-0.25-1.18-0.03-1.78,0.05
						c-2.75,0.34-4.84-2.38-7.43-3.36c-3.21-1.22-7.24,0.79-8.21,4.08c-0.4,1.35-0.33,2.81-0.7,4.17
						c-1.51,5.51-9.58,7.85-9.78,13.56c-0.14,3.86,3.64,7.55,2.17,11.12c-0.94,2.28-3.88,3.84-3.54,6.28
						c0.22,1.57,1.89,2.64,3.48,2.62c1.59-0.02,3.05-0.89,4.24-1.94c1.9-1.66,3.33-3.78,5.14-5.54c1.81-1.76,4.22-3.18,6.72-2.87
						c2.42,0.3,4.61,2.19,7.02,1.78c1.93-0.32,3.35-2.04,5.25-2.52c1.77-0.45,3.61,0.24,5.43,0.35c1.82,0.11,4.06-0.84,4.11-2.67
						c0.01-0.44-0.11-0.9,0.03-1.32c0.39-1.18,2.4-1.11,2.78-2.29c-0.95-1.47-2.29-0.94-2.98-2.86
						C375.79,250.03,376.23,248.12,376.47,246.62z"/>
				</g>
			</g>
		</g>
	</g>
	<g>
		<g>
			<g>
				<g>
					<g>
						<rect x="366.29" y="356.23" style="fill:#8CABEF;" width="375.39" height="260.63"/>
					</g>
					<g>
						<path style="opacity:0.2;fill:#DDDAE8;" d="M464.64,364.52h-89.6v79.61C375.04,400.16,415.15,364.52,464.64,364.52z"/>
					</g>
				</g>
			</g>
		</g>
		<g style="opacity:0.2;">
			<path style="fill:#3B3387;" d="M530.37,616.86h211.3V483.44C741.68,483.44,722.16,616.86,530.37,616.86z"/>
		</g>
	</g>
	<g>
		<path style="opacity:0.49;fill:#808080;" d="M703.15,174.66c-0.02-0.1-0.03-0.19-0.05-0.29c0.06,0.05,0.11,0.1,0.16,0.15
			C703.23,174.57,703.19,174.61,703.15,174.66z"/>
	</g>
	<g>
		<g>
			<g>
				<polygon style="fill:#292949;" points="179.07,700.56 178.47,709 194.76,718.65 203.81,710.81 195.96,701.76 179.67,692.11 				
					"/>
			</g>
			<g>
				<polygon style="fill:#292949;" points="170.68,443.74 168.86,469.39 195.14,582.96 178.38,697.78 194.89,702.32 243.69,564.94 
					245.33,523.34 235.57,437.57 				"/>
			</g>
		</g>
		<g>
			<g>
				<polygon style="fill:#292949;" points="276.72,458.88 287.16,566.45 278.71,707.01 263.11,708.34 242.32,581.08 210.04,454.8 
									"/>
			</g>
			<g>
				<polygon style="fill:#292949;" points="263.04,706.48 263.76,714.91 281.36,721.91 289.07,712.75 279.92,705.04 				"/>
			</g>
		</g>
		<g>
			<path style="fill:#D67086;" d="M155.68,457.16c-1.23,9.78-2.3,23.03,1.42,23.91c0.7,0.16,1.41-0.11,2.06-0.39
				c6.88-2.88,12.01-7.41,18.79-10.18c7.1-2.9,15-4.02,22.69-4.57c11.51-0.89,23.18-0.97,34.71,0.02c9.06,0.78,18.07,2.49,27,4.18
				c7.43,1.4,14.17,4.35,21.86,4.61c7.88,0.27,15.83-1.33,22.95-4.74c0.26-0.13,0.54-0.27,0.67-0.53c0.14-0.28,0.07-0.62-0.01-0.93
				c-1.14-4.54-1.84-9-4.37-12.93c-2.82-4.39-4.59-9.77-6.45-14.62c-3.88-10.11-7.44-20.66-9.79-31.25
				c-3.71-14.45-8.19-28.61-11.73-43.08c-2.45-10.03-4.58-20.21-8.31-29.87c-2.92-7.56-8.38-18.73-15.93-22.71
				c-2.56-1.35-5.49-1.75-8.35-2.13c-8.69-1.15-17.38-2.31-26.06-3.46c-3.17-0.42-6.46-0.83-9.5,0.18
				c-4.54,1.51-7.47,5.81-10.06,9.84c-11.59,18.07-19.86,37.99-25.49,58.83c-2.94,10.88-5.75,21.8-8.2,32.8
				c-2.73,12.27-5.01,24.65-6.52,37.13C156.89,448.65,156.27,452.51,155.68,457.16z"/>
		</g>
		<g>
			<path style="fill:#F7F7F7;" d="M224.74,358.03c-0.18,4.97-1.4,9.84-2.61,14.67c-7.38,29.4-14.75,58.8-22.13,88.2
				c23.42,2.23,46.84,4.45,70.25,6.68c0.31-11.27,0.63-22.54,0.94-33.81c0.2-7.22,0.4-14.48-0.38-21.67
				c-1.26-11.6-5.05-22.79-8.82-33.87c-6.96-20.48-13.91-40.96-20.87-61.44c-0.37-1.1-0.77-2.23-1.57-3.07
				c-0.97-1.01-2.38-1.46-3.74-1.85c-6.57-1.86-14.02-3.62-20.84-3.33c-2.32,5.94,2.78,17.22,4.49,23.16
				C221.94,340.31,225.07,348.95,224.74,358.03z"/>
		</g>
		<g>
			<g>
				<path style="fill:#EACDB0;" d="M233.47,315.91c-4.83-0.71-9.66-1.43-14.48-2.14c0.14-3.89,0.59-7.77,1.35-11.58
					c-0.09,0.46-7.43-4.43-8.02-5.43c-1.7-2.88-1.46-7.39-1.96-10.65c-1.05-6.95-1.9-14.75,2.3-20.39
					c4.35-5.84,12.59-7.14,19.85-6.57c9.12,0.71,18.99,4.41,22.86,12.7c3.49,7.48-2.91,17.32-5.21,24.62
					c-1.13,3.6-2.71,7.67-6.29,8.87c-1.9,0.64-4.09,0.32-5.83,1.31C234.99,308.38,235.17,312.82,233.47,315.91z"/>
			</g>
			<g>
				<path style="fill:#292949;" d="M271.1,259.85c1.06-4.97,2.12-9.94,3.19-14.91c0.39-1.85,0.79-3.76,0.37-5.6
					c-0.7-3.06-3.51-5.22-6.44-6.35c-2.93-1.13-6.1-1.49-9.08-2.48c-3.18-1.05-6.19-2.83-9.54-3.03
					c-6.36-0.38-11.81,4.99-18.18,5.34c-8.81,0.49-16.35-4.31-22.64,5.34c-1.16,1.77-1.65,3.9-2.69,5.74
					c-1.35,2.38-3.55,4.13-5.34,6.2c-7.87,9.09-7.2,24.2,0.24,33.37c3.61,4.45,4.88,8.26,10.29,10.13
					c-2-5.43,3.48-25.64,10.68-27.23c1.91-0.42,7.2,2.41,9.21,2.92c4.45,1.13,8.77,2.31,12.84,4.51c6.04,3.27,12.7,5.83,19.47,7.05
					c0.87,0.16,1.84,0.29,2.56-0.22c0.68-0.48,0.9-1.36,1.07-2.18C268.44,272.26,269.77,266.06,271.1,259.85z"/>
			</g>
		</g>
	</g>
	<g>
		<g>
			<path style="fill:#5D66D3;" d="M524.8,152.37c-3.43-22.92,12.25-44.29,35.07-47.96c-0.14-0.72-0.27-1.43-0.38-2.16
				c-4.19-28,15.12-54.09,43.11-58.28c15.23-2.28,29.89,2.41,40.78,11.66c7.13-11.08,18.8-19.16,32.86-21.26
				c25.01-3.74,48.37,12.79,53.42,37.26c1.05-0.24,2.1-0.45,3.18-0.61c23.08-3.45,44.59,12.46,48.05,35.55
				c2.78,18.57-6.98,36.11-22.92,44.06c2.82,4.57,4.78,9.77,5.62,15.41c3.34,22.34-12.06,43.16-34.4,46.5
				c-1.71,0.26-3.42,0.4-5.1,0.44l6.47,43.27c0.25,1.88-2.04,2.99-2.87,2.14L694.52,224c-5.76,5.2-13.06,8.83-21.31,10.06
				c-14.97,2.24-29.24-3.95-38.05-14.98c-6.29,5.38-14.11,9.13-22.91,10.45c-24.95,3.73-48.19-13.47-51.92-38.41
				c-0.16-1.08-0.27-2.16-0.36-3.24C542.24,185.06,527.59,171.07,524.8,152.37z"/>
			<g>
				<path style="fill:#FFFFFF;" d="M605.13,144.89c6.17-0.92,7.62,8.67,1.43,9.59C600.4,155.41,598.95,145.82,605.13,144.89z"/>
				<path style="fill:#FFFFFF;" d="M648.3,138.43c6.17-0.92,7.62,8.67,1.43,9.59C643.56,148.95,642.12,139.36,648.3,138.43z"/>
				<path style="fill:#FFFFFF;" d="M702.26,130.37c6.17-0.92,7.62,8.67,1.43,9.59C697.52,140.88,696.08,131.29,702.26,130.37z"/>
			</g>
		</g>
	</g>
	<g>
		<path style="fill:#FFFFFF;" d="M710.31,408.61c-5.27,4.21-10.54,8.42-15.81,12.62c2.68,4.11,5.31,8.25,7.85,12.46
			c1.27,2.11-2.15,3.77-3.42,1.68c-2.4-3.97-4.88-7.88-7.41-11.76c-5.13,4.1-10.27,8.2-15.4,12.29c-1.91,1.53-4.4-1.36-2.48-2.9
			c5.26-4.2,10.53-8.4,15.79-12.61c-3.09-4.65-6.27-9.24-9.55-13.76c-1.43-1.98,1.44-4.49,2.88-2.49c3.31,4.56,6.52,9.2,9.64,13.89
			c5.14-4.11,10.28-8.21,15.43-12.32C709.74,404.19,712.23,407.08,710.31,408.61z"/>
		<path style="fill:#FFFFFF;" d="M691.4,464.03c-1.15-7.08-3.01-13.9-5.53-20.61c-0.56-1.48-2.44-1.21-3.27-0.24
			c-5.07,5.9-9.09,12.31-12.3,19.4c-0.83,1.84,1.66,3.2,3.03,2.09c1.8-1.45,3.43-3,4.95-4.63c-8.76,28.07-17.23,62.59-48.92,69.08
			c-28.34,5.81-44.32-25.84-56.61-45.96c-10.55-17.26-21.74-35.96-39.37-46.8c-18.83-11.58-42.02-10.78-61.15-0.32
			c-19.3,10.54-34.74,29.9-34.32,52.56c-12.04-0.7-22.42,8.06-24.61,20.11c-1.84,10.15,3.3,26.58,15.1,26.09
			c-0.13,0.8,0.21,1.62,1.23,1.88c13.35,3.46,26.06-5.06,28.75-18.57c2.45-12.32-4.05-26.05-16.67-28.95
			c-1.3-30.83,30.43-56.82,59.57-57.55c48.16-1.19,63.28,53.5,88.74,84.09c7.61,9.14,17.3,16.77,29.51,17.81
			c11.39,0.97,22.36-3.72,31.06-10.86c21.17-17.36,25.58-45.71,34.22-70.38c1.2,4.1,2.16,8.24,2.86,12.5
			C688.07,467.2,691.8,466.46,691.4,464.03z M438.93,492.54c0.25,0.1,0.53,0.15,0.81,0.13c0.39,0.06,0.77,0.12,1.16,0.21
			c23.42,5.33,15.38,44.31-7.9,40.62c1-1.29,0.17-3.66-1.73-3.08c-13.88,4.21-16.4-16.69-13-25.35
			C421.6,496.57,430.06,491.45,438.93,492.54z"/>
		<path style="fill:#D67086;" d="M419.4,519.75c-0.22-1.18-0.31-2.39-0.34-3.58c-0.28-13.87,6.87-23.11,21.14-19.76
			c7.35,1.72,11.61,10.98,11.58,17.89c-0.02,4.65-1.43,9.76-5.35,12.22c-6.38,4-21.47,4.46-25.74-3.09
			C420.05,522.29,419.65,521.04,419.4,519.75z"/>
	</g>
	<g>
		
			<rect x="386.11" y="269.6" transform="matrix(0.5765 0.8171 -0.8171 0.5765 425.6261 -269.6996)" style="fill:#D67086;" width="173.75" height="12.29"/>
		
			<rect x="406.19" y="255.43" transform="matrix(0.5765 0.8171 -0.8171 0.5765 422.5543 -292.11)" style="fill:#D67086;" width="173.75" height="12.29"/>
		
			<rect x="396.15" y="262.51" transform="matrix(0.5765 0.8171 -0.8171 0.5765 424.0901 -280.9048)" style="fill:#FFFFFF;" width="173.75" height="12.29"/>
		
			<rect x="430.33" y="177.88" transform="matrix(0.5765 0.8171 -0.8171 0.5765 343.3641 -269.8387)" style="fill:#BABCBE;" width="3.31" height="36.87"/>
		
			<rect x="428.42" y="175.17" transform="matrix(0.5765 0.8171 -0.8171 0.5765 340.3466 -269.4253)" style="fill:#F7F7F7;" width="3.31" height="36.87"/>
		
			<rect x="426.51" y="172.47" transform="matrix(0.5765 0.8171 -0.8171 0.5765 337.3164 -269.0094)" style="fill:#BABCBE;" width="3.31" height="36.87"/>
		<path style="fill:#E8E8E8;" d="M398.03,180.15l12.21,17.31l30.12-21.25l-12.21-17.31c-4.84-6.86-14.33-8.5-21.2-3.66l-5.27,3.72
			C394.82,163.8,393.18,173.29,398.03,180.15z"/>
		
			<rect x="424.6" y="169.76" transform="matrix(0.5765 0.8171 -0.8171 0.5765 334.3055 -268.5974)" style="fill:#F7F7F7;" width="3.31" height="36.87"/>
		<polygon style="fill:#EED5D5;" points="548.17,329.02 518.05,350.27 559.3,376.77 		"/>
		<polygon style="fill:#292949;" points="556.7,365.61 549.66,370.57 559.3,376.77 		"/>
	</g>
	<g>
		<path style="opacity:0.25;fill:#3B455A;" d="M236.08,566.49c0,0,167.62,7.1,169.71,5.77c2.09-1.33,0.86-169.45-5.66-175.88
			C400.13,396.38,246.27,556.03,236.08,566.49z"/>
		<path style="fill:#474EBB;" d="M399.94,566.49H227.89c3.97-26.06,6.81-56.84,6.48-91.37c-0.26-27.33-0.14-50.94-4.12-77.11
			c57.35,0,112.33-3.56,169.68-3.56c2.44,24.03,4.07,50.24,4.32,78.35C404.56,506.86,402.8,538.25,399.94,566.49z"/>
		<g>
			<path style="fill:#FFFFFF;" d="M308.9,464.85c-1.22-11.29-5.25-24.53-16.47-29.55c-12.84-5.75-26.59,0.23-38.36,5.72
				c-1.62,0.75-0.21,3.15,1.4,2.4c1.16-0.54,2.35-1.09,3.57-1.64c2.4,25.36-2.47,50.75-0.67,76.12c-0.36,0.55-0.27,1.32,0.14,1.79
				c0.05,0.56,0.08,1.12,0.13,1.68c0.17,1.76,2.95,1.78,2.78,0c-0.06-0.61-0.09-1.21-0.14-1.82
				C283.99,511.77,311.8,491.59,308.9,464.85z M289.34,500.05c-8.2,7.43-17.87,12.99-28.29,16.63c-1.58-25.36,3.29-50.73,0.66-76.07
				c9.8-4.19,20.84-7.41,30.71-2.24c10.46,5.48,14.05,20.51,13.96,31.4C306.29,482.14,298.09,492.12,289.34,500.05z"/>
			<path style="fill:#FFFFFF;" d="M330.02,481.23c-4.1-1.64-9.65,0.36-13.07,2.57c-5.14,3.32-8.44,8.8-9.7,14.73
				c-2.35,11.05,0.64,25.25,13.96,26.29c12.84,1,22.55-10.56,23.91-22.48C346.26,492.35,340.23,481.55,330.02,481.23z
				 M341.97,504.48c-1.99,9.11-9.33,17.64-19.26,17.63c-12.3-0.01-14.88-13.03-12.78-22.83c0.95-4.44,3.05-8.63,6.52-11.62
				c2.05-1.77,5.57-3.79,8.87-4.2c0.25,0.56,0.83,0.98,1.59,0.82c0.83-0.18,1.62-0.27,2.39-0.3c0.31,0.15,0.61,0.31,0.89,0.52
				c0.69,0.51,1.37,0.21,1.73-0.34C340.2,485.72,343.74,496.37,341.97,504.48z"/>
			<path style="fill:#FFFFFF;" d="M367.66,512.9c-0.05-0.07-0.1-0.15-0.16-0.22c-1.6-1.65-3.76-0.6-4.65,1.1
				c-0.84,1.09-1.52,2.29-1.33,3.74c0.2,1.51,1.37,2.82,2.98,2.8c1.7-0.03,2.96-1.4,3.41-2.94c0.65-0.64,1.02-1.55,0.83-2.66
				C368.61,513.98,368.21,513.34,367.66,512.9z"/>
			<path style="fill:#FFFFFF;" d="M374.02,450.2c-1.3-2.3-4.88-2.28-7.19-2.4c-0.77-0.04-1.37,0.67-1.39,1.39
				c-0.47,16.34-0.6,32.68-0.37,49.02c0.01,1.01,0.9,1.45,1.67,1.32c0.17,1.7,2.72,1.7,2.77-0.07c0.32-12.12,1.32-24.21,3.15-36.2
				c0.4-2.66,0.85-5.31,1.32-7.95C374.27,453.7,374.9,451.75,374.02,450.2z M368.18,450.66c0.12,0.01,0.24,0.02,0.36,0.04
				c-0.09,0.17-0.16,0.35-0.18,0.56c-0.05,0.51-0.13,0.99-0.23,1.47C368.15,452.04,368.16,451.35,368.18,450.66z M367.96,459.94
				c0.2,0.15,0.44,0.23,0.68,0.24c-0.3,1.49-0.61,2.9-0.75,3.98C367.91,462.76,367.93,461.35,367.96,459.94z"/>
		</g>
	</g>
	<g>
		<g>
			<path style="fill:#E5D1BD;" d="M269.1,447.5c-0.11-0.3-0.22-0.62-0.4-0.87c-1.71-2.34-4-2.54-6.27-4.32
				c-1.01-0.79-0.72-4.09-3.26-3.22c-0.94,0.32-3.13,1.44-5.12,2.15c-2.91,1.03-7.22,0.59-10.58-0.4c-4.51-1.33-9.26-2.83-13.49-4.8
				c-8.89-4.14-18.33-9.72-26.28-15.48c8.93-13.55,9.43-32.19,1.23-46.2c-0.86-1.46-1.84-2.93-3.29-3.81
				c-1.22-0.75-2.68-1.02-4.11-1.11c-15.14-0.98-15.42,13.4-16.13,24.98c-0.45,7.23-0.44,14.59,0.19,21.81
				c0.88,10.11,7.41,15.91,16.05,20.73c9.15,5.1,18.52,10.1,28.59,13.15c4.89,1.48,9.72,1.94,14.71,2.76
				c4.94,0.81,4.3,2.97,8.44,4.79c2.31,1.02,4.47,2.49,6.94,3.06c4.42,1.02,7.98-2.03,11.36-4.4c0.84-0.59,1.41-0.98,1.85-1.84
				c0.71-1.39,0.44-2.88,0.23-4.37C269.59,449.21,269.4,448.33,269.1,447.5z"/>
		</g>
		<g>
			<path style="fill:#D67086;" d="M173.71,400.01c0.23,5.59,0.69,11.07,1.35,16.32c0.97,7.84,2.27,16.34,8,21.77
				c2.21,2.09,4.92,3.56,7.61,4.99c12.74,6.77,25.65,13.23,38.72,19.35c4.76-5.9,8.62-12.52,11.41-19.57
				c0.78-1.98,1.48-4.17,0.81-6.19c-1-3-4.47-4.26-7.51-5.12c-4.95-1.41-9.9-2.82-14.85-4.23c-1.61-0.46-3.36-1.03-4.21-2.46
				c-0.55-0.94-0.61-2.08-0.63-3.17c-0.46-20.61,3.17-37.83,7.95-57.73c2.11-8.77,4.22-17.87,2.47-26.72
				c-3.74-18.89-28.6-23.81-38.08-6.29C175.94,350.95,172.74,376.5,173.71,400.01z"/>
		</g>
	</g>
	<g>
		<g>
			<g>
				<path style="fill:#E5D1BD;" d="M712.73,411.21c0.87-0.99,1.15-1.36,2.56-1.99c1.42-0.64,3.1-0.86,4.79-1.97
					c1.22-0.81,0.91-3.75,3.75-2.63c1.05,0.41,2.87,1.72,4.87,2.49c2.91,1.11,7.06,1.02,10.57,0.25c13.79-3.03,27.65-5.8,41.77-7.22
					c0.8-0.08,1.6-0.14,2.28-0.61c1.21-0.85,1.37-2.24,1.68-3.61c1.43-6.33,3.05-12.53,5.67-18.5c2.34-5.33,5.1-10.41,9.6-14.17
					c4.5-3.77,10.44-5.66,15.97-3.89c4.14,1.32,7.58,4.21,8.44,8.53c2.13,10.71-7.7,18.72-13.6,26.23
					c-5.58,7.1-10.35,13.13-16.19,19.64c-0.72,0.8-1.41,1.56-2.42,2.01c-1.01,0.46-2.18,0.48-3.28,0.47
					c-14.14-0.19-27.92-0.73-41.77,2.14c-3.8,0.79-7.28-0.02-10.86,1.2c-2.29,0.78-3.48,3.04-5.58,4.13
					c-2.1,1.09-4.58,2.19-6.94,2.35c-4.64,0.31-7.5-3.1-10.66-5.9c-2.53-2.24-4.44-2.89-7.73-2.01c-0.39,0.1-0.8,0.35-1.24,0.25
					c-1.28-0.28-1.82-1.78-1.16-2.91c0.66-1.13,1.83-1.46,3.05-1.88c1.21-0.41,2.59-0.76,3.9-0.83c0.56-0.03,1.2-0.01,1.61-0.41
					C712.23,411.94,712.36,411.63,712.73,411.21z"/>
			</g>
			<g>
				<path style="fill:#AAB4B5;" d="M810.93,390.19c-7.97-3.01-16.32-4.86-24.08-8.51c2.82-6.76,10.96-34.26,12.36-37.56
					c5.35-12.57,6.39-17.98,13.76-24.62c15.75-14.17,34.44-4.77,33.68,15.34c-0.83,21.84-12.53,40.58-25.21,57.47
					c-0.28,0.37-0.65,0.65-1.13,0.83c-0.48,0.18-1.22,0-1.79-0.23C816.03,391.94,813.44,391.14,810.93,390.19z"/>
			</g>
		</g>
		<g>
			<g>
				<g>
					<g>
						<g>
							<path style="fill:#E5D1BD;" d="M815.93,690.59c-2.79,0.09-5.46-0.53-8.2-0.78c-1.41-27.13,1.15-55.57,2.26-82.84
								c6.97,0.37,13.94,0.74,20.91,1.12c-4.85,14.57-8.32,29.6-10.35,44.83C820.23,655.33,816.32,690.58,815.93,690.59z"/>
						</g>
						<g>
							<path style="fill:#292949;" d="M806.88,684.55c-1.72-0.31-2.74,0.46-3.88,1.51c-0.67,0.61-1.12,1.47-1.92,1.91
								c-0.8,0.44-1.59,0.52-2.55,0.62c-5.03,0.51-16.61,0.3-10.44,8.71c5.61,7.64,20.49,4.6,29.09,2.52
								c0.57-0.14,1.16-0.22,1.58-0.66c0.41-0.44,0.69-1.06,0.87-1.71c0.98-3.59,2.32-8.08-2.1-9.59c-1.89-0.64-3.62,0.61-5.62-0.09
								C810.28,687.2,808.6,684.85,806.88,684.55z"/>
						</g>
					</g>
				</g>
				<path style="fill:#292949;" d="M794.36,623.34c14.22-0.28,28.43-0.55,42.65-0.83c11.5-54.74,21.63-109.77,30.37-165.02
					c0.68-4.28,1.34-8.74,0.1-12.9c-2.33-7.86-10.76-12.35-18.82-13.86c-12.53-2.34-35.55,0.92-41.98,13.95
					c-6.79,13.77-5.65,38.36-7.3,53.57C794.88,539.77,793.2,581.6,794.36,623.34z"/>
			</g>
			<g>
				<g>
					<g>
						<g>
							<path style="fill:#E5D1BD;" d="M897.22,690.59c2.79,0.09,5.47-0.53,8.2-0.78c1.41-27.13-1.15-55.57-2.26-82.84
								c-6.97,0.37-13.94,0.74-20.91,1.12c4.85,14.57,8.32,29.6,10.35,44.83C892.91,655.33,896.82,690.58,897.22,690.59z"/>
						</g>
						<g>
							<path style="fill:#292949;" d="M906.27,684.55c1.72-0.31,2.74,0.46,3.88,1.51c0.67,0.61,1.12,1.47,1.92,1.91
								c0.8,0.44,1.59,0.52,2.55,0.62c5.03,0.51,16.61,0.3,10.44,8.71c-5.6,7.64-20.49,4.6-29.09,2.52
								c-0.57-0.14-1.16-0.22-1.58-0.66c-0.41-0.44-0.69-1.06-0.87-1.71c-0.98-3.59-2.32-8.08,2.1-9.59
								c1.89-0.64,3.62,0.61,5.62-0.09C902.87,687.2,904.55,684.85,906.27,684.55z"/>
						</g>
					</g>
				</g>
				<path style="fill:#292949;" d="M918.79,623.34c-14.22-0.28-28.43-0.55-42.65-0.83c-11.5-54.74-21.63-109.77-30.37-165.02
					c-0.68-4.28-1.34-8.74-0.1-12.9c2.33-7.86,10.76-12.35,18.82-13.86c12.53-2.34,35.55,0.92,41.98,13.95
					c6.79,13.77,5.65,38.36,7.3,53.57C918.26,539.77,919.94,581.6,918.79,623.34z"/>
			</g>
		</g>
		<g>
			<path style="fill:#474EBB;" d="M882.34,323.16c11.4,10.85,19.93,24.78,25.08,39.21c9.11,25.56,9.28,52.85,9.36,79.59
				c0.03,8.9,0.06,17.8,0.08,26.7c0.03,8.76-0.75,10.64-10.26,9.49c-17.63-2.14-35.97-5.77-51.95-13.61
				c-7.6-3.73-14.71-8.44-22.68-11.38c-11.6-4.27-23.49-2.34-34.96-5.12c4.98-15.06,8.55-27.88,11.1-43.39
				c2.63-15.97,5.02-33.4,8.88-49.15c2.31-9.46,6.62-18.29,11-26.98c2.94-5.84,6.06-11.83,11.06-16.05
				C854.1,299.74,870.98,312.35,882.34,323.16z"/>
		</g>
		<g>
			<g>
				<g>
					<path style="fill:#E5D1BD;" d="M841.21,285.66c2.15,4.7,5.67,8.63,8.54,12.93c2.79,4.19,3.8,7.97,4.54,12.83
						c0.54,3.51,1.79,6.25,6.01,6.85c7.97,1.13,5.69-5.45,7.5-10.24c2.07-5.47,6.48-9.8,9.56-14.68
						c8.91-14.11,6.36-42.01-12.15-47.97C844.98,238.87,834.68,271.39,841.21,285.66z"/>
				</g>
			</g>
			<g>
				<path style="fill:#292949;" d="M873.48,272c2.3,0.09,4.82,0.27,6.53,1.82c1.7,1.54,1.52,4.91-0.73,5.27
					c-2.04,0.33-4.68-1.8-5.93-0.24c-0.73,0.91-0.09,2.24,0.46,3.3c2.12,4.07,2.75,8.8,1.77,13.14c0.84,0.78,2.15-0.03,2.88-0.84
					c3.66-4.02,6.52-8.71,8.39-13.78c0.74,1.23,1.81,2.27,3.08,2.99c-0.76-1.9-0.28-3.99,0.19-5.93c1.73-7.14,2.91-15.5-2.08-21.34
					c-2.67-3.12-6.72-4.92-10.8-5.67c-4.08-0.75-8.24-0.57-12.35-0.39c-1.76,0.08-3.93,0.46-4.35,2.09
					c3.86,1.55,7.85,4.56,9.78,8.21C870.92,261.75,873.24,272,873.48,272z"/>
			</g>
			<g>
				<path style="fill:#292949;" d="M865.33,254.85c0.14,0.1,0.28,0.21,0.41,0.31c1.75,1.33,3.39,2.95,5.51,3.54
					c3.05,0.85,6.33-0.62,9.33,0.42c3.36,1.16,5.56,5.18,8.01,7.55c4.02,3.9,9,6.76,14.35,8.39c2.73,0.83,5.56,1.34,8.41,1.5
					c1.29,0.07,3.02,0.32,4.28-0.02c1.69-0.46,1.63-1.22-0.17-1.8c-5.65-1.81-7.42-9.75-7-15.01c0.34-4.15,1.77-8.49,0.19-12.35
					c-1.21-2.94-3.81-4.46-6.32-6.15c-2.77-1.86-5.77-1.36-8.92-2.25c-3.28-0.93-5.95-3.52-9.3-4.17c-3.53-0.7-7.07,0.87-10.6,1.56
					c-2.92,0.57-5.96,0.53-8.87-0.11c-2.6-0.57-5.15-1.63-7.81-1.6c-3.93,0.04-7.55,2.49-9.85,5.69c-3.25,4.52-5.35,12.25-4.2,18.2
					c-0.18-0.92,2.93-4.27,3.57-4.99c1.35-1.52,2.98-2.94,5.04-3.19C856.05,249.81,861.58,252.13,865.33,254.85z"/>
			</g>
		</g>
		<g>
			<path id="XMLID_76_" style="fill:#B1B1B2;" d="M770,529.82l-1.08,11.83c-0.35,3.84,2.15,7.21,5.58,7.52l27.75,2.52
				c3.43,0.31,6.5-2.55,6.85-6.39l1.08-11.83L770,529.82z"/>
			<path style="fill:#D67086;" d="M871.82,378.97c3.79-41.61-23.27-78.08-60.43-81.46c-37.16-3.38-70.35,27.61-74.14,69.21
				c-1.35,14.79,1.21,28.92,6.72,41.15l0,0c15.53,36.83,17.18,66.64,17.18,66.64l33.86,3.08l33.86,3.08c0,0,7-29.03,28.92-62.45l0,0
				C865.41,407.2,870.47,393.76,871.82,378.97z"/>
			<path style="fill:#DDDDDD;" d="M760.37,474.46l-4.57,50.24c-0.19,2.1,1.14,3.94,2.97,4.1l62.65,5.7c1.83,0.17,3.47-1.4,3.66-3.5
				l4.57-50.24L760.37,474.46z"/>
			<path style="opacity:0.2;fill:#3B3387;" d="M871.91,364.76c-20.49,35.85-58.94,90.63-110.77,109.56
				c0.01,0.12,0.01,0.21,0.01,0.21l33.86,3.08l33.86,3.08c0,0,7-29.03,28.92-62.45l0,0c7.63-11.04,12.69-24.48,14.04-39.26
				C872.26,374.15,872.26,369.4,871.91,364.76z"/>
			<g>
				<path style="opacity:0.5;fill:#FFFFFF;" d="M747.68,373.93c3.3-36.32,32.28-63.38,64.72-60.42
					c18.96,1.73,34.91,13.32,44.23,29.91c-8.35-20.64-26.15-35.64-47.93-37.62c-32.44-2.95-61.42,24.1-64.73,60.42
					c-1.37,15.09,1.91,29.41,8.53,41.2C748.42,397.32,746.6,385.86,747.68,373.93z"/>
			</g>
			<g>
				<polygon style="fill:#F6F7F7;" points="781.92,476.42 782.54,379.24 792.94,390.85 804.45,374.18 812.94,392.11 825.03,383.02 
					808.09,478.8 811.56,479.11 830.05,374.6 814.25,386.48 805.03,367.03 792.64,384.98 779.12,369.88 778.44,476.1 				"/>
			</g>
			<g>
				<path style="fill:#EDECED;" d="M778.51,466.41l-0.06,9.69l3.48,0.32l0.08-11.97C780.84,465.12,779.68,465.77,778.51,466.41z"/>
				<path style="fill:#EDECED;" d="M815.06,439.36l-6.98,39.44l3.48,0.32l7.76-43.88C817.92,436.63,816.5,438,815.06,439.36z"/>
			</g>
			<g>
				
					<rect x="788.79" y="459.94" transform="matrix(0.0906 -0.9959 0.9959 0.0906 228.8623 1240.0717)" style="fill:#C4C4C4;" width="9.32" height="69.56"/>
				
					<rect x="786.98" y="479.75" transform="matrix(0.0906 -0.9959 0.9959 0.0906 207.4923 1256.2948)" style="fill:#C4C4C4;" width="9.32" height="69.56"/>
			</g>
			<g>
				<path style="fill:#C2C2C4;" d="M795.41,510.2l31.3,2.85l0.96-10.54l-19.3-1.76C803.95,504.39,799.62,507.51,795.41,510.2z"/>
				<path style="fill:#C2C2C4;" d="M828.5,493.23l1.14-12.47l-1.09-0.1c-1.59,2.32-5.42,6.49-10.77,11.6L828.5,493.23z"/>
				<path style="fill:#C2C2C4;" d="M758.76,528.8l62.65,5.7c1.83,0.17,3.47-1.4,3.66-3.5l0.79-8.67l-45.23-4.12
					c-9.64,4.32-18.16,6.44-24.8,7.45C756.04,527.32,757.22,528.66,758.76,528.8z"/>
				<path style="fill:#B1B1B2;" d="M808.36,500.75l19.3,1.76l0.84-9.28l-10.72-0.98C814.62,495.36,811.47,498.19,808.36,500.75z"/>
				<path style="fill:#B1B1B2;" d="M780.62,518.21l45.23,4.12l0.84-9.28l-31.3-2.85C790.27,513.47,785.32,516.1,780.62,518.21z"/>
			</g>
			<path style="fill:#9E9E9E;" d="M809.52,540.66c-8.58,7.71-23.78,8.9-28.78,9.08l21.51,1.96c3.43,0.31,6.5-2.55,6.85-6.39
				L809.52,540.66z"/>
		</g>
		<g>
			<g>
				<path style="fill:#E5D1BD;" d="M826.1,433.08c0.09-0.26,0.19-0.53,0.35-0.75c1.49-2.03,3.48-2.2,5.46-3.74
					c0.88-0.69,0.63-3.55,2.84-2.79c0.81,0.28,2.71,1.26,4.44,1.88c2.52,0.91,6.27,0.53,9.19-0.32c3.92-1.14,8.05-2.44,11.73-4.13
					c3.85-1.78,7.61-3.76,11.28-5.89c3.06-1.77,7.91-3.81,10.22-6.51c3.91-4.57-0.62-15.7-1.13-21.41
					c-0.54-5.94-0.02-23.46,8.01-23.95c13.15-0.81,13.35,11.68,13.94,21.74c0.37,6.28,0.34,12.67-0.22,18.94
					c-0.79,8.78-6.48,13.8-13.99,17.96c-7.97,4.4-16.11,8.72-24.87,11.34c-4.25,1.27-8.44,1.65-12.79,2.36
					c-4.29,0.69-3.74,2.56-7.34,4.13c-2.01,0.88-3.89,2.15-6.04,2.64c-3.85,0.88-6.93-1.79-9.85-3.85c-0.73-0.51-1.22-0.86-1.6-1.6
					c-0.61-1.21-0.37-2.51-0.18-3.8C825.67,434.56,825.85,433.8,826.1,433.08z"/>
			</g>
			<g>
				<path style="fill:#474EBB;" d="M902.2,390.61c-7.43,1.44-14.87,2.88-22.3,4.32c0.48-0.09-8.6-33.33-9.07-35.32
					c-1.8-7.62-3.62-15.53-2.07-23.21c3.3-16.4,11.2-20.43,21.16-3.2c9.4,16.26,24.13,35.73,21.21,54.23
					c-0.06,0.4-0.14,0.82-0.39,1.14c-0.35,0.44-0.95,0.57-1.49,0.68C906.89,389.7,904.54,390.16,902.2,390.61z"/>
			</g>
		</g>
	</g>
</g>
</svg>
