<?xml version="1.0" encoding="utf-8"?>
<!-- Generator: Adobe Illustrator 22.0.1, SVG Export Plug-In . SVG Version: 6.00 Build 0)  -->
<svg version="1.1" id="Layer_1" xmlns="http://www.w3.org/2000/svg" xmlns:xlink="http://www.w3.org/1999/xlink" x="0px" y="0px"
	 viewBox="0 0 200 200" style="enable-background:new 0 0 200 200;" xml:space="preserve">
<g>
	
		<ellipse transform="matrix(0.9637 -0.2671 0.2671 0.9637 -26.7755 30.8422)" style="fill-rule:evenodd;clip-rule:evenodd;fill:#F3DBB1;" cx="100" cy="113.86" rx="85.8" ry="85.8"/>
	<g>
		<path style="fill-rule:evenodd;clip-rule:evenodd;fill:#383161;" d="M126.88,54.37c-0.12-0.22-0.03-0.5,0.19-0.62
			c0.22-0.12,0.5-0.03,0.62,0.19c0.03,0.05,8.89,16.61,9.78,20.66c0.48,2.18,0.56,4.4,0.06,6.38c-0.45,1.77-1.36,3.34-2.86,4.5
			c-0.2,0.15-0.49,0.12-0.64-0.08c-0.15-0.2-0.12-0.49,0.08-0.64c1.33-1.03,2.13-2.42,2.53-4c0.46-1.83,0.38-3.9-0.07-5.96
			C135.71,70.86,126.9,54.41,126.88,54.37z"/>
		<path style="fill-rule:evenodd;clip-rule:evenodd;fill:#383161;" d="M66.38,28.73c0.14-0.21,0.42-0.28,0.63-0.14
			c0.21,0.14,0.28,0.42,0.14,0.63c-0.02,0.04-8.13,12.3,6.89,23.14c0.21,0.15,0.25,0.43,0.1,0.64c-0.15,0.21-0.43,0.25-0.64,0.1
			C57.77,41.75,66.36,28.77,66.38,28.73z"/>
		<path style="fill-rule:evenodd;clip-rule:evenodd;fill:#383161;" d="M74.74,51.63c0,0-8.32-6.86-10.16-12.73
			c-1.84-5.87-0.92-11.04,3.91-16.91C73.32,16.12,88.16,2.9,92.3,0.94c4.14-1.96,12.54,1.11,18.06,6.13c0,0,6.96-1.53,9.6-0.38
			c2.64,1.15,8.61,9.34,13.7,25.76c5.09,16.41-7.24,23.76-15.95,29.13l-31.14-1.86L74.74,51.63z"/>
		<path style="fill-rule:evenodd;clip-rule:evenodd;fill:#383161;" d="M74.18,42.53l-4.16,1.56c0,0,0.58,16.08-3.65,27.15
			c-4.23,11.07-0.87,20.43,5.96,18.19c0,0,0.4,6.74,6.06,8.3c5.66,1.56,12.7,2.77,12.7,2.77l19.04,1.05c0,0,18.08,5.01,19.43-16.21
			c0,0,6.15-0.26,6.25-7.64c0.1-7.38-8.37-19.37-8.37-34.66C127.43,27.75,74.18,42.53,74.18,42.53z"/>
		<path style="fill-rule:evenodd;clip-rule:evenodd;fill:#F3DBB1;" d="M121.65,59.21c0,0-1.62-2.16-5.1-3.63
			c-3.48-1.47-2.89,3.91-1.8,4.4C115.84,60.47,120.72,61.92,121.65,59.21z"/>
		<path style="fill-rule:evenodd;clip-rule:evenodd;fill:#E6BAA8;" d="M65.62,82.41c-3.69,1.05-6.22,5.96-7.68,13.1
			c-1.48,7.25-11.4,43.47-10.46,48.56c-0.35-2.89,21.83-21.62,24.94-24.65c0,0-1.66-22.86-2.3-27.89
			C69.47,86.5,67.52,82.6,65.62,82.41z"/>
		<path style="fill-rule:evenodd;clip-rule:evenodd;fill:#D68A83;" d="M57.25,133.09c6.25-5.82,13.49-12.04,15.17-13.67
			c0,0-1.66-22.86-2.3-27.89c-0.1-0.79-0.24-1.56-0.4-2.29l-2.99-2.87l-1.99,23.91l1.15,2.98l-2.19,3.33L57.25,133.09L57.25,133.09z
			"/>
		<path style="fill-rule:evenodd;clip-rule:evenodd;fill:#CC5135;" d="M65.91,82.09c0,0-3.11,0.54-4.63,2.79
			c-1.52,2.25-7.3,21.73-7.3,21.73s-0.3,0.97,0.12,1.7c0.43,0.73,11.38,7.18,11.38,7.18l6.21-15.4
			C71.69,100.09,71.32,82.93,65.91,82.09z"/>
		<path style="fill-rule:evenodd;clip-rule:evenodd;fill:#E6B35B;" d="M54.39,105.56c-0.26,0.65-0.41,1.04-0.41,1.04
			s-0.03,0.11-0.06,0.28l12.36,7.49l0.8-1.12L54.39,105.56z"/>
		<path style="fill-rule:evenodd;clip-rule:evenodd;fill:#E6BAA8;" d="M134.38,82.41c3.69,1.05,6.22,5.96,7.68,13.1
			c1.48,7.25,11.4,43.47,10.46,48.56c0.36-2.89-21.83-21.62-24.94-24.65c0,0,1.65-22.86,2.3-27.89
			C130.53,86.5,132.48,82.6,134.38,82.41z"/>
		<path style="fill-rule:evenodd;clip-rule:evenodd;fill:#D68A83;" d="M142.75,133.09c-6.25-5.82-13.49-12.04-15.17-13.67
			c0,0,1.65-22.86,2.3-27.89c0.1-0.79,0.24-1.56,0.4-2.29l2.99-2.87l1.99,23.91l-1.15,2.98l2.19,3.33L142.75,133.09L142.75,133.09z"
			/>
		<path style="fill-rule:evenodd;clip-rule:evenodd;fill:#CC5135;" d="M134.08,82.09c0,0,3.11,0.54,4.63,2.79
			c1.52,2.25,7.3,21.73,7.3,21.73s0.3,0.97-0.12,1.7c-0.43,0.73-11.38,7.18-11.38,7.18l-6.21-15.4
			C128.31,100.09,128.67,82.93,134.08,82.09z"/>
		<path style="fill-rule:evenodd;clip-rule:evenodd;fill:#E6B35B;" d="M145.61,105.56c0.26,0.65,0.41,1.04,0.41,1.04
			s0.03,0.11,0.06,0.28l-12.36,7.49l-0.8-1.12L145.61,105.56z"/>
		<path style="fill-rule:evenodd;clip-rule:evenodd;fill:#E6B5A3;" d="M99.86,47.94L99.86,47.94c5.47,0,9.94,4.47,9.94,9.94v19.03
			c0,5.47-4.47,9.94-9.94,9.94l0,0c-5.47,0-9.94-4.47-9.94-9.94V57.88C89.92,52.41,94.4,47.94,99.86,47.94z"/>
		<path style="fill-rule:evenodd;clip-rule:evenodd;fill:#CC5135;" d="M111.53,77.67c0,0-4.2,6.02-11.53,6.02
			c-7.33,0-11.53-6.02-11.53-6.02c-0.79-0.88-2.33-0.34-5.55,0.81c-3.21,1.15-9.85,2.15-17.01,3.61l0,0c-0.01,0-0.21,0.12-0.29,0.32
			c0,0,0.63,0.08,0.89,0.69c0.26,0.61,0.59,17.18,0.67,20.1c0.08,2.92-6.08,9.49-2.19,21.5c0.72,2.22,1.34,4.12,1.89,5.75
			c0,0,3.8,14.69,4.45,22.48c0.65,7.79-1.31,14.99-3.08,23.7c-0.91,4.5-2.6,10.49-4.02,15.23c10.89,5,23,7.79,35.76,7.79h0
			c12.76,0,24.87-2.79,35.76-7.79c-1.42-4.74-3.1-10.74-4.02-15.24c-1.77-8.71-3.73-15.91-3.08-23.7
			c0.65-7.79,4.45-22.48,4.45-22.48c0.54-1.63,1.17-3.53,1.89-5.75c3.89-12.01-2.27-18.58-2.19-21.5c0.08-2.92,0.41-19.49,0.67-20.1
			c0.26-0.61,0.89-0.69,0.89-0.69c-0.08-0.2-0.29-0.32-0.3-0.32l0,0c-7.15-1.46-13.79-2.46-17.01-3.61
			C113.86,77.33,112.32,76.78,111.53,77.67z"/>
		<path style="fill-rule:evenodd;clip-rule:evenodd;fill:#C53627;" d="M80.84,79.1c-1.01,0.26-2.17,0.51-3.45,0.78L77.32,83
			l1.79,3.69l10.24,9.11l-21.1,40.22c1.16,4.98,2.7,12.2,3.09,16.9c0.04,0.53,0.08,1.07,0.1,1.59l16.23-28.09l15.17-11.64
			l-8.35,31.83l23.63-6.91c0,0,2.24-0.49,3.8,1.66c0.87,1.19,4.12,6.35,6.84,10.68c0.84-7.96,4.37-21.6,4.37-21.6
			c0.27-0.81,0.56-1.68,0.87-2.62l-33.8-38.88l-12.91-9.42L80.84,79.1z"/>
		<g>
			<path style="fill-rule:evenodd;clip-rule:evenodd;fill:#C53627;" d="M82.92,78.48c0,0,0.87-0.07,1.12,3.14
				c1.3,17.22,13.77,16.99,15.96,6.55v-4.48c-7.33,0-11.53-6.02-11.53-6.02C87.68,76.78,86.13,77.33,82.92,78.48z"/>
			<path style="fill-rule:evenodd;clip-rule:evenodd;fill:#C53627;" d="M117.08,78.48c0,0-0.87-0.07-1.12,3.14
				c-1.3,17.22-13.77,16.99-15.96,6.55v-4.48c7.33,0,11.53-6.02,11.53-6.02C112.32,76.78,113.86,77.33,117.08,78.48z"/>
		</g>
		<path style="fill-rule:evenodd;clip-rule:evenodd;fill:#D2887B;" d="M89.97,77.83l14.97-5.91L109.8,70v-2.12
			c-2.85,1.85-6.15,2.95-9.8,2.98c-0.05,0-0.09,0-0.14,0c-0.05,0-0.09,0-0.14,0c-3.51-0.03-6.85-1.36-9.8-3.5v5.74
			c-0.05,0.64-0.31,3.3-1.58,4.43c0.04,0.04,0.08,0.08,0.12,0.12c0,0,0.16,0.22,0.46,0.58L89.97,77.83z"/>
		<g>
			<path style="fill-rule:evenodd;clip-rule:evenodd;fill:#D68A83;" d="M120.34,44.73c0.15,0.02,0.29,0.05,0.44,0.08l0,0v0
				c2.66,0.58,4.67,2.93,4.71,5.77c0.04,3.3-2.61,6.01-5.91,6.05c-3.3,0.04-6.01-2.6-6.05-5.91c-0.02-1.92,0.86-3.64,2.25-4.75
				c-0.17,1.76,0.1,3.95,2.35,4.18l-0.04-3.45C118.08,45.31,119.38,44.68,120.34,44.73z"/>
			<path style="fill-rule:evenodd;clip-rule:evenodd;fill:#D68A83;" d="M79.45,44.44c-0.15,0.02-0.29,0.04-0.44,0.07l0,0l0,0
				c-2.67,0.54-4.71,2.87-4.79,5.7c-0.09,3.3,2.52,6.05,5.82,6.13c3.3,0.09,6.05-2.52,6.13-5.82c0.05-1.92-0.81-3.65-2.19-4.78
				c0.14,1.77-0.16,3.95-2.41,4.15l0.09-3.45C81.71,45.06,80.41,44.41,79.45,44.44z"/>
		</g>
		<path style="fill-rule:evenodd;clip-rule:evenodd;fill:#E6BAA8;" d="M99.86,74.66c-11.16,0-20.47-13.77-20.47-24.64V35.58
			c0-11.26,9.21-20.47,20.47-20.47h0c11.25,0,20.47,9.21,20.47,20.47v14.14C120.32,61.63,112.2,74.66,99.86,74.66z"/>
		<path style="fill-rule:evenodd;clip-rule:evenodd;fill:#D68A83;" d="M78.59,40.48v-3.54c0-4.96,1.79-9.53,4.76-13.08l30.81,0.76
			l0.61,3.28l-1.99,1.45c0,0-11.79,25.29-31.87,12.64C80.08,41.48,79.31,40.97,78.59,40.48z"/>
		<path style="fill-rule:evenodd;clip-rule:evenodd;fill:#D3776D;" d="M111.51,54.24c-2.03,0.04-3.65,1.72-3.61,3.75
			c0.04,2.03,1.71,3.65,3.75,3.61c2.03-0.04,3.65-1.72,3.61-3.75C115.22,55.82,113.54,54.2,111.51,54.24z"/>
		<path style="fill-rule:evenodd;clip-rule:evenodd;fill:#D3776D;" d="M88.03,54.69c-2.03,0.04-3.65,1.72-3.61,3.75
			c0.04,2.03,1.72,3.65,3.75,3.61c2.03-0.04,3.65-1.72,3.61-3.75C91.74,56.27,90.06,54.65,88.03,54.69z"/>
		
			<path style="fill-rule:evenodd;clip-rule:evenodd;fill:none;stroke:#C53627;stroke-width:0.8504;stroke-linecap:round;stroke-linejoin:round;stroke-miterlimit:2.6131;" d="
			M65.62,82.41c0,0,0.63,0.08,0.89,0.69c0.26,0.61,0.59,17.18,0.67,20.1c0.08,2.92-6.08,9.49-2.19,21.5
			c0.72,2.22,1.34,4.12,1.89,5.75c0,0,3.8,14.69,4.45,22.48c0.65,7.79-1.31,14.99-3.08,23.7c-0.91,4.5-2.6,10.49-4.02,15.23
			 M133.07,104.54l-3.24-7.42 M67.02,104.25l1.72-4.55 M78.72,183.97c0,0,15.19,11.49,34.66,12.07 M134.69,188.22l-19.56-33.46
			 M69.09,172.62l5.34-13.38 M135.76,191.87c-1.42-4.74-3.1-10.74-4.02-15.24c-1.77-8.71-3.73-15.91-3.08-23.7
			c0.65-7.79,4.45-22.48,4.45-22.48c0.54-1.63,1.17-3.53,1.89-5.75c3.89-12.01-2.27-18.58-2.19-21.5c0.08-2.92,0.41-19.49,0.67-20.1
			c0.26-0.61,0.89-0.69,0.89-0.69"/>
		<path style="fill-rule:evenodd;clip-rule:evenodd;fill:#383161;" d="M93.77,40.3c0.43,0.2,0.62,0.7,0.43,1.13
			c-0.2,0.43-0.71,0.62-1.14,0.43c-0.01,0-2.59-1.23-5.06,0.33c-0.4,0.25-0.93,0.13-1.19-0.27c-0.25-0.4-0.13-0.93,0.27-1.19
			C90.35,38.68,93.76,40.3,93.77,40.3z"/>
		<path style="fill-rule:evenodd;clip-rule:evenodd;fill:#FFFFFF;" d="M82.69,71.54c0,0-10.42,2.3-12.11,8.45
			c-1.69,6.15-5.16,19.07,8.42,32.9s10.17,28.75,10.17,28.75s-0.65,5.52,4.06,5.19c4.71-0.33,17.85-7.95,17.85-7.95
			s3.89-2.76,2.27-8.6c-1.35-4.87-3.89-17.85-15.28-27.05c-2.1-1.7-4.45-2.68-7.27-3.79c-17.04-6.65-10.72-21.28-10.72-21.28
			L82.69,71.54z"/>
		<path style="fill-rule:evenodd;clip-rule:evenodd;fill:#F3DBB1;" d="M82.69,71.54c0,0-9.69,2.14-11.89,7.82l8.31,7.35
			c-0.69-4.66,0.98-8.54,0.98-8.54L82.69,71.54L82.69,71.54z M81.6,115.78c2.97,3.65,4.87,7.3,6.06,10.66l10.41-23.2
			c-2.2-1.45-4.6-2.74-7.22-3.77L81.6,115.78z"/>
		<path style="fill-rule:evenodd;clip-rule:evenodd;fill:#383161;" d="M113.98,41.3c0.36,0.3,0.41,0.84,0.11,1.21
			c-0.3,0.36-0.84,0.42-1.21,0.11c-0.01,0-2.18-1.87-4.97-1.02c-0.46,0.14-0.94-0.12-1.07-0.57c-0.14-0.45,0.12-0.94,0.57-1.07
			C111.1,38.83,113.98,41.29,113.98,41.3z"/>
		<path style="fill-rule:evenodd;clip-rule:evenodd;fill:#F1D3C8;" d="M100.57,52.62c0.33,1.06,0.89,2.97,0.81,3.28
			c-0.1,0.44-2.37,0.75-2.94,0.14c-0.37-0.4,0.2-2.08,0.69-3.21C99.8,51.3,100.13,51.2,100.57,52.62z"/>
		<g>
			<path style="fill-rule:evenodd;clip-rule:evenodd;fill:#383161;" d="M111.8,49.28c0,0.48-0.19,0.93-0.53,1.27
				c-0.34,0.34-0.8,0.52-1.27,0.52c-0.48,0-0.93-0.19-1.27-0.53c-0.34-0.34-0.52-0.79-0.52-1.27c0-0.4-0.32-0.72-0.72-0.72
				c-0.4,0-0.72,0.32-0.72,0.72c0,0.86,0.33,1.68,0.94,2.29c0.61,0.61,1.42,0.95,2.28,0.96c0.86,0,1.68-0.33,2.29-0.94
				c0.31-0.31,0.56-0.68,0.72-1.08c0.09-0.02,0.28-0.04,0.44,0.09c0.09,0.07,0.22,0.05,0.29-0.04c0.07-0.09,0.05-0.22-0.04-0.29
				c-0.18-0.14-0.38-0.18-0.55-0.18l0-0.02c0.17-0.04,0.4-0.04,0.63,0.07c0.1,0.05,0.23,0.01,0.27-0.1c0.05-0.1,0-0.23-0.1-0.27
				c-0.26-0.12-0.51-0.14-0.73-0.12l0,0c0.18-0.07,0.4-0.12,0.64-0.09c0.11,0.01,0.22-0.07,0.23-0.18c0.01-0.11-0.07-0.22-0.18-0.23
				c-0.25-0.03-0.48,0-0.68,0.06c-0.05-0.35-0.35-0.62-0.71-0.62C112.12,48.56,111.8,48.88,111.8,49.28z"/>
			<path style="fill-rule:evenodd;clip-rule:evenodd;fill:#383161;" d="M87.91,49.28c0,0.48,0.19,0.93,0.53,1.27
				s0.79,0.52,1.27,0.52c0.48,0,0.93-0.19,1.27-0.53c0.34-0.34,0.52-0.79,0.52-1.27c0-0.4,0.32-0.72,0.72-0.72
				c0.4,0,0.72,0.32,0.72,0.72c0,0.86-0.33,1.68-0.94,2.29c-0.61,0.61-1.42,0.95-2.28,0.96c-0.86,0-1.68-0.33-2.29-0.94
				c-0.31-0.31-0.56-0.68-0.72-1.08c-0.09-0.02-0.28-0.04-0.44,0.09c-0.09,0.07-0.22,0.05-0.29-0.04c-0.07-0.09-0.05-0.22,0.04-0.29
				c0.18-0.14,0.38-0.18,0.55-0.18l0-0.02c-0.17-0.04-0.4-0.04-0.63,0.07c-0.1,0.05-0.23,0.01-0.27-0.1
				c-0.05-0.1-0.01-0.23,0.1-0.27c0.26-0.12,0.51-0.14,0.73-0.12l0,0c-0.18-0.07-0.4-0.12-0.64-0.09c-0.11,0.01-0.22-0.07-0.23-0.18
				c-0.01-0.11,0.07-0.22,0.18-0.23c0.25-0.03,0.48,0,0.68,0.06c0.05-0.35,0.35-0.62,0.71-0.62C87.59,48.56,87.91,48.88,87.91,49.28
				z"/>
		</g>
		<path style="fill-rule:evenodd;clip-rule:evenodd;fill:#383161;" d="M125.34,41.52l-1.88,4.71c0,0-3.13-0.32-3.13,3.56
			c0,0-2.77-2-1.7-6.74c0,0-7.36-8.91-5.81-15.36c0,0,0.5-1.57-0.57-1.76c-1.07-0.19-9.97,27.24-28.3,12.87c0,0,0.55,8.05-4.55,9.4
			c0,0-1.03-3.36-3.17-2.22c0,0-2.9-16.81,1.68-23.83C82.48,15.13,87.98,8.1,97.76,9.02C107.54,9.93,126.18,18.49,125.34,41.52z"/>
		<path style="fill-rule:evenodd;clip-rule:evenodd;fill:#FFFFFF;" d="M80.53,57.04c0,0,4.05,4.25,9.22,2.07
			c5.17-2.18,13.82-6.36,24.23-1.22c0,0,5.76,3.34,7.66,1.32c0,0,3.26,3.89,2.38,8.29c-0.88,4.4-2.35,13.35-4.55,15.62
			c-2.2,2.27-25.23,7.33-37.03,1.1c0,0-2.79-1.47-3.45-4.4c-0.66-2.93-2.64-12.32-2.86-13.64c-0.22-1.32,1.69-3.67,2.93-4.03
			C79.07,62.14,78.71,58.03,80.53,57.04z"/>
		<path style="fill-rule:evenodd;clip-rule:evenodd;fill:#F3DBB1;" d="M76.51,64.65c0.59-1.12,1.72-2.26,2.56-2.51
			c0,0,2.88,3.21,8.67,2.77C87.75,64.91,82.26,66.98,76.51,64.65z"/>
		<path style="fill-rule:evenodd;clip-rule:evenodd;fill:#F3DBB1;" d="M120.95,80.45c-0.45,1.17-0.94,2.11-1.47,2.66
			c-1.24,1.28-9.04,3.43-17.74,3.97c-0.55-4.01,1.53-17.31,1.53-17.31l2.42-7.39l8.78,10.22l1.8-0.86L120.95,80.45z"/>
		<g>
			<path style="fill-rule:evenodd;clip-rule:evenodd;fill:#D68A83;" d="M115.06,80.46c0,0,1.19-7.87,1.22-8.71
				c0.03-0.85-3.5-1.02-4.08,4.17c-0.58,5.19,2.62,4.38,2.62,4.38L115.06,80.46z"/>
			<path style="fill-rule:evenodd;clip-rule:evenodd;fill:#E6BAA8;" d="M100,62.12c0,0,0,31.27,0,35s2.1,6.13,4.32,8.28
				c2.22,2.16,11.38,15.58,11.38,15.58l9.41-8.04c0,0-11.95-14.68-12.53-15.84c-0.58-1.17-0.64-3.38,0.06-7.23
				c0.7-3.85,2.94-10.48,2.24-12.17c-0.7-1.69-6.53-10.56-9.39-15.69c0,0-0.53-0.38-1.04-0.22c-0.51,0.16-0.92,1.39-0.92,1.39
				l-1.4-2.19c0,0-1.19-1.28-2.13,0.15V62.12z"/>
			<g>
				
					<line style="fill-rule:evenodd;clip-rule:evenodd;fill:none;stroke:#D68A83;stroke-width:0.8504;stroke-linecap:round;stroke-linejoin:round;stroke-miterlimit:2.6131;" x1="103.53" y1="63.17" x2="111.56" y2="77.59"/>
				
					<path style="fill-rule:evenodd;clip-rule:evenodd;fill:none;stroke:#D68A83;stroke-width:0.8504;stroke-linecap:round;stroke-linejoin:round;stroke-miterlimit:2.6131;" d="
					M100,64.58c0,0,0.51-0.55,1.06-0.09c0.55,0.47,8.2,17.79,8.2,17.79"/>
				
					<path style="fill-rule:evenodd;clip-rule:evenodd;fill:none;stroke:#D68A83;stroke-width:0.8504;stroke-linecap:round;stroke-linejoin:round;stroke-miterlimit:2.6131;" d="
					M100,73.36c0,0,0.22-0.5,1.09-0.23c0.88,0.26,1.08,2.36,1.78,5.34c0.7,2.98,2.04,8.63,2.04,8.63"/>
				
					<line style="fill-rule:evenodd;clip-rule:evenodd;fill:none;stroke:#D68A83;stroke-width:0.8504;stroke-linecap:round;stroke-linejoin:round;stroke-miterlimit:2.6131;" x1="100" y1="61.13" x2="100" y2="92.76"/>
				
					<path style="fill-rule:evenodd;clip-rule:evenodd;fill:none;stroke:#D68A83;stroke-width:0.8504;stroke-linecap:round;stroke-linejoin:round;stroke-miterlimit:2.6131;" d="
					M114.87,77.69c-0.7-1.69-6.53-10.56-9.39-15.69c0,0-0.53-0.38-1.04-0.22c-0.51,0.16-0.92,1.39-0.92,1.39l-1.4-2.19
					c0,0-1.19-1.28-2.13,0.15"/>
			</g>
			<path style="fill-rule:evenodd;clip-rule:evenodd;fill:#E6BAA8;" d="M132.29,148.84c-8.11-9.57-27.58-43.02-27.58-43.02
				l8.26-7.45l0.69,0.27l24.1,26.16l12.74,13.46C157.17,145.29,146.29,165.36,132.29,148.84z"/>
		</g>
		
			<line style="fill-rule:evenodd;clip-rule:evenodd;fill:none;stroke:#D68A83;stroke-width:0.8504;stroke-linecap:round;stroke-linejoin:round;stroke-miterlimit:2.6131;" x1="135.63" y1="122.47" x2="146.24" y2="133.74"/>
		<g>
			<path style="fill-rule:evenodd;clip-rule:evenodd;fill:#D68A83;" d="M84.94,80.46c0,0-1.19-7.87-1.22-8.71
				c-0.03-0.85,3.5-1.02,4.08,4.17c0.58,5.19-2.62,4.38-2.62,4.38L84.94,80.46z"/>
			<path style="fill-rule:evenodd;clip-rule:evenodd;fill:#E6BAA8;" d="M100,62.12c0,0,0,31.27,0,35s-2.1,6.13-4.32,8.28
				c-2.22,2.16-11.37,15.58-11.37,15.58l-9.41-8.04c0,0,11.95-14.68,12.53-15.84c0.58-1.17,0.64-3.38-0.06-7.23
				c-0.7-3.85-2.94-10.48-2.24-12.17C85.83,76,91.66,67.14,94.52,62c0,0,0.53-0.38,1.04-0.22c0.51,0.16,0.92,1.39,0.92,1.39
				l1.4-2.19c0,0,1.19-1.28,2.13,0.15V62.12z"/>
			<g>
				
					<line style="fill-rule:evenodd;clip-rule:evenodd;fill:none;stroke:#D68A83;stroke-width:0.8504;stroke-linecap:round;stroke-linejoin:round;stroke-miterlimit:2.6131;" x1="96.47" y1="63.17" x2="88.44" y2="77.59"/>
				
					<path style="fill-rule:evenodd;clip-rule:evenodd;fill:none;stroke:#D68A83;stroke-width:0.8504;stroke-linecap:round;stroke-linejoin:round;stroke-miterlimit:2.6131;" d="
					M100,64.58c0,0-0.51-0.55-1.06-0.09c-0.56,0.47-8.2,17.79-8.2,17.79"/>
				
					<path style="fill-rule:evenodd;clip-rule:evenodd;fill:none;stroke:#D68A83;stroke-width:0.8504;stroke-linecap:round;stroke-linejoin:round;stroke-miterlimit:2.6131;" d="
					M100,73.36c0,0-0.22-0.5-1.09-0.23c-0.88,0.26-1.08,2.36-1.78,5.34c-0.7,2.98-2.04,8.63-2.04,8.63"/>
				
					<line style="fill-rule:evenodd;clip-rule:evenodd;fill:none;stroke:#D68A83;stroke-width:0.8504;stroke-linecap:round;stroke-linejoin:round;stroke-miterlimit:2.6131;" x1="100" y1="61.13" x2="100" y2="92.76"/>
				
					<path style="fill-rule:evenodd;clip-rule:evenodd;fill:none;stroke:#D68A83;stroke-width:0.8504;stroke-linecap:round;stroke-linejoin:round;stroke-miterlimit:2.6131;" d="
					M85.13,77.69C85.83,76,91.66,67.14,94.52,62c0,0,0.53-0.38,1.04-0.22c0.51,0.16,0.92,1.39,0.92,1.39l1.4-2.19
					c0,0,1.19-1.28,2.13,0.15"/>
			</g>
			<path style="fill-rule:evenodd;clip-rule:evenodd;fill:#E6BAA8;" d="M67.71,148.84c8.11-9.57,27.58-43.02,27.58-43.02l-8.26-7.45
				l-0.69,0.27l-24.1,26.16l-12.74,13.46C42.83,145.29,53.71,165.36,67.71,148.84z"/>
		</g>
		
			<line style="fill-rule:evenodd;clip-rule:evenodd;fill:none;stroke:#D68A83;stroke-width:0.8504;stroke-linecap:round;stroke-linejoin:round;stroke-miterlimit:2.6131;" x1="64.37" y1="122.47" x2="53.76" y2="133.74"/>
		<g>
			<path style="fill-rule:evenodd;clip-rule:evenodd;fill:#E6B35B;" d="M127.79,80.87L117.55,98.6c-0.11,0.2-0.37,0.27-0.56,0.15
				c-0.2-0.11-0.26-0.37-0.15-0.56l10.09-17.48L127.79,80.87z"/>
			<g>
				<g>
					<path style="fill-rule:evenodd;clip-rule:evenodd;fill:#E6B35B;" d="M124.51,80.97c0.31,0.18,0.41,0.57,0.23,0.88
						c-0.18,0.31-0.57,0.41-0.88,0.23c-0.31-0.18-0.41-0.57-0.23-0.88C123.81,80.9,124.2,80.8,124.51,80.97z"/>
					<path style="fill-rule:evenodd;clip-rule:evenodd;fill:#E6B35B;" d="M128.63,83.35c0.31,0.18,0.41,0.57,0.23,0.88
						c-0.18,0.31-0.57,0.41-0.88,0.24c-0.31-0.18-0.41-0.57-0.23-0.88C127.93,83.28,128.32,83.17,128.63,83.35z"/>
				</g>
				<g>
					<path style="fill-rule:evenodd;clip-rule:evenodd;fill:#E6B35B;" d="M122.44,84.56c0.31,0.18,0.41,0.57,0.24,0.88
						c-0.18,0.31-0.57,0.41-0.88,0.23c-0.31-0.18-0.41-0.57-0.24-0.88C121.74,84.49,122.13,84.38,122.44,84.56z"/>
					<path style="fill-rule:evenodd;clip-rule:evenodd;fill:#E6B35B;" d="M126.56,86.93c0.31,0.18,0.41,0.57,0.24,0.88
						c-0.18,0.31-0.57,0.41-0.88,0.24c-0.31-0.18-0.41-0.57-0.23-0.88C125.86,86.86,126.25,86.76,126.56,86.93z"/>
				</g>
				<g>
					<path style="fill-rule:evenodd;clip-rule:evenodd;fill:#E6B35B;" d="M120.37,88.14c0.31,0.18,0.41,0.57,0.23,0.88
						c-0.18,0.31-0.57,0.41-0.88,0.23c-0.31-0.18-0.41-0.57-0.23-0.88C119.67,88.07,120.06,87.97,120.37,88.14z"/>
					<path style="fill-rule:evenodd;clip-rule:evenodd;fill:#E6B35B;" d="M124.49,90.52c0.31,0.18,0.41,0.57,0.23,0.88
						c-0.18,0.31-0.57,0.41-0.88,0.23c-0.31-0.18-0.41-0.57-0.23-0.88C123.79,90.45,124.18,90.34,124.49,90.52z"/>
				</g>
				<g>
					<path style="fill-rule:evenodd;clip-rule:evenodd;fill:#E6B35B;" d="M118.3,91.73c0.31,0.18,0.41,0.57,0.24,0.88
						c-0.18,0.31-0.57,0.41-0.88,0.23c-0.31-0.18-0.41-0.57-0.24-0.88C117.6,91.66,117.99,91.55,118.3,91.73z"/>
					<path style="fill-rule:evenodd;clip-rule:evenodd;fill:#E6B35B;" d="M122.42,94.1c0.31,0.18,0.41,0.57,0.24,0.88
						c-0.18,0.31-0.57,0.41-0.88,0.24c-0.31-0.18-0.41-0.57-0.24-0.88C121.72,94.03,122.11,93.93,122.42,94.1z"/>
				</g>
				<g>
					<path style="fill-rule:evenodd;clip-rule:evenodd;fill:#E6B35B;" d="M116.23,95.31c0.31,0.18,0.41,0.57,0.23,0.88
						c-0.18,0.31-0.57,0.41-0.88,0.23c-0.31-0.18-0.41-0.57-0.23-0.88C115.53,95.24,115.92,95.14,116.23,95.31z"/>
					<path style="fill-rule:evenodd;clip-rule:evenodd;fill:#E6B35B;" d="M120.35,97.69c0.31,0.18,0.41,0.57,0.23,0.88
						c-0.18,0.31-0.57,0.41-0.88,0.23c-0.31-0.18-0.41-0.57-0.23-0.88C119.65,97.62,120.04,97.51,120.35,97.69z"/>
				</g>
			</g>
		</g>
		<path style="fill-rule:evenodd;clip-rule:evenodd;fill:#453F70;" d="M125.9,13.86c-0.81-1.4-1.58-2.59-2.31-3.58
			c-2.11-0.57-4.76-0.57-7.99,0.83c-8.26,3.59-21.16,14.72-32.12-3.57c-2.74,2.34-5.69,5-8.32,7.52
			c2.98,5.19,8.07,12.66,13.77,15.24c9.06,4.09,16.16-4.38,20.64-9.15C113.22,17.25,119.41,11.15,125.9,13.86z"/>
	</g>
</g>
</svg>
