<?xml version="1.0" encoding="utf-8"?>
<!-- Generator: Adobe Illustrator 22.0.1, SVG Export Plug-In . SVG Version: 6.00 Build 0)  -->
<svg version="1.1" id="Layer_1" xmlns="http://www.w3.org/2000/svg" xmlns:xlink="http://www.w3.org/1999/xlink" x="0px" y="0px"
	 viewBox="0 0 200 200" style="enable-background:new 0 0 200 200;" xml:space="preserve">
<g>
	<path style="fill:#64628E;" d="M200,100C200,44.77,155.23,0,100,0S0,44.77,0,100s44.77,100,100,100S200,155.23,200,100L200,100z"/>
	<g>
		<g>
			<defs>
				<path id="SVGID_1_" d="M200,100C200,44.77,155.23,0,100,0S0,44.77,0,100s44.77,100,100,100S200,155.23,200,100L200,100z"/>
			</defs>
			<clipPath id="SVGID_2_">
				<use xlink:href="#SVGID_1_"  style="overflow:visible;"/>
			</clipPath>
			<g style="clip-path:url(#SVGID_2_);">
				<path style="fill:#F6B76B;" d="M13.18,272.48h195.76c0,0,6.86-112.56-18.08-129.03S54.69,132.62,30.4,149.23
					C-31.2,191.35,13.18,272.48,13.18,272.48z"/>
				<path style="fill:#422A4A;" d="M45.77,119.73c-0.28,0-0.57-0.09-0.8-0.29c-0.54-0.44-13.09-11.01-6.23-32.3
					c2.4-7.44,4.75-12.72,6.83-17.37C49.3,61.4,52,55.34,52.52,42.39c0.03-0.7,0.62-1.23,1.33-1.23c0.7,0.03,1.25,0.62,1.23,1.33
					c-0.53,13.44-3.46,20.01-7.17,28.33c-2.05,4.59-4.37,9.8-6.73,17.11c-6.31,19.57,4.94,29.14,5.42,29.54
					c0.54,0.45,0.62,1.25,0.17,1.79C46.5,119.57,46.14,119.73,45.77,119.73z"/>
				<circle style="fill:#422A4A;" cx="99.26" cy="-7.86" r="16.01"/>
				<path style="fill:#422A4A;" d="M44.34,113.52c0,0,4.7,9.69,23.88,13.09c19.18,3.4,34.23-3.53,49.04,1.84s36.2-1.63,40.44-7.85
					c4.24-6.22,3.35-75.12-8.32-86.68s-72.85-21.2-86.11-7.68S35.93,105.76,44.34,113.52z"/>
				<circle style="fill:#422A4A;" cx="102.35" cy="57.18" r="52.76"/>
				<path style="fill:#F3A185;" d="M124,103.27c0,0,3.42,41.09,0,45.65c-3.42,4.57-25.11,1.14-30.82,0s-7.99-45.65-4.57-45.65
					C92.04,103.27,123.34,94.11,124,103.27z"/>
				<path style="fill:#F3A185;" d="M59.28,55.2c0,0,2.17,64.04,45.47,66.81S148,34.54,132.33,25.96S51.27,18.99,59.28,55.2z"/>
				<path style="fill:#DC5D5E;" d="M103.73,68.91c0,0,8.27,19.71,6.14,21.02s-8.35,1.07-10.03-0.38
					C98.16,88.1,100.35,66.71,103.73,68.91z"/>
				<path style="fill:#422A4A;" d="M93.37,21.05c0,0-15.53,7.51-18.48,21.6c-2.95,14.09-1.43,50.18-17.87,48.53
					C57.02,91.18,25.17,19.76,93.37,21.05z"/>
				<path style="fill:#422A4A;" d="M101.55,21.36c-1.41,1.01,16.01,0.97,25.96,13.04s12.32,42.24,13.86,42.8s7.69-37.38-3.23-48.78
					S109.57,15.62,101.55,21.36z"/>
				<path style="fill:#DC5D5E;" d="M89.22,116.17c0,0,16.85,9.58,34.34,0.63c0,0,1.36,10.75,0,13.23
					c-1.36,2.48-29.06,4.25-34.52-7.97C89.03,122.06,87.64,115.64,89.22,116.17z"/>
				<path style="fill:#F3A185;" d="M137.64,79.76c0,0,4.15-16.03,11.38-10.33c7.23,5.71,0.69,22.46-6.46,23.98
					C135.42,94.94,133.7,88.03,137.64,79.76z"/>
				<path style="fill:#F3A185;" d="M69.36,77.2c0,0-2.93-16.3-10.57-11.15s-2.37,22.35,4.65,24.4S72.67,85.74,69.36,77.2z"/>
				<path style="fill:#422A4A;" d="M119.79,59.9c0,0,7.19-4.82,12.49,0.45c4.66,4.64-5.19,1.52-8.59,2.55S115.69,64.12,119.79,59.9z
					"/>
				<path style="fill:#422A4A;" d="M89.83,61.04c0,0-6.89-5.24-12.5-0.29c-4.93,4.35,5.09,1.83,8.42,3.05
					C89.09,65.03,93.68,65.5,89.83,61.04z"/>
				<path style="fill:#FFFCF6;" d="M86.39,92.88l-0.54-0.01C78.08,92.58,72,86.03,72.28,78.26c0.29-7.61,6.47-13.57,14.08-13.57
					l0.54,0.01c7.77,0.29,13.85,6.85,13.56,14.62C100.17,86.92,93.99,92.88,86.39,92.88z M86.36,66.39
					c-6.69,0-12.12,5.24-12.38,11.94c-0.26,6.83,5.1,12.6,11.93,12.85l0.48,0.01c6.69,0,12.12-5.24,12.38-11.93
					c0.26-6.83-5.1-12.6-11.93-12.85L86.36,66.39z"/>
				<path style="fill:#FFFCF6;" d="M121.56,90.91l-0.54-0.01c-3.76-0.14-7.24-1.74-9.81-4.5s-3.9-6.35-3.75-10.12
					c0.29-7.61,6.47-13.57,14.08-13.57l0.54,0.01c3.76,0.14,7.24,1.74,9.81,4.5c2.56,2.76,3.89,6.35,3.75,10.12
					C135.35,84.94,129.17,90.91,121.56,90.91z M121.54,64.41c-6.69,0-12.13,5.24-12.38,11.94c-0.13,3.31,1.05,6.47,3.3,8.89
					c2.25,2.43,5.31,3.83,8.63,3.96l0.48,0.01c6.69,0,12.12-5.24,12.38-11.94c0.12-3.31-1.05-6.47-3.3-8.9
					c-2.25-2.42-5.31-3.83-8.62-3.95L121.54,64.41z"/>
				<path style="fill:#FFFCF6;" d="M73.55,76.31c-0.1,0-0.21-0.02-0.31-0.06l-5.16-2.04c-0.44-0.17-0.65-0.67-0.48-1.1
					c0.17-0.44,0.66-0.65,1.1-0.48l5.16,2.04c0.44,0.17,0.65,0.67,0.48,1.1C74.21,76.11,73.89,76.31,73.55,76.31z"/>
				<path style="fill:#FFFCF6;" d="M134.3,74.06c-0.37,0-0.71-0.24-0.82-0.62c-0.13-0.45,0.13-0.92,0.58-1.05l7.17-2.05
					c0.46-0.13,0.92,0.13,1.05,0.58c0.13,0.45-0.13,0.92-0.58,1.05l-7.17,2.05C134.46,74.05,134.38,74.06,134.3,74.06z"/>
				<path style="fill:#422A4A;" d="M98.62,17.69c0,0,1.95,34.71,11.52,37.86s33.09,2.29,34.23-1.51
					c1.13-3.8-18.24-34.35-32.15-39.25C87.84,6.2,66.79,45.85,69.57,55.4s23.74,1.19,28.21-0.04
					C102.25,54.14,97.73,24.55,98.62,17.69z"/>
				<path style="fill:#FFFCF6;" d="M99.62,79.39c-0.44,0-0.81-0.34-0.85-0.78c-0.04-0.47,0.31-0.88,0.78-0.91l8.73-0.68
					c0.52-0.08,0.88,0.32,0.91,0.78c0.04,0.47-0.31,0.88-0.78,0.91l-8.73,0.68C99.66,79.39,99.64,79.39,99.62,79.39z"/>
				<path style="fill:#422A4A;" d="M89.26,8.16c-0.2,0-0.4-0.05-0.58-0.14C84,5.6,81.2,2.23,80.38-1.99
					c-1.8-9.27,6.62-19.21,6.98-19.63c0.46-0.54,1.26-0.6,1.8-0.14c0.53,0.46,0.59,1.26,0.14,1.8c-0.08,0.09-7.98,9.43-6.4,17.49
					c0.67,3.42,3.01,6.19,6.96,8.22c0.63,0.32,0.87,1.09,0.55,1.72C90.17,7.91,89.72,8.16,89.26,8.16z"/>
				<path style="fill:#422A4A;" d="M107.73,11.01c-0.36,0-0.72-0.16-0.98-0.46c-0.45-0.54-0.38-1.34,0.16-1.79
					c0.09-0.08,9.42-8,9.19-16.2c-0.1-3.48-1.95-6.59-5.51-9.25c-0.56-0.42-0.68-1.22-0.26-1.79c0.43-0.57,1.22-0.68,1.79-0.26
					c4.22,3.15,6.42,6.93,6.54,11.23c0.26,9.44-9.68,17.86-10.11,18.22C108.3,10.91,108.01,11.01,107.73,11.01z"/>
				<path style="fill:#422A4A;" d="M153.45,118.66c-0.38,0-0.76-0.17-1.01-0.49c-0.43-0.56-0.33-1.36,0.22-1.79
					c0.44-0.35,10.77-8.58,8.07-22.46c-1.06-5.43-3-11.45-5.05-17.82c-3.58-11.1-7.29-22.58-7.35-33.66c0-0.7,0.56-1.28,1.27-1.28
					c0,0,0,0,0.01,0c0.7,0,1.27,0.57,1.28,1.27c0.06,10.69,3.7,21.98,7.22,32.89c2.08,6.45,4.05,12.53,5.13,18.12
					c3.01,15.45-8.51,24.58-9.01,24.96C153.99,118.57,153.72,118.66,153.45,118.66z"/>
				<path style="fill:#422A4A;" d="M157.7,60.47c-0.05,0-0.1,0-0.16-0.01c-0.7-0.09-1.2-0.72-1.11-1.42
					c1.72-14.01-0.95-25.48-7.94-34.08c-11.26-13.85-30.15-15.58-30.33-15.59c-0.7-0.06-1.22-0.67-1.17-1.38
					c0.06-0.7,0.68-1.23,1.38-1.17c0.82,0.07,20.12,1.81,32.09,16.51c7.46,9.16,10.32,21.28,8.51,36.02
					C158.88,60,158.34,60.47,157.7,60.47z"/>
				<path style="fill:#DC5D5E;" d="M105.74,110.25c-2.39,0-4.24-0.76-4.36-0.81c-0.65-0.27-0.95-1.02-0.68-1.66
					c0.27-0.65,1.03-0.94,1.66-0.69c0.03,0.01,3.51,1.43,6.55-0.09c0.62-0.31,1.4-0.06,1.71,0.57s0.06,1.4-0.57,1.71
					C108.58,110.01,107.07,110.25,105.74,110.25z"/>
				<path style="fill:#DC5D5E;" d="M64.95,86.47c-0.12,0-0.25-0.02-0.37-0.06c-0.67-0.21-1.05-0.92-0.85-1.59
					c2.32-7.62-3.23-12.68-3.29-12.73c-0.52-0.47-0.57-1.28-0.1-1.8c0.47-0.53,1.27-0.57,1.8-0.1c0.28,0.25,6.82,6.22,4.03,15.38
					C66,86.12,65.5,86.47,64.95,86.47z"/>
				<path style="fill:#DC5D5E;" d="M140.59,90.21c-0.04,0-0.07,0-0.11,0c-0.7-0.06-1.22-0.68-1.16-1.39
					c0.84-9.56,5.58-14.6,5.79-14.81c0.49-0.5,1.29-0.52,1.8-0.04c0.51,0.48,0.52,1.29,0.04,1.8c-0.04,0.05-4.33,4.66-5.09,13.27
					C141.8,89.7,141.24,90.21,140.59,90.21z"/>
				<path style="fill:#F3A185;" d="M66.26,147.12c0,0,28.96,34.63,51.3,25.36s43.26-34.38,32.03-37.71
					C138.37,131.43,48.7,133.19,66.26,147.12z"/>
				<path style="fill:#422A4A;" d="M-10.95,198.48l-17.14,50.61L96.82,291.4c0,0,19.11-48.5,16.7-49.31
					C111.12,241.27-10.95,198.48-10.95,198.48z"/>
				<path style="fill:#F3A185;" d="M13.73,259.7c0,0,21.36-14.75,20.61-11s-9.01,11-9.01,11s15-11.61,15.98-5.81
					c0.98,5.81-4.29,11.32-4.29,11.32s10.55-8.41,12.26-4.06s-11.92,23.59-23.96,23.03S7.84,263.63,13.73,259.7z"/>
				<path style="fill:#FFFFFF;" d="M21.63,231.25L68.4,250.3c0,0,8.14-24.75,6.61-27.61s-18.39-3.93-23.01-8.47
					c-4.62-4.54-2.95-10.09-10.67-9.13C33.6,206.05,21.63,231.25,21.63,231.25z"/>
				<path style="fill:#DC5D5E;" d="M106.87,106.08c-0.14,0-0.29-0.02-0.44-0.08c-3.69-1.34-5.52-2.98-5.59-5.03
					c-0.11-3.27,4.57-5.49,5.51-5.91c0.65-0.28,1.4,0.01,1.68,0.65c0.29,0.64-0.01,1.4-0.65,1.68c-1.7,0.75-4.03,2.38-3.99,3.49
					c0.01,0.31,0.33,1.42,3.91,2.72c0.66,0.24,1,0.97,0.76,1.63C107.88,105.76,107.39,106.08,106.87,106.08z"/>
				<path style="fill:#422A4A;" d="M91.5,81.72c-0.3,0-0.6-0.11-0.84-0.32c-5.34-4.72-9.09-3.45-9.24-3.4
					c-0.64,0.23-1.39-0.1-1.63-0.75c-0.25-0.65,0.07-1.38,0.72-1.63c0.21-0.08,5.24-1.95,11.84,3.87c0.53,0.47,0.58,1.27,0.11,1.8
					C92.21,81.58,91.86,81.72,91.5,81.72z"/>
				<path style="fill:#422A4A;" d="M117.72,82.01c-0.35,0-0.7-0.15-0.96-0.43c-0.47-0.53-0.42-1.33,0.11-1.8
					c6.58-5.82,11.62-3.96,11.83-3.87c0.66,0.26,0.98,1,0.73,1.65s-0.99,0.99-1.64,0.73c-0.19-0.07-3.93-1.29-9.23,3.4
					C118.32,81.91,118.02,82.01,117.72,82.01z"/>
				<path style="fill:#F6B76B;" d="M198.83,258.39c0,0,13.61,7.86,37.42-12.9s32.3-37.08,19.75-58.88
					c-12.55-21.8-43.56-45.87-51.5-45.83C196.56,140.81,168.21,227.44,198.83,258.39z"/>
				<path style="fill:#F3A185;stroke:#D8856F;stroke-miterlimit:10;" d="M169.5,107.62c0,0-33.13-14.18-45.38-10.9
					s11.52,6.41,16.37,8.75s-17.75-1.53-20.57,0.26s20.54,8.41,20.54,8.41s-20.71-0.6-22.12,2.53c-1.41,3.14,19.07,6.69,19.07,6.69
					s-15.6,2.59-15.18,5.92c0.43,3.33,29.22,2.29,38.63,14.21c9.41,11.92,22.75,76.92,62.25,70.96
					c39.5-5.96,39.13-30.31,10.64-61.56S180.99,113.11,169.5,107.62z"/>
			</g>
		</g>
	</g>
</g>
</svg>
