<?xml version="1.0" encoding="utf-8"?>
<!-- Generator: Adobe Illustrator 22.0.1, SVG Export Plug-In . SVG Version: 6.00 Build 0)  -->
<svg version="1.1" id="Layer_1" xmlns="http://www.w3.org/2000/svg" xmlns:xlink="http://www.w3.org/1999/xlink" x="0px" y="0px"
	 viewBox="0 0 200 200" style="enable-background:new 0 0 200 200;" xml:space="preserve">
<g>
	<path style="fill-rule:evenodd;clip-rule:evenodd;fill:#64628E;" d="M200,100C200,44.77,155.23,0,100,0C44.77,0,0,44.77,0,100
		c0,55.23,44.77,100,100,100C155.23,200,200,155.23,200,100L200,100z"/>
	<g>
		<defs>
			<path id="SVGID_1_" d="M200,100C200,44.77,155.23,0,100,0C44.77,0,0,44.77,0,100c0,55.23,44.77,100,100,100
				C155.23,200,200,155.23,200,100L200,100z"/>
		</defs>
		<clipPath id="SVGID_2_">
			<use xlink:href="#SVGID_1_"  style="overflow:visible;"/>
		</clipPath>
		<g style="clip-path:url(#SVGID_2_);">
			<path style="fill-rule:evenodd;clip-rule:evenodd;fill:#403967;" d="M52.63,89.08l-8.14,3.02c0,0,1.13,31.51-7.24,53.31
				c-8.29,21.71-1.66,40.03,11.76,35.66c0,0,0.76,13.2,11.84,16.29c11.16,3.09,24.96,5.43,24.96,5.43l37.32,2.03
				c0,0,5.73,1.59,12.67,0.83c5.28-1.81,10.33-3.99,15.15-6.48c5.36-4.83,9.5-12.89,10.33-26.09c0,0,12.06-0.53,12.29-15.01
				c0.15-14.47-16.44-38.07-16.44-68.01C157.13,60.05,52.63,89.08,52.63,89.08L52.63,89.08z"/>
			<path style="fill-rule:evenodd;clip-rule:evenodd;fill:#403967;" d="M63.78,51.15c0,0,7.32-19.15,15.54-24.12
				c8.21-5.06,42.6-9.65,53.76-6.56c11.23,3.02,32.57,38.61,33.7,63.48c1.13,24.89-13.04,35.81-26.16,38.15
				C127.5,124.44,63.78,51.15,63.78,51.15L63.78,51.15z"/>
			<path style="fill-rule:evenodd;clip-rule:evenodd;fill:#403967;" d="M53.3,45.57c0,0-17.12,14.48-18.62,19.53
				c-1.51,4.98,1.28,27.67,9.95,37.7c8.74,10.02,30.23,7.31,30.69,3.09c0.38-4.22,0.22-40.71-2.04-43.65
				C70.95,59.3,53.3,45.57,53.3,45.57L53.3,45.57z"/>
			<path style="fill-rule:evenodd;clip-rule:evenodd;fill:#403967;" d="M59.41,63c0,0-11.54-13.27-12.89-20.13
				c-1.36-6.94,18.4-27.67,48.93-35.21c24.13-6.03,32.27,11.99,45.85,32.12c1.88,2.87,2.34,5.13,2.34,5.13L59.41,63z"/>
			<path style="fill-rule:evenodd;clip-rule:evenodd;fill:#FAB9A6;" d="M102.99,109.59L102.99,109.59
				c10.18,0,18.47,8.29,18.47,18.39v33.56l0,0c0,0.07,0.22,2.04,3.39,3.01c3.17,0.98,2.64,3.32,2.64,3.32l-7.77,7.54
				c0,0,4.07,2.79-5.21,2.79h-0.68c-3.02,2.19-6.78,3.54-10.86,3.54l0,0c-4.38,0-8.37-1.58-11.54-4.14
				c-1.51-0.15-2.64-0.3-3.16-0.53c-2.49-1.13-3.62-3.61-3.85-4.9c-0.22-1.21-2.94-6.03-2.94-6.03l3.09-2.56v-0.3v-35.29
				C84.59,117.88,92.89,109.59,102.99,109.59L102.99,109.59z"/>
			<path style="fill-rule:evenodd;clip-rule:evenodd;fill:#EF4338;" d="M124.63,164.71c0,0-7.77,11.16-21.34,11.16
				c-13.65,0-21.41-11.16-21.41-11.16c-1.43-1.66-4.3-0.6-10.26,1.51c-5.95,2.11-18.32,3.99-31.59,6.71
				c-8.37,1.66-13.95,5.51-16.89,8c19.91,19.08,46.9,30.69,76.61,30.69c31.21,0,59.41-12.89,79.62-33.63
				c-3.17-1.97-7.39-3.92-12.89-5.06c-13.27-2.71-25.56-4.6-31.51-6.71C129,164.1,126.14,163.05,124.63,164.71L124.63,164.71z"/>
			<path style="fill-rule:evenodd;clip-rule:evenodd;fill:#FFFFFF;" d="M29.48,176.62c0,0-2.71,1.36-6.86,3.77
				c5.51,5.35,11.53,10.11,18.1,14.25C37.55,184.38,33.55,176.54,29.48,176.62L29.48,176.62z"/>
			<path style="fill-rule:evenodd;clip-rule:evenodd;fill:#FFFFFF;" d="M71.62,166.22c0,0,1.58-0.15,2.04,5.8
				c2.41,31.97,25.56,31.52,29.63,12.14c4,19.38,27.15,19.83,29.56-12.14c0.45-5.95,2.12-5.8,2.12-5.8
				c-5.96-2.12-8.83-3.17-10.33-1.51c0,0-7.77,11.16-21.34,11.16c-13.65,0-21.41-11.16-21.41-11.16
				C80.45,163.05,77.58,164.1,71.62,166.22L71.62,166.22z"/>
			<path style="fill-rule:evenodd;clip-rule:evenodd;fill:#FFFFFF;" d="M177.03,176.62c0,0,0.91,0.45,2.41,1.28
				c-3.54,3.62-7.31,7.09-11.38,10.18C170.77,181.22,173.94,176.54,177.03,176.62L177.03,176.62z"/>
			<path style="fill-rule:evenodd;clip-rule:evenodd;fill:#E68B7C;" d="M84.67,165l27.75-10.93l9.05-3.54v-3.99
				c-5.36,3.46-11.46,5.5-18.17,5.58c-0.08,0-0.23,0-0.3,0c-0.08,0-0.15,0-0.23,0c-6.56-0.08-12.74-2.57-18.17-6.49v10.63
				c-0.07,1.2-0.6,6.1-2.94,8.22c0.07,0.07,0.15,0.15,0.22,0.22c0,0,0.3,0.38,0.83,1.05L84.67,165z"/>
			<path style="fill-rule:evenodd;clip-rule:evenodd;fill:#EE8F87;" d="M143.18,93.38c0.31,0,0.61,0.08,0.91,0.15l0,0l0,0
				c5.2,1.13,9.12,5.73,9.2,11.31c0.08,6.48-5.13,11.76-11.53,11.83c-6.49,0.08-11.84-5.05-11.91-11.53c0-3.77,1.73-7.16,4.45-9.35
				c-0.38,3.47,0.15,7.77,4.6,8.22l-0.07-6.78C138.73,94.51,141.3,93.23,143.18,93.38L143.18,93.38z"/>
			<path style="fill-rule:evenodd;clip-rule:evenodd;fill:#EE8F87;" d="M62.96,92.78c-0.3,0.07-0.53,0.07-0.83,0.15l0,0l0,0
				c-5.28,1.05-9.27,5.65-9.42,11.23c-0.15,6.41,4.97,11.84,11.46,11.99c6.48,0.15,11.83-4.9,11.99-11.39
				c0.15-3.77-1.58-7.16-4.3-9.42c0.3,3.47-0.3,7.77-4.67,8.14l0.15-6.71C67.4,93.98,64.84,92.7,62.96,92.78L62.96,92.78z"/>
			<path style="fill-rule:evenodd;clip-rule:evenodd;fill:#FABDAC;" d="M102.99,152.12c-21.87,0-40.11-27.07-40.11-48.41V75.43
				c0-22.09,18.02-40.18,40.11-40.18l0,0c22.09,0,40.18,18.1,40.18,40.18v27.75C143.18,126.56,127.27,152.12,102.99,152.12
				L102.99,152.12z"/>
			<path style="fill-rule:evenodd;clip-rule:evenodd;fill:#EE8F87;" d="M62.88,82.37v-6.94c0-9.8,3.47-18.7,9.27-25.71l60.47,1.51
				l1.21,6.48l-3.92,2.79c0,0-23.15,49.62-62.51,24.81C65.74,84.33,64.24,83.35,62.88,82.37L62.88,82.37z"/>
			<path style="fill-rule:evenodd;clip-rule:evenodd;fill:#EE8F87;" d="M125.91,107.4c-3.92,0.08-7.08,3.32-7.01,7.24
				c0.08,3.92,3.32,7.01,7.24,6.94c3.92-0.08,7.01-3.32,6.94-7.24C133,110.49,129.83,107.33,125.91,107.4L125.91,107.4z"/>
			<path style="fill-rule:evenodd;clip-rule:evenodd;fill:#EE8F87;" d="M79.77,108.31c-3.92,0.08-7.01,3.32-6.94,7.24
				c0.08,3.92,3.32,7.01,7.24,6.93c3.92-0.08,7.01-3.32,6.93-7.24C86.93,111.32,83.69,108.23,79.77,108.31L79.77,108.31z"/>
			<path style="fill:#403967;" d="M91.08,83.5c0.82,0.38,1.2,1.36,0.82,2.19c-0.37,0.91-1.35,1.28-2.26,0.84
				c0,0-5.05-2.34-9.87,0.68c-0.83,0.53-1.89,0.22-2.34-0.53c-0.53-0.83-0.3-1.8,0.53-2.34C84.37,80.34,91.08,83.5,91.08,83.5
				L91.08,83.5z"/>
			<path style="fill:#403967;" d="M130.81,85.46c0.68,0.6,0.83,1.66,0.23,2.34c-0.6,0.75-1.65,0.83-2.41,0.23
				c0,0-4.22-3.62-9.73-1.96c-0.9,0.3-1.81-0.23-2.11-1.13c-0.23-0.9,0.22-1.81,1.13-2.11C125.16,80.64,130.81,85.46,130.81,85.46
				L130.81,85.46z"/>
			<path style="fill-rule:evenodd;clip-rule:evenodd;fill:#FBD6C9;" d="M104.13,108.08c0.75,2.19,2.03,6.03,1.88,6.63
				c-0.15,0.83-4.6,1.06-5.73-0.23c-0.83-0.91,0.15-4.07,0.98-6.18C102.46,105.45,103.07,105.22,104.13,108.08L104.13,108.08z"/>
			<path style="fill-rule:evenodd;clip-rule:evenodd;fill:#403967;" d="M153.06,87.05l-3.77,9.27c0,0-6.11-0.6-6.11,6.94
				c0,0-5.43-3.92-3.31-13.2c0,0-14.48-17.49-11.46-30.16c0,0,0.98-3.02-1.06-3.39c-2.12-0.38-19.61,53.46-55.57,25.26
				c0,0,1.06,15.76-8.9,18.4c0,0-2.04-6.57-6.26-4.3c0,0-5.73-33.03,3.32-46.83c8.97-13.8,19.75-27.6,38.98-25.79
				C118.08,25.07,154.64,41.88,153.06,87.05L153.06,87.05z"/>
			<path style="fill-rule:evenodd;clip-rule:evenodd;fill:#4D4576;" d="M138.28,23.48c-2.41,0.61-4.9,1.59-7.54,3.09
				c-17.57,9.88-43.73,37.62-72.31-0.6l-0.07,0.07c-3.24,3.39-6.56,7.01-9.87,10.7c-1.59,2.49-2.27,4.6-1.97,6.11
				c0.38,1.81,1.43,3.99,2.72,6.33c-0.75,0.67-1.58,1.43-2.49,2.19c7.84,9.73,18.32,20.43,28.95,23.98
				c21.11,7.01,34.98-13.42,43.88-25.11c5.58-7.31,14.25-17.94,24.88-20.28C142.27,27.33,140.24,25.14,138.28,23.48L138.28,23.48z"
				/>
			<path style="fill:#403967;" d="M78.94,103.41c-1.06,0-1.96-0.83-1.96-1.96c0-0.38,0.15-0.68,0.3-0.98l-0.6-0.3
				c-0.38-0.23-0.53-0.75-0.3-1.21c0.23-0.45,0.75-0.6,1.21-0.3l1.28,0.67c-0.15-0.3-0.15-0.6,0-0.9c0.3-0.38,0.83-0.45,1.21-0.23
				l1.96,1.28h4.9c1.13,0,1.96,0.91,1.96,1.96c0,1.13-0.83,1.96-1.96,1.96H78.94z"/>
			<path style="fill:#403967;" d="M127.05,103.41c1.13,0,1.96-0.83,1.96-1.96c0-0.38-0.08-0.68-0.3-0.98l0.6-0.3
				c0.45-0.23,0.6-0.75,0.38-1.21c-0.3-0.45-0.83-0.6-1.21-0.3l-1.28,0.67c0.15-0.3,0.15-0.6-0.08-0.9
				c-0.22-0.38-0.83-0.45-1.2-0.23l-1.89,1.28h-4.98c-1.05,0-1.96,0.91-1.96,1.96c0,1.13,0.91,1.96,1.96,1.96H127.05z"/>
			<path style="fill-rule:evenodd;clip-rule:evenodd;fill:#403967;" d="M98.85,123.31h8.29c2.87,0,5.13,2.34,5.13,5.21l0,0
				c0,2.79-2.26,5.13-5.13,5.13h-8.29c-2.79,0-5.13-2.34-5.13-5.13l0,0C93.72,125.65,96.06,123.31,98.85,123.31L98.85,123.31z"/>
			<path style="fill-rule:evenodd;clip-rule:evenodd;fill:#F17A98;" d="M111.21,131.68c-0.98,1.21-2.41,1.97-4.07,1.97h-8.29
				c-1.58,0-3.09-0.75-4-1.97c0.91-1.2,2.41-1.96,4-1.96h8.29C108.8,129.72,110.23,130.48,111.21,131.68L111.21,131.68z"/>
			<path style="fill-rule:evenodd;clip-rule:evenodd;fill:#FFFFFF;" d="M98.85,123.31h8.29c0.91,0,1.74,0.23,2.41,0.68v1.2
				c0,1.06-0.83,1.89-1.88,1.89h-9.35c-1.05,0-1.88-0.83-1.88-1.89v-1.2C97.19,123.54,98.02,123.31,98.85,123.31L98.85,123.31z"/>
			<path style="fill-rule:evenodd;clip-rule:evenodd;fill:#FFFFFF;" d="M104.2,133.64h0.98v2.19c0,0.52,0.45,0.9,0.98,0.9l0,0
				c0.53,0,0.98-0.38,0.98-0.9V135c0-0.38,0.38-0.75,0.75-0.75l0,0c0.45,0,0.75,0.37,0.75,0.75v2.87c0,0.68,0.6,1.21,1.21,1.21l0,0
				c0.68,0,1.28-0.53,1.28-1.21v-5.43l0,0c0-0.68-0.6-1.21-1.28-1.21l0,0h-1.97h-3.69c-0.68,0-1.2,0.53-1.2,1.21l0,0
				C102.99,133.12,103.52,133.64,104.2,133.64L104.2,133.64z M108.64,141.26v0.37c0,0.68,0.6,1.21,1.21,1.21l0,0
				c0.68,0,1.28-0.53,1.28-1.21v-0.37c0-0.68-0.6-1.28-1.28-1.28l0,0C109.25,139.98,108.64,140.58,108.64,141.26L108.64,141.26z"/>
			<path style="fill:#FFFFFF;" d="M136.32,117.36c0,0.37-0.3,0.75-0.75,0.68c-0.38,0-0.76-0.31-0.76-0.76c0,0,0.23-14.32,8.75-16.89
				c-0.15,0.45-0.23,1.06-0.3,1.66C136.47,104.99,136.32,117.28,136.32,117.36L136.32,117.36z M147.33,115.17
				c-2.64,9.8-8.6,21.11-14.93,21.79c-0.38,0-0.75-0.3-0.83-0.67c0-0.45,0.3-0.83,0.68-0.83c5.35-0.6,10.71-10.4,13.35-19.45
				C146.19,115.77,146.8,115.47,147.33,115.17L147.33,115.17z"/>
			<path style="fill:#FFFFFF;" d="M70.19,117.36c0,0.37,0.38,0.75,0.76,0.68c0.45,0,0.75-0.31,0.75-0.76c0,0-0.23-14.32-8.75-16.89
				c0.15,0.45,0.3,1.06,0.38,1.66C70.04,104.99,70.19,117.28,70.19,117.36L70.19,117.36z M59.18,115.17
				c2.64,9.8,8.67,21.11,14.93,21.79c0.45,0,0.83-0.3,0.83-0.67c0.07-0.45-0.23-0.83-0.68-0.83c-5.35-0.6-10.63-10.4-13.27-19.45
				C60.31,115.77,59.71,115.47,59.18,115.17L59.18,115.17z"/>
			<path style="fill-rule:evenodd;clip-rule:evenodd;fill:#FFFFFF;" d="M103.29,110.57l33.55,3.25c0,0,1.88,0.37,2.04,2.56
				c0.23,2.26-4.22,21.86-6.56,25.49c-2.41,3.61-17.57,10.55-29.03,10.55c-11.54,0-26.69-6.94-29.03-10.55
				c-2.41-3.62-6.79-23.23-6.64-25.49c0.15-2.19,2.04-2.56,2.04-2.56L103.29,110.57z"/>
		</g>
	</g>
</g>
</svg>
