<?xml version="1.0" encoding="utf-8"?>
<!-- Generator: Adobe Illustrator 22.0.1, SVG Export Plug-In . SVG Version: 6.00 Build 0)  -->
<svg version="1.1" id="Layer_1" xmlns="http://www.w3.org/2000/svg" xmlns:xlink="http://www.w3.org/1999/xlink" x="0px" y="0px"
	 viewBox="0 0 100 100" style="enable-background:new 0 0 100 100;" xml:space="preserve">
<g>
	<circle style="fill:#353535;" cx="50" cy="50" r="49.14"/>
</g>
<g>
	<polygon style="fill:#FFFFFF;" points="45.15,58.24 45.15,58.24 45.16,58.24 45.16,58.24 	"/>
	<path style="fill:#FFFFFF;" d="M59.66,73.09c-0.02-2.38-0.02-4.75,0.02-7.12c0.04-2.73-0.02-5.43-2.1-7.68
		c1.24-0.22,2.34-0.38,3.41-0.62c7.13-1.64,10.83-6.13,11.3-13.59c0.24-3.8-0.44-7.28-2.96-10.27c-0.18-0.21-0.19-0.69-0.11-0.99
		c0.67-2.47,0.48-4.89-0.31-7.31c-0.19-0.6-0.51-0.79-1.11-0.75c-2.09,0.12-4.01,0.85-5.7,1.98c-1.63,1.09-3.15,1.33-5.08,0.89
		c-4.26-0.96-8.55-0.68-12.81,0.3c-0.48,0.11-1.13-0.04-1.57-0.3c-2-1.17-3.99-2.31-6.3-2.76c-1.78-0.35-1.94-0.26-2.41,1.46
		c-0.59,2.17-0.65,4.34-0.05,6.53c0.09,0.32,0,0.83-0.22,1.06c-4.72,5.27-3.01,15.22,0.17,19.03c2.47,2.96,5.76,4.29,9.41,4.98
		c0.63,0.12,1.27,0.21,1.9,0.32c0.01-0.03,0.02-0.04,0.03-0.07c0.12,0.13,0.1,0.09,0.07,0.09c-0.03-0.01-0.06-0.01-0.09-0.02
		c-0.55,1.42-1.04,2.76-1.59,4.08c-0.11,0.25-0.45,0.47-0.74,0.58c-3.58,1.39-6.65,0.37-8.7-2.88c-1.09-1.73-2.5-3.02-4.59-3.4
		c-0.07-0.01-0.13-0.05-0.2-0.04c-0.56,0.15-1.12,0.3-1.68,0.45c0.32,0.44,0.54,1.03,0.96,1.29c1.77,1.12,2.93,2.72,3.69,4.61
		c1.2,2.96,3.52,4.28,6.54,4.54c1.47,0.12,2.96,0.02,4.58,0.02c0,1.84,0.07,3.94-0.03,6.03c-0.01,0.26-0.09,0.49-0.21,0.67
		c2.65,0.72,5.43,1.11,8.31,1.11c2.92,0,5.74-0.4,8.42-1.15C59.76,73.88,59.66,73.53,59.66,73.09z M35.33,63.55
		c-0.32-0.4-0.55-0.65-0.7-0.94c-0.03-0.06,0.34-0.42,0.36-0.41c0.27,0.2,0.54,0.41,0.74,0.68C35.78,62.94,35.55,63.21,35.33,63.55z
		 M37.66,64.54c-0.31-0.1-0.59-0.32-0.88-0.5c0.14-0.14,0.31-0.43,0.43-0.41c0.32,0.04,0.63,0.22,1.15,0.42
		C37.99,64.32,37.78,64.58,37.66,64.54z M40.08,64.92c-0.23,0-0.61-0.24-0.66-0.43c-0.06-0.25,0.16-0.56,0.3-0.94
		c0.61,0.55,0.81,0.73,1.01,0.91C40.52,64.63,40.3,64.92,40.08,64.92z M42.45,64.85c-0.23-0.29-0.38-0.46-0.53-0.65
		c0.25-0.17,0.48-0.43,0.75-0.49c0.14-0.03,0.35,0.28,0.54,0.44C42.99,64.35,42.77,64.55,42.45,64.85z"/>
</g>
</svg>
