<?xml version="1.0" encoding="utf-8"?>
<!-- Generator: Adobe Illustrator 22.0.1, SVG Export Plug-In . SVG Version: 6.00 Build 0)  -->
<svg version="1.1" id="Layer_1" xmlns="http://www.w3.org/2000/svg" xmlns:xlink="http://www.w3.org/1999/xlink" x="0px" y="0px"
	 viewBox="0 0 200 200" style="enable-background:new 0 0 200 200;" xml:space="preserve">
<g>
	<path style="fill-rule:evenodd;clip-rule:evenodd;fill:#64628E;" d="M200,100C200,44.77,155.23,0,100,0C44.77,0,0,44.77,0,100
		c0,55.23,44.77,100,100,100C155.23,200,200,155.23,200,100L200,100z"/>
	<g>
		<path style="fill-rule:evenodd;clip-rule:evenodd;fill:#EE8F87;" d="M149.45,108.08V71.54h46.4C198.51,80.57,200,90.08,200,100
			c0,2.72-0.14,5.43-0.34,8.08H149.45z"/>
		<path style="fill:#EE8F87;" d="M83.22,129.21c-3.4,1.09-7-0.81-8.09-4.21c-1.02-3.4,0.82-7,4.21-8.08l25.47-8.08l0,0
			c0,0,2.44-0.88,1.9-2.65c-0.34-1.22-1.56-1.36-2.31-1.29l-39.2,5.03c-3.53,0.41-6.8-2.04-7.2-5.57c-0.47-3.53,2.04-6.73,5.57-7.2
			l37.16-4.75l0,0c0,0,2.45-0.2,2.45-2.24c0-1.36-1.29-1.7-2.11-1.77h-0.68l0,0H58.08c-3.54,0-6.45-2.85-6.45-6.45
			c0-3.53,2.92-6.45,6.45-6.45h42.93l0,0c0.07,0,2.11-0.13,2.31-1.29c0.13-1.09-1.5-1.43-1.7-1.43L64.2,66.98
			c-3.46-0.54-5.91-3.87-5.37-7.34c0.55-3.53,3.87-5.91,7.34-5.37l45.52,7c4.21,0.68,11.75,0.41,8.49-5.98l-15.36-15.49
			c-2.99-2.99-2.99-7.88,0.07-10.94c2.99-2.99,7.88-2.99,10.87,0.07l15.42,15.49c3.74,3.8,12.37,7.07,18.35,9.37
			c6.04,2.31,14.33,7.07,14.33,15.01c0,7.95,0,18.75,0,31.59c0,12.84-18.14,12.84-28.94,14.88c-7.88,1.49-17.05,2.92-24.66,5.3
			L83.22,129.21z"/>
		<path style="fill-rule:evenodd;clip-rule:evenodd;fill:#FFFFFF;" d="M58.01,123.37c0-16.51,13.38-29.82,29.82-29.82
			c16.51,0,29.89,13.31,29.89,29.82c0,16.44-13.38,29.82-29.89,29.82C71.4,153.19,58.01,139.81,58.01,123.37L58.01,123.37z"/>
		<path style="fill-rule:evenodd;clip-rule:evenodd;fill:#FFFFFF;" d="M41.17,117.46c0-8.97,7.2-16.24,16.17-16.24
			c8.9,0,16.17,7.27,16.17,16.24c0,8.9-7.27,16.17-16.17,16.17C48.37,133.63,41.17,126.36,41.17,117.46L41.17,117.46z"/>
		<path style="fill-rule:evenodd;clip-rule:evenodd;fill:#FFFFFF;" d="M49.59,87.43c0-12.3,9.99-22.28,22.28-22.28
			c12.3,0,22.28,9.99,22.28,22.28c0,12.3-9.99,22.28-22.28,22.28C59.58,109.72,49.59,99.73,49.59,87.43L49.59,87.43z"/>
		<path style="fill-rule:evenodd;clip-rule:evenodd;fill:#FFFFFF;" d="M76.56,91.51c0-23.1,18.68-41.85,41.78-41.85
			c23.17,0,41.85,18.75,41.85,41.85c0,23.1-18.68,41.85-41.85,41.85C95.24,133.36,76.56,114.61,76.56,91.51L76.56,91.51z"/>
		<path style="fill-rule:evenodd;clip-rule:evenodd;fill:#FFFFFF;" d="M75.47,66.71c0-4.21,3.46-7.68,7.75-7.68
			c4.21,0,7.68,3.47,7.68,7.68c0,4.28-3.47,7.74-7.68,7.74C78.94,74.46,75.47,70.99,75.47,66.71L75.47,66.71z"/>
		<path style="fill-rule:evenodd;clip-rule:evenodd;fill:#C9DBF1;" d="M46.74,65.83c0.89,1.9,1.43,4.01,1.43,6.25
			c0,8.02-6.52,14.54-14.61,14.54c-8.02,0-14.54-6.52-14.54-14.54c0-2.24,0.47-4.35,1.43-6.25l0,0l10.33-24.32
			c0.34-1.22,1.43-2.17,2.79-2.17c1.36,0,2.51,0.95,2.78,2.17L46.74,65.83L46.74,65.83z"/>
		<path style="fill-rule:evenodd;clip-rule:evenodd;fill:#FFFFFF;" d="M15.62,113.66c0-4.55,3.67-8.29,8.22-8.29
			c4.62,0,8.29,3.73,8.29,8.29s-3.67,8.29-8.29,8.29C19.29,121.94,15.62,118.21,15.62,113.66L15.62,113.66z"/>
		<path style="fill-rule:evenodd;clip-rule:evenodd;fill:#FFFFFF;" d="M101.29,151.02c0-12.3,9.92-22.28,22.29-22.28
			c12.3,0,22.28,9.99,22.28,22.28c0,12.36-9.99,22.28-22.28,22.28C111.21,173.3,101.29,163.38,101.29,151.02L101.29,151.02z"/>
		<path style="fill-rule:evenodd;clip-rule:evenodd;fill:#FFFFFF;" d="M45.85,142.94c0-2.17,1.77-3.94,3.94-3.94
			c2.18,0,3.94,1.77,3.94,3.94c0,2.24-1.77,4.01-3.94,4.01C47.62,146.94,45.85,145.18,45.85,142.94L45.85,142.94z"/>
		<path style="fill:#FABDAC;" d="M83.22,165.15c-3.4,1.09-7-0.82-8.09-4.21c-1.02-3.33,0.82-7,4.21-8.02l25.47-8.15l0,0
			c0,0,2.44-0.81,1.9-2.65c-0.34-1.16-1.56-1.29-2.31-1.29l-39.2,5.03c-3.53,0.47-6.8-2.04-7.2-5.57c-0.47-3.53,2.04-6.73,5.57-7.2
			l37.16-4.75l0,0c0,0,2.45-0.2,2.45-2.24c0-1.36-1.29-1.7-2.11-1.77h-0.68l0,0H58.08c-3.54,0-6.45-2.85-6.45-6.45
			c0-3.53,2.92-6.46,6.45-6.46h42.93l0,0c0.07,0,2.11-0.14,2.31-1.29c0.13-1.09-1.5-1.36-1.7-1.43l-37.43-5.77
			c-3.46-0.54-5.91-3.81-5.37-7.34c0.55-3.53,3.87-5.91,7.34-5.37l45.52,7c4.21,0.68,11.75,0.41,8.49-5.98l-15.36-15.49
			c-2.99-2.99-2.99-7.88,0.07-10.87c2.99-3.06,7.88-2.99,10.87,0l15.42,15.49c3.74,3.8,12.37,7.07,18.35,9.37
			c6.04,2.31,14.33,7.13,14.33,15.01c0,7.95,0,18.75,0,31.59c0,12.84-18.14,12.84-28.94,14.88c-7.88,1.49-17.05,2.92-24.66,5.3
			L83.22,165.15z"/>
		<path style="fill-rule:evenodd;clip-rule:evenodd;fill:#FFFFFF;" d="M149.8,157.54c0-2.17,1.76-3.94,3.94-3.94
			c2.17,0,3.94,1.77,3.94,3.94c0,2.17-1.76,3.94-3.94,3.94C151.56,161.48,149.8,159.72,149.8,157.54L149.8,157.54z"/>
		<path style="fill-rule:evenodd;clip-rule:evenodd;fill:#FFFFFF;" d="M43,70.79c0.34,0.75,0.54,1.56,0.54,2.45
			c0,3.19-2.58,5.71-5.71,5.71c-3.13,0-5.71-2.51-5.71-5.71c0-0.88,0.2-1.7,0.54-2.45l0,0l4.08-9.44c0.13-0.54,0.54-0.88,1.09-0.88
			c0.54,0,0.95,0.34,1.09,0.88L43,70.79L43,70.79z"/>
		<path style="fill-rule:evenodd;clip-rule:evenodd;fill:#FABDAC;" d="M149.45,139.74v-39.67H200c0,14.13-2.99,27.51-8.22,39.67
			H149.45z"/>
		<path style="fill-rule:evenodd;clip-rule:evenodd;fill:#FFFFFF;" d="M77.44,43.89c0-4.55,3.67-8.22,8.29-8.22
			c4.55,0,8.22,3.67,8.22,8.22c0,4.62-3.67,8.29-8.22,8.29C81.12,52.17,77.44,48.51,77.44,43.89L77.44,43.89z"/>
	</g>
</g>
</svg>
