<?xml version="1.0" encoding="utf-8"?>
<!-- Generator: Adobe Illustrator 22.0.1, SVG Export Plug-In . SVG Version: 6.00 Build 0)  -->
<svg version="1.1" id="Layer_1" xmlns="http://www.w3.org/2000/svg" xmlns:xlink="http://www.w3.org/1999/xlink" x="0px" y="0px"
	 viewBox="0 0 200 200" style="enable-background:new 0 0 200 200;" xml:space="preserve">
<path style="fill:#64628E;" d="M200,100C200,44.77,155.23,0,100,0S0,44.77,0,100s44.77,100,100,100S200,155.23,200,100L200,100z"/>
<g>
	<g>
		<defs>
			<path id="SVGID_1_" d="M200,100C200,44.77,155.23,0,100,0S0,44.77,0,100s44.77,100,100,100S200,155.23,200,100L200,100z"/>
		</defs>
		<clipPath id="SVGID_2_">
			<use xlink:href="#SVGID_1_"  style="overflow:visible;"/>
		</clipPath>
		<g style="clip-path:url(#SVGID_2_);">
			<path style="fill:#E6BAA8;" d="M68.1,176.47c0,0-7.25,8.67-14.96,16.28c-1.74-1.01-3.47-2.06-5.14-3.18h-0.02
				c-14.17-9.35-26.07-21.86-34.67-36.55l26.45-14.74c0,0-4.5-16.58,5.82-29.5c6.74-8.45,10.43-15.43,12.17-19.25
				c0.73-1.61,2.89-1.96,4.06-0.63c1.74,1.99,3.43,5.04,2.25,8.55c-2.11,6.32-6.86,14.76-0.78,18.44
				c6.07,3.69,53.84-34.92,58.88-29.5c5.05,5.43-30.8,31.51-29.04,33.66c1.76,2.16,41.13-32.29,45.44-25.49
				c4.09,6.47-39.47,35.53-38.32,38c1.17,2.47,37.26-25.14,41.25-19.85c4.09,5.48-33.79,30.65-32.19,33.17
				c1.59,2.52,30.31-18.37,32.52-13.3C143.9,137.41,104.55,175.48,68.1,176.47z"/>
			<g>
				<path style="fill:none;stroke:#CCA192;stroke-linecap:round;stroke-miterlimit:10;" d="M63.05,126.11
					c0,0,13.51,25.04,33.35,25.04"/>
				<path style="fill:none;stroke:#CCA192;stroke-linecap:round;stroke-miterlimit:10;" d="M58.08,147.78c0,0,10.88,7.56,24.6,5.47"
					/>
			</g>
		</g>
	</g>
	<g>
		<defs>
			<path id="SVGID_3_" d="M200,100C200,44.77,155.23,0,100,0S0,44.77,0,100s44.77,100,100,100S200,155.23,200,100L200,100z"/>
		</defs>
		<clipPath id="SVGID_4_">
			<use xlink:href="#SVGID_3_"  style="overflow:visible;"/>
		</clipPath>
		<g style="clip-path:url(#SVGID_4_);">
			<path style="fill:#E6BAA8;" d="M192.13,55.42c-15.92-1.59-68.42-5.83-89.66-2.86c-25.35,3.56-61.02,31.3-65.38,26.94
				s6.74-17.04,6.74-17.04S41.78,54.33,45.01,49c3.23-5.34,7.44-7.25,7.44-7.25s2.1-13.91,17.53-19.44
				c14.89-5.34,49.75-14.03,80.84-11.62c0.15,0.07,0.29,0.15,0.44,0.24h0.02c17.34,9.65,28.98,23.97,38.96,41.1
				C190.88,53.15,191.52,54.28,192.13,55.42z"/>
			<g>
				<rect x="68.76" y="83.03" style="fill:#473B97;" width="17.52" height="13.41"/>
				<path style="fill:#FFFFFF;" d="M77.52,87.84c-12.3,0-17.81-10.43-17.4-18.68l2.02-39.92c0.16-3.2,2.8-5.7,6-5.7h18.75
					c3.2,0,5.84,2.51,6,5.7l2.04,40.31C95.32,77.64,89.82,87.84,77.52,87.84z"/>
				<g>
					<path style="fill:#6459A6;" d="M86.48,58.34h-6.14v6h-5.6v-6h-6.18v-5.31h6.18v-6h5.6v6h6.14V58.34z"/>
				</g>
				<path style="opacity:0.65;fill:#FFFFFF;enable-background:new    ;" d="M77.52,105.47c0,0-16.63,31.41,0,31.2
					C94.15,136.46,77.52,105.47,77.52,105.47z"/>
			</g>
			<path style="fill:#E6BAA8;" d="M108.66,51.95c0,0-21.21,10.1-23.99,18.65c-2.78,8.56-1.71,14.55,1.5,14.12
				s6.63-11.34,16.47-13.69c9.84-2.35,39.78-4.61,43.64-18.67C150.14,38.3,111.9,46.14,108.66,51.95z"/>
		</g>
	</g>
</g>
</svg>
