<?xml version="1.0" encoding="utf-8"?>
<!-- Generator: Adobe Illustrator 22.0.1, SVG Export Plug-In . SVG Version: 6.00 Build 0)  -->
<svg version="1.1" id="Layer_1" xmlns="http://www.w3.org/2000/svg" xmlns:xlink="http://www.w3.org/1999/xlink" x="0px" y="0px"
	 viewBox="0 0 200 200" style="enable-background:new 0 0 200 200;" xml:space="preserve">
<path style="fill:#F3DBB1;" d="M200,100C200,44.77,155.23,0,100,0S0,44.77,0,100s44.77,100,100,100S200,155.23,200,100L200,100z"/>
<g>
	<g>
		<g>
			<path style="fill:#FEBEB7;" d="M46.63,97.71c0,0-0.01,2.71,0.13,5.79c0.19,4.39,0.71,9.54,2.06,8.61
				c2.29-1.57,0.72-7.38,1.31-8.58c0.59-1.21,5.52-9.55,5.26-11.44c-0.07-0.55-0.33-2.07-0.64-3.95
				c-0.78-4.63-1.98-11.47-1.98-11.47l-7.11,4.35l2.67,8.69L46.63,97.71z"/>
		</g>
		<g>
			<path style="fill:#F1A09B;" d="M46.63,97.71c0,0-0.01,2.71,0.13,5.79l0.11,0.21c0,0,2.19-11.36,2.97-13.55
				c0.57-1.62,3.45-1.95,4.91-2.01c-0.78-4.63-1.98-11.47-1.98-11.47l-7.11,4.35l2.67,8.69L46.63,97.71z"/>
		</g>
		<g>
			<path style="fill:#491A1A;" d="M43.26,55.6c-1.68-6.45-0.55-9.18,1.6-16.88c2.14-7.7,6.05-20.99-2.55-24.86
				s-19.43-1.29-20.4,4.97c-4.19-0.26-5.74,6.82-3.93,14.99c1.81,8.17,0.84,12.88-3.1,16.3c-3.93,3.42-1.48,8.51-1.48,8.51
				l14.83,3.68L43.26,55.6z"/>
		</g>
		<g>
			<polygon style="fill:#FEBEB7;" points="20.89,187.96 19.52,184.98 20.86,180.96 21.2,179.95 13.58,177.11 13.34,179.17 
				12.28,188.29 12,190.74 21.84,190.05 			"/>
		</g>
		<g>
			<polygon style="fill:#C8625C;" points="13.34,179.17 20.86,180.96 21.2,179.95 13.58,177.11 			"/>
		</g>
		<g>
			<path style="fill:#F1A09B;" d="M12,190.74l9.84-0.69l-0.96-2.09c-1.35,0.08-3.01-0.32-4.81,0.08c-1.48,0.33-2.76,0.54-3.8,0.25
				L12,190.74z"/>
		</g>
		<g>
			<polygon style="fill:#FEBEB7;" points="39.9,178.53 40.05,180.37 40.91,190.57 41.02,191.82 46.36,193.12 49.51,193.89 
				53.9,193.24 53.24,192.33 50.19,188.11 49.27,187.59 47.64,186.66 48.18,181.05 48.29,179.9 48.57,177.07 46.33,177.44 			"/>
		</g>
		<g>
			<path style="fill:#F1A09B;" d="M40.91,190.57l0.11,1.25l5.34,1.3l6.8-0.5l0.09-0.29l-3.05-4.22l-0.91-0.52
				c-0.15,0.83-0.63,2.16-2.08,2.68C45.42,190.9,42.1,190.68,40.91,190.57z"/>
		</g>
		<g>
			<polygon style="fill:#C8625C;" points="39.9,178.53 40.05,180.37 48.18,181.05 48.29,179.9 46.68,177.48 46.33,177.44 			"/>
		</g>
		<g>
			<path style="fill:#3D314C;" d="M13.58,177.11l7.61,2.84c0,0,5.41-15.87,6.83-22.45c1.42-6.58,5.94-27.48,5.94-27.48l4.13,17.42
				c-0.65,10.45,1.8,31.09,1.8,31.09l8.38,1.42c0,0,2.58-25.54,2.45-35.16c-0.11-7.93-2.19-36.7-2.93-46.62
				c-0.16-2.14-0.25-3.39-0.25-3.39H19.43c-0.22,1.06-0.43,2.13-0.62,3.19l-0.04,0.2c-2.33,13.4-1.66,26.83-1.19,49.79
				C15.13,158.15,13.58,177.11,13.58,177.11z"/>
		</g>
		<g style="opacity:0.25;">
			<path style="fill:#FFFFFF;" d="M15.85,177.38c-0.01,0-0.03,0-0.04,0c-0.15-0.02-0.25-0.16-0.23-0.31
				c0.04-0.25,3.94-24.78,4.68-29.67c0.74-4.88,3.22-50.56,3.24-51.02c0.01-0.15,0.14-0.25,0.29-0.26c0.15,0.01,0.26,0.14,0.26,0.29
				c-0.02,0.46-2.5,46.17-3.25,51.07c-0.74,4.89-4.64,29.42-4.68,29.67C16.1,177.29,15.98,177.38,15.85,177.38z"/>
		</g>
		<g>
			<path style="fill:#FEC445;" d="M9.03,77.46c0.03,0.08,0.37,0.2,0.9,0.32c2.11,0.5,7.29,1.24,8.43,1.4
				c0.14,0.02,0.22,0.04,0.22,0.04s0.5,2.49,0.83,5.9c0.2,2.11,0.33,4.57,0.23,7.01c-0.03,0.89-0.09,1.78-0.2,2.64h28.12l-1.2-15.55
				l6.84-1.76c0,0-2.45-13.22-4.65-19.28c-1.63-4.51-5.62-6.06-8.2-6.82c-0.89-0.27-1.61-0.43-2.02-0.61
				c-1.59-0.66-7.39,0.3-7.39,0.3l-4.9-1.42c-0.6,0.11-1.17,0.22-1.72,0.33c-9.04,1.8-10.04,3.18-11.34,7.32
				C11.61,61.66,8.86,77.02,9.03,77.46z"/>
		</g>
		<g>
			<path style="fill:#FFA548;" d="M19.4,85.12c0.2,2.11,0.33,4.57,0.23,7.01c-0.03,0.89-0.09,1.78-0.2,2.64h9.53
				c-5.45-3.48-5.12-11.35-6.65-15.22c-1.76-4.47-1.79-12.99-1.79-12.99l-1.95,12.66C18.58,79.22,19.08,81.71,19.4,85.12z"/>
		</g>
		<g style="opacity:0.45;">
			<path style="fill:#FFFFFF;" d="M14.26,56.75v7.38h-2.85c-0.05,0.26-0.11,0.53-0.16,0.79h3.01v7.38h-4.4
				c-0.05,0.27-0.09,0.54-0.14,0.79h4.54v5.18c0.27,0.04,0.53,0.08,0.79,0.13v-5.3h7.38v7.38h-3.47c0.04,0.24,0.08,0.51,0.12,0.79
				h3.35v7.38h-2.68c0.01,0.26,0.01,0.53,0.02,0.79h2.66v5.05h0.79v-5.05h7.38v5.05h0.79v-5.05h7.38v5.05h0.79v-5.05h7.38v5.05h0.72
				l-0.72-9.36v3.52h-7.38v-7.38h7.08l-0.06-0.79h-7.02v-7.38h7.38v5.72l0.79-0.2v-5.52h4.76c-0.05-0.26-0.11-0.52-0.16-0.79h-4.6
				v-7.38h2.94c-0.07-0.27-0.13-0.53-0.2-0.79h-2.74v-7.38h0.42c-0.35-0.69-0.76-1.31-1.21-1.84v1.05h-7.38v-5.14
				c-0.3-0.08-0.57-0.16-0.79-0.23v5.37h-7.38v-5.25c-0.21,0.03-0.35,0.05-0.35,0.05l-0.44-0.13v5.32h-7.38v-6.04
				c-0.27,0.06-0.54,0.12-0.79,0.17v5.87h-7.38v-2.83c-0.31,0.31-0.57,0.65-0.79,1.02v1.81h-0.83c-0.09,0.25-0.18,0.52-0.27,0.79
				H14.26z M39.56,64.92h7.38v7.38h-7.38V64.92z M39.56,56.75h7.38v7.38h-7.38V56.75z M31.39,81.26h7.38v7.38h-7.38V81.26z
				 M31.39,73.09h7.38v7.38h-7.38V73.09z M31.39,64.92h7.38v7.38h-7.38V64.92z M31.39,56.75h7.38v7.38h-7.38V56.75z M23.22,81.26
				h7.38v7.38h-7.38V81.26z M23.22,73.09h7.38v7.38h-7.38V73.09z M23.22,64.92h7.38v7.38h-7.38V64.92z M23.22,56.75h7.38v7.38h-7.38
				V56.75z M15.05,64.92h7.38v7.38h-7.38V64.92z M15.05,56.75h7.38v7.38h-7.38V56.75z"/>
		</g>
		<g>
			<path style="fill:#3D314C;" d="M24.32,49.96c0.51,2.87,2.5,7.72,8.37,7.77c5.91,0.05,7.33-4.2,7.65-6.37
				c-0.89-0.27-1.61-0.43-2.02-0.61c-1.59-0.66-7.39,0.3-7.39,0.3l-4.9-1.42C25.43,49.74,24.86,49.85,24.32,49.96z"/>
		</g>
		<g>
			<path style="fill:#FEBEB7;" d="M26.03,49.63c0,0,0.75,6.22,6.66,6.25c5.65,0.04,5.67-4.67,5.66-5.1c0-0.02,0-0.03,0-0.03
				l-0.03-0.01l-0.51-0.12l-1.1-0.26l0.2-1.67l0.45-3.81l-8.16-4.21l-1.28-0.66c0.12,0.22,0.22,0.46,0.32,0.7
				c0.28,0.75,0.4,1.62,0.43,2.5c0.12,2.91-0.79,6.01-0.79,6.01L27,49.43L26.03,49.63z"/>
		</g>
		<g>
			<path style="fill:#C8625C;" d="M28.23,40.72c0.28,0.75,0.4,1.62,0.43,2.5c1.22,1.49,4.34,4.81,8.24,5.47l0.45-3.81l-8.16-4.21
				L28.23,40.72z"/>
		</g>
		<g>
			<path style="fill:#FEBEB7;" d="M23.04,37.76c2.77,1.17,2.55-1.19,2.55-1.19s2.45,10.13,11.41,8.9c1.18-0.16,2.18-0.5,3.01-0.97
				c5.52-3.08,4.2-11.77,4.2-11.77s0.21-1.18,0.39-2.77c0.2-1.72,0.35-3.9,0.17-5.59c-0.03-0.23-0.06-0.46-0.1-0.67
				C38,33.02,26.23,30.8,26.23,30.8s0.04,0.39,0.05,0.9c0.04,1.03-0.01,2.56-0.56,2.48c-0.84-0.13-1.71-4.32-3.87-3.36
				C19.68,31.8,20.26,36.6,23.04,37.76z"/>
		</g>
		<g>
			<path style="fill:#F1A09B;" d="M26.23,30.8c0,0,0.04,0.39,0.05,0.9c9.33,3.58,16.44-2.3,18.49-7.33
				c-0.03-0.23-0.06-0.46-0.1-0.67C38,33.02,26.23,30.8,26.23,30.8z"/>
		</g>
		<g>
			<g>
				<path style="fill:#C8625C;" d="M37.76,38.9c-0.67,0-1.08-0.48-1.22-0.8c-0.04-0.09,0-0.2,0.09-0.24c0.09-0.04,0.2,0,0.24,0.09
					c0.04,0.09,0.42,0.85,1.35,0.5c0.48-0.18,0.59-0.76,0.53-1.25c-0.07-0.55-0.39-1.17-0.86-1.23c-0.1-0.01-0.17-0.1-0.16-0.2
					c0.01-0.1,0.1-0.17,0.2-0.16c0.69,0.08,1.09,0.86,1.17,1.55c0.1,0.79-0.19,1.41-0.76,1.63C38.14,38.87,37.94,38.9,37.76,38.9z"
					/>
			</g>
			<g>
				<path style="fill:#23143A;" d="M32.65,34.27c0,0.67,0.36,1.21,0.81,1.21c0.45,0,0.81-0.54,0.81-1.21s-0.36-1.21-0.81-1.21
					C33.01,33.06,32.65,33.61,32.65,34.27z"/>
			</g>
			<g>
				<path style="fill:#23143A;" d="M40.45,34.27c0,0.67,0.36,1.21,0.81,1.21c0.45,0,0.81-0.54,0.81-1.21s-0.36-1.21-0.81-1.21
					C40.81,33.06,40.45,33.61,40.45,34.27z"/>
			</g>
			<g>
				<path style="fill:#491A1A;" d="M42.67,32.67c-0.04,0-0.08-0.01-0.12-0.03c-0.01-0.01-1.41-0.65-2.82-0.15
					c-0.14,0.05-0.3-0.02-0.35-0.17c-0.05-0.14,0.02-0.3,0.17-0.35c1.64-0.58,3.17,0.14,3.24,0.17c0.14,0.06,0.19,0.23,0.13,0.36
					C42.87,32.61,42.78,32.67,42.67,32.67z"/>
			</g>
			<g>
				<path style="fill:#491A1A;" d="M31.94,32.67c-0.1,0-0.2-0.06-0.25-0.15c-0.06-0.14-0.01-0.3,0.13-0.36
					c0.06-0.03,1.6-0.75,3.24-0.17c0.14,0.05,0.22,0.21,0.17,0.35c-0.05,0.14-0.2,0.22-0.35,0.17c-1.42-0.5-2.81,0.14-2.82,0.15
					C32.02,32.66,31.98,32.67,31.94,32.67z"/>
			</g>
		</g>
		<g>
			<path style="fill:#FFFFFF;" d="M37.83,40.65l-4.45-0.42c0,0-0.13,1.9,1.97,2.23C37.44,42.78,37.83,40.65,37.83,40.65z"/>
		</g>
		<g>
			<path style="fill:#C8625C;" d="M23.36,36.47c-0.02,0-0.03,0-0.05,0c-0.1,0-0.18-0.09-0.17-0.19c0-0.1,0.09-0.18,0.19-0.17
				c0.16,0.01,0.26-0.05,0.34-0.17c0.24-0.38,0.11-1.29-0.29-2.02c-0.31-0.56-0.7-0.89-1.07-0.89c-0.1,0-0.18-0.08-0.18-0.18
				c0-0.1,0.09-0.17,0.18-0.18c0.52,0.01,1.01,0.39,1.39,1.08c0.4,0.73,0.63,1.82,0.27,2.38C23.84,36.35,23.63,36.47,23.36,36.47z"
				/>
		</g>
		<g>
			<path style="fill:#F1A09B;" d="M26.03,49.63c0,0,0.75,6.22,6.66,6.25c5.65,0.04,5.67-4.67,5.66-5.1l-0.03-0.04l-0.51-0.12
				c-0.11,1.22-0.81,4.5-5.16,4.54c-3.97,0.03-5.25-3.78-5.65-5.74L26.03,49.63z"/>
		</g>
		<g>
			<path style="fill:#FDCFCB;" d="M40.01,44.5c5.52-3.08,4.2-11.77,4.2-11.77s0.21-1.18,0.39-2.77c-0.54,1.58-1.32,1.94-1.13,3.71
				C43.67,35.56,42.25,41.47,40.01,44.5z"/>
		</g>
		<g>
			<g>
				<path style="fill:#491C1C;" d="M37.41,77.02l0.17,1.9l0.41,4.75l4.6-0.16l3.55-0.88l0.14-0.43l0.35-4.17
					C44.03,78.22,40.34,75.84,37.41,77.02z"/>
			</g>
			<g style="opacity:0.66;">
				<path style="fill:#FFFFFF;" d="M42.3,82.55c-0.16,0-0.3-0.13-0.31-0.29l-0.78-15.51l-3.54-2.05c-0.15-0.09-0.2-0.27-0.11-0.42
					c0.08-0.15,0.27-0.2,0.42-0.11l3.83,2.21l0.8,15.85c0.01,0.17-0.12,0.31-0.29,0.32C42.31,82.55,42.31,82.55,42.3,82.55z"/>
			</g>
			<g>
				<path style="fill:#602E2E;" d="M37.58,78.92l0.54,6.25c0.03,0.38,0.35,0.67,0.73,0.67h6.44c0.38,0,0.69-0.29,0.73-0.67l0.7-8.24
					c-2.12-0.15-3.39,1.38-5.43,2.27C40.05,79.74,38.69,79.42,37.58,78.92z"/>
			</g>
			<g>
				<path style="fill:#FFFFFF;" d="M45.29,86.15h-6.44c-0.55,0-1-0.41-1.04-0.96l-1.32-15.32h11.15L46.32,85.2
					C46.27,85.74,45.83,86.15,45.29,86.15z M37.16,70.49l1.26,14.66c0.02,0.22,0.2,0.39,0.42,0.39h6.44c0.22,0,0.4-0.17,0.42-0.39
					l1.25-14.65H37.16z"/>
			</g>
			<g>
				<path style="fill:#3D314C;" d="M36.75,70.89h10.63c0.17,0,0.31-0.14,0.31-0.31v-0.81c0-0.17-0.14-0.31-0.31-0.31H36.75
					c-0.17,0-0.31,0.14-0.31,0.31v0.81C36.44,70.75,36.58,70.89,36.75,70.89z"/>
			</g>
			<g style="opacity:0.25;">
				<path style="fill:#FFFFFF;" d="M45.13,79.51c-0.01,0-0.02,0-0.02,0c-0.17-0.01-0.3-0.16-0.28-0.33l0.53-6.87
					c0.01-0.17,0.16-0.29,0.33-0.28c0.17,0.01,0.3,0.16,0.28,0.33l-0.53,6.87C45.42,79.38,45.29,79.51,45.13,79.51z"/>
			</g>
		</g>
		<g>
			<path style="fill:#3D314C;" d="M64.57,87.72h-28.9c-0.45,0-0.81-0.36-0.81-0.81l0,0c0-0.45,0.36-0.81,0.81-0.81h28.9
				c0.45,0,0.81,0.36,0.81,0.81l0,0C65.38,87.35,65.02,87.72,64.57,87.72z"/>
		</g>
		<g>
			<path style="fill:#FEBEB7;" d="M12.94,92.88c1.5,0,4-0.32,6.7-0.75c5.67-0.91,12.23-2.32,12.27-2.32c0.07,0,2.26,0.75,4.84,0.73
				c2.58-0.02,3.76-1.14,4.89-1.24c1.11-0.11,3.13-1.68,3.13-1.68h-8.38c-0.52,0-0.85-0.56-0.59-1.01c0.08-0.14,0.16-0.26,0.22-0.34
				c0.02-0.03,0.07-0.06,0.14-0.08c0.02-0.01,0.04-0.01,0.07-0.02c0.75-0.19,3.13-0.03,2.97-0.63c-0.17-0.69-2.77-1.35-4.3-1.23
				c-1.53,0.13-3.79,1.96-3.79,1.96s-4.32-0.35-8.62-0.86c-1.32-0.16-2.32-0.24-3.08-0.28c-1.73-0.09-2.21,0.06-2.21,0.06l0.55-2.84
				l0.41-2.11l0.2-1.04c-1.14-0.16-6.31-0.9-8.43-1.4c-0.09,0.63-0.22,1.45-0.35,2.45c-0.16,1.1-0.35,2.41-0.55,3.88
				C8.37,88.79,8.3,92.88,12.94,92.88z"/>
		</g>
		<g>
			<path style="fill:#C8625C;" d="M9.57,80.23h8.58l0.2-1.04c-1.14-0.16-6.31-0.9-8.43-1.4C9.83,78.41,9.71,79.23,9.57,80.23z"/>
		</g>
		<g>
			<path style="fill:#F1A09B;" d="M13.96,86.62c0.15,0.88,1.5-0.64,3.24-1.44l0.55-2.84C16.88,83.1,13.84,85.87,13.96,86.62z"/>
		</g>
		<g>
			<path style="fill:#F1A09B;" d="M34.68,87.93c0.35,0.53,5.78-0.07,7.76-0.32h-6.06c-0.52,0-0.85-0.56-0.59-1.01
				c0.08-0.14,0.16-0.26,0.22-0.34c0.02-0.03,0.07-0.06,0.14-0.08C34.87,86.47,34.27,87.31,34.68,87.93z"/>
		</g>
		<g>
			<g>
				<path style="fill:#E45368;" d="M46.34,81.44v1.42c0,0.36,0.29,0.65,0.64,0.65h15.16c0.35,0,0.64-0.29,0.64-0.65v-1.42
					c0-0.35-0.29-0.64-0.64-0.64H46.99C46.63,80.8,46.34,81.09,46.34,81.44z"/>
			</g>
			<g>
				<path style="fill:#BB354F;" d="M46.34,81.44v0.54c0,0.35,0.29,0.64,0.64,0.64h15.16c0.35,0,0.64-0.29,0.64-0.64v-0.54
					c0-0.35-0.29-0.64-0.64-0.64H46.99C46.63,80.8,46.34,81.09,46.34,81.44z"/>
			</g>
			<g>
				<path style="fill:#50E7A6;" d="M45.66,81.03c0.35,0.01,0.48-0.14,0.54-0.23c-0.09,0.21-0.35,0.88,0.14,0.75
					c0.57-0.14,1.35-0.66,1.35-0.66c0,0.11,0.02,1.14,0.8,0.92c0.82-0.24,1.35-0.8,1.35-0.8l0.45,0.82l2.48-0.96
					c0,0,0.23,0.97,1.18,0.8c0.95-0.16,1.55-0.8,1.55-0.8s0.07,0.77,0.27,0.59c0.2-0.17,1.48-0.64,1.48-0.64s-0.04,1.97,0.82,1.78
					c0.64-0.14,0.82-0.85,0.87-1.2c0,0.21,0.06,0.51,0.4,0.43c0.52-0.13,0.62-0.48,0.62-0.48s0.46,1.19,1.38,0.86
					c0.93-0.33,1.03-0.99,1.03-0.99l1.14,0.61c0,0,0.03-0.44-0.04-0.94c-0.07-0.45-0.22-0.95-0.54-1.21L46.7,79.2
					c0,0-0.33,0.4-0.64,0.82c-0.01,0-0.01,0-0.01,0C45.71,80.5,45.4,81.02,45.66,81.03z"/>
			</g>
			<g>
				<path style="fill:#3ACDA5;" d="M46.33,80.64c0.57-0.14,1.35-0.66,1.35-0.66c0,0.11,0.02,1.14,0.8,0.91
					c0.82-0.23,1.35-0.79,1.35-0.79l0.45,0.81l2.48-0.96c0,0,0.23,0.97,1.18,0.81c0.95-0.17,1.55-0.8,1.55-0.8s0.07,0.76,0.27,0.59
					c0.2-0.17,1.48-0.64,1.48-0.64s-0.04,1.97,0.82,1.79c0.64-0.14,0.82-0.85,0.87-1.2c0,0.21,0.06,0.51,0.4,0.43
					c0.52-0.13,0.62-0.47,0.62-0.47s0.46,1.19,1.38,0.85c0.93-0.33,1.03-0.98,1.03-0.98l1.09,0.58c-0.07-0.45-0.22-0.95-0.54-1.21
					L46.7,79.2c0,0-0.33,0.4-0.64,0.82c0.07-0.05,0.1-0.1,0.12-0.14C46.1,80.09,45.84,80.75,46.33,80.64z"/>
			</g>
			<g>
				<path style="fill:#F1A09B;" d="M48.24,80.26c3.1,0.01,14.57,0.24,14.86-0.47c0.07-0.17,0.09-0.34,0.1-0.51
					c0.01-0.57-0.25-1.1-0.25-1.1c-1.9-3.24-4.86-4.47-8.45-4.46c-3.58,0.01-6.99,1.66-8.12,3.59c-0.29,0.49-0.51,0.93-0.63,1.3
					C45.4,79.7,45.93,80.26,48.24,80.26z"/>
			</g>
			<g>
				<path style="fill:#F1A09B;" d="M46.13,84.04v1.17c0,0.5,0.4,0.9,0.9,0.9H62.1c0.49,0,0.9-0.4,0.9-0.9v-1.17
					c0-0.29-0.25-0.53-0.54-0.53H46.67C46.37,83.51,46.13,83.75,46.13,84.04z"/>
			</g>
			<g>
				<path style="fill:#D77A77;" d="M48.24,80.26c3.1,0.01,14.57,0.24,14.86-0.47c0.07-0.17,0.09-0.34,0.1-0.51
					c-4.57,0.95-12.96,0.86-17.44-0.67C45.4,79.7,45.93,80.26,48.24,80.26z"/>
			</g>
			<g>
				<path style="fill:#D77A77;" d="M46.13,84.04v0.17c3.61,0.83,13.85-0.46,16.87-0.02v-0.15c0-0.29-0.25-0.53-0.54-0.53H46.67
					C46.37,83.51,46.13,83.75,46.13,84.04z"/>
			</g>
			<g>
				<path style="fill:#FEC5C4;" d="M55.17,77.57c0,0.12,0.09,0.21,0.21,0.21s0.21-0.09,0.21-0.21s-0.09-0.21-0.21-0.21
					S55.17,77.45,55.17,77.57z"/>
			</g>
			<g>
				<path style="fill:#FEC5C4;" d="M51.23,75.22c0,0.12,0.09,0.21,0.21,0.21c0.12,0,0.21-0.09,0.21-0.21c0-0.12-0.09-0.21-0.21-0.21
					C51.32,75.01,51.23,75.1,51.23,75.22z"/>
			</g>
			<g>
				<path style="fill:#FEC5C4;" d="M56.81,75.64c0,0.12,0.09,0.21,0.21,0.21c0.12,0,0.21-0.09,0.21-0.21c0-0.12-0.09-0.21-0.21-0.21
					C56.91,75.43,56.81,75.53,56.81,75.64z"/>
			</g>
			<g>
				<circle style="fill:#FEC5C4;" cx="54.22" cy="74.84" r="0.21"/>
			</g>
			<g>
				<circle style="fill:#FEC5C4;" cx="52.98" cy="76.68" r="0.21"/>
			</g>
		</g>
		<g>
			<path style="fill:#3D314C;" d="M61.79,195.61c0.56-1.47-5.03-3.75-7.35-5c-2.32-1.25-4.39-2.84-4.6-2.54
				c-0.21,0.3-0.82,3.42-0.82,3.42h-7.95l-0.6,4.11H61.79z"/>
		</g>
		<g>
			<path style="fill:#3D314C;" d="M26.1,195.61c2.19,0-2.84-6.83-6.51-7.21c-3.68-0.39-6.45,2.56-7.22,1.96
				c-0.77-0.6-4.19,5.26,0.64,5.26S26.1,195.61,26.1,195.61z"/>
		</g>
		<g>
			<polygon style="fill:#2C213A;" points="33.97,130.03 38.1,147.44 37.41,107.97 			"/>
		</g>
		<g>
			<path style="fill:#2C213A;" d="M18.78,98.16h29.03c-0.16-2.14-0.25-3.39-0.25-3.39H19.43l-0.62,3.19L18.78,98.16z"/>
		</g>
		<g style="opacity:0.25;">
			<path style="fill:#FFFFFF;" d="M42.02,178.44c-0.14,0-0.26-0.11-0.27-0.25c-0.08-1.18-1.99-28.86-1.55-30.81
				c0.34-1.54-3.59-19.28-5.14-25.99c-0.03-0.15,0.06-0.29,0.2-0.33c0.14-0.04,0.29,0.06,0.33,0.2c0.23,0.99,5.58,24.25,5.14,26.23
				c-0.33,1.5,0.88,20.71,1.56,30.65c0.01,0.15-0.1,0.28-0.25,0.29C42.03,178.44,42.02,178.44,42.02,178.44z"/>
		</g>
	</g>
	<g>
		<g>
			<path style="fill:#FEBEB7;" d="M178.56,191.01c0,0,1.79-5.49,1.42-7.09c-3.3-7.54-6.73-23.04-8.97-34.35
				c-1.52-7.7-2.49-13.46-2.49-13.46l9.13-6.69l4.67-3.42c0.1,0.57,0.18,1.32,0.25,2.18c0.2,2.8,0.2,6.87,0.14,10.54
				c-0.08,4.68-0.26,8.71-0.26,8.71c2.83,6.89,3.39,32.14,5.11,44.1L178.56,191.01z"/>
		</g>
		<g>
			<path style="fill:#F1A09B;" d="M182.7,138.73c-5.58,2.47-9.59,7.6-11.7,10.85c-1.52-7.7-2.49-13.46-2.49-13.46l9.13-6.69
				l4.91-1.24C182.76,130.99,182.76,135.06,182.7,138.73z"/>
		</g>
		<g>
			<path style="fill:#FEBEB7;" d="M165.4,148.03c0.31,3,0.38,6.52,0.22,10.65c-0.3,8.18-1.49,18.77-3.46,32.59h-8.96l-0.98-1.48
				l3.11-3.33c0,0-0.83-27.63-2.22-35.11c-0.6-3.26-0.83-6.87-0.88-9.9c-0.07-3.94,0.14-6.91,0.14-6.91l15.25-0.64L165.4,148.03z"/>
		</g>
		<g>
			<path style="fill:#F1A09B;" d="M165.4,148.03c0.31,3,0.38,6.52,0.22,10.65c-1.11-5.8-4.32-13.69-13.39-17.23
				c-0.07-3.94,0.14-6.91,0.14-6.91l15.25-0.64L165.4,148.03z"/>
		</g>
		<g>
			<path style="fill:#F8A39C;" d="M153,69.64c-0.58,1.76-0.42,3.24-0.04,4.7l-5.49,9.47l-0.22,0.09l-4.84,0.31
				c0,0,6.26-24.1,9.68-27.69l2.68,6.53C154.77,63.05,154.29,65.7,153,69.64z"/>
		</g>
		<g>
			<path style="fill:#E73D7B;" d="M188.91,132.41c0,2.77-28.09,12.75-41.76,4.34c-3.7-19.51,6.59-43.34,6.59-43.34
				s0.98-9.11,0.67-13.2c-0.17-2.27-0.98-4.06-1.45-5.88c-0.38-1.46-0.54-2.94,0.04-4.7c0.33-1.03,0.62-1.96,0.85-2.79
				c0.66-2.34,0.5-4.84-0.42-7.09l-1.33-3.24c2.16-2.29,5.74-4,7.69-4.83c0.84-0.35,1.38-0.54,1.38-0.54s0.59-0.12,1.55-0.49
				c1.84-0.73,5.4-1.85,11.41-0.92c0.72,0.11,1.41,0.25,2.06,0.4c3.72,0.84,6.23,2.21,7.81,3.38c1.64,1.21,2.29,2.21,2.29,2.21
				s-0.28,4.49-3.97,10.83c-3.7,6.34-3.21,25.32,0.3,31.86c1.53,2.86,2.94,9.2,4.02,15.66
				C188.03,122.37,188.91,130.86,188.91,132.41z"/>
		</g>
		<g>
			<path style="fill:#CD1762;" d="M177.76,95.46c0.86-8.62-2.96-16.2-2.96-16.2s4.07-3.51,3.42-8.93
				c-0.61-5.1,1.15-10.58,5.77-16.81c1.64,1.21,2.29,2.21,2.29,2.21s-0.28,4.49-3.97,10.83c-3.7,6.34-3.21,25.32,0.3,31.86
				c1.53,2.86,2.94,9.2,4.02,15.66C182.73,107.88,177.14,101.65,177.76,95.46z"/>
		</g>
		<g>
			<defs>
				<path id="SVGID_1_" d="M188.91,132.41c0,2.77-28.09,12.75-41.76,4.34c-3.7-19.51,6.59-43.34,6.59-43.34s0.98-9.11,0.67-13.2
					c-0.17-2.27-0.98-4.06-1.45-5.88c-0.38-1.46-0.54-2.94,0.04-4.7c0.34-1.03,0.62-1.96,0.85-2.79c0.66-2.34,0.5-4.84-0.42-7.09
					l-1.33-3.24c2.16-2.29,5.74-4,7.69-4.83c0.84-0.35,1.38-0.54,1.38-0.54s0.59-0.12,1.55-0.49c1.84-0.73,5.4-1.85,11.41-0.92
					c0.72,0.11,1.41,0.25,2.06,0.4c7.57,1.71,10.1,5.6,10.1,5.6s-0.28,4.49-3.97,10.83c-3.7,6.34-3.21,25.32,0.3,31.86
					C186.13,104.94,188.91,129.64,188.91,132.41z"/>
			</defs>
			<clipPath id="SVGID_2_">
				<use xlink:href="#SVGID_1_"  style="overflow:visible;"/>
			</clipPath>
			<g style="clip-path:url(#SVGID_2_);">
				<g>
					<g>
						<circle style="fill:#FE55A1;" cx="146.36" cy="55.88" r="0.74"/>
					</g>
					<g>
						<circle style="fill:#FE55A1;" cx="151.8" cy="55.88" r="0.74"/>
					</g>
					<g>
						<circle style="fill:#FE55A1;" cx="157.23" cy="55.88" r="0.74"/>
					</g>
					<g>
						<circle style="fill:#FE55A1;" cx="162.67" cy="55.88" r="0.74"/>
					</g>
					<g>
						<circle style="fill:#FE55A1;" cx="168.11" cy="55.88" r="0.74"/>
					</g>
					<g>
						<circle style="fill:#FE55A1;" cx="173.54" cy="55.88" r="0.74"/>
					</g>
					<g>
						<circle style="fill:#FE55A1;" cx="178.98" cy="55.88" r="0.74"/>
					</g>
					<g>
						<circle style="fill:#FE55A1;" cx="184.41" cy="55.88" r="0.74"/>
					</g>
					<g>
						<circle style="fill:#FE55A1;" cx="189.85" cy="55.88" r="0.74"/>
					</g>
				</g>
				<g>
					<g>
						<circle style="fill:#FE55A1;" cx="146.36" cy="61.64" r="0.74"/>
					</g>
					<g>
						<circle style="fill:#FE55A1;" cx="151.8" cy="61.64" r="0.74"/>
					</g>
					<g>
						<circle style="fill:#FE55A1;" cx="157.23" cy="61.64" r="0.74"/>
					</g>
					<g>
						<circle style="fill:#FE55A1;" cx="162.67" cy="61.64" r="0.74"/>
					</g>
					<g>
						<circle style="fill:#FE55A1;" cx="168.11" cy="61.64" r="0.74"/>
					</g>
					<g>
						<circle style="fill:#FE55A1;" cx="173.54" cy="61.64" r="0.74"/>
					</g>
					<g>
						<circle style="fill:#FE55A1;" cx="178.98" cy="61.64" r="0.74"/>
					</g>
					<g>
						<circle style="fill:#FE55A1;" cx="184.41" cy="61.64" r="0.74"/>
					</g>
					<g>
						<circle style="fill:#FE55A1;" cx="189.85" cy="61.64" r="0.74"/>
					</g>
				</g>
				<g>
					<g>
						<circle style="fill:#FE55A1;" cx="146.36" cy="67.39" r="0.74"/>
					</g>
					<g>
						<circle style="fill:#FE55A1;" cx="151.8" cy="67.39" r="0.74"/>
					</g>
					<g>
						<circle style="fill:#FE55A1;" cx="157.23" cy="67.39" r="0.74"/>
					</g>
					<g>
						<circle style="fill:#FE55A1;" cx="162.67" cy="67.39" r="0.74"/>
					</g>
					<g>
						<circle style="fill:#FE55A1;" cx="168.11" cy="67.39" r="0.74"/>
					</g>
					<g>
						<circle style="fill:#FE55A1;" cx="173.54" cy="67.39" r="0.74"/>
					</g>
					<g>
						<circle style="fill:#FE55A1;" cx="178.98" cy="67.39" r="0.74"/>
					</g>
					<g>
						<circle style="fill:#FE55A1;" cx="184.41" cy="67.39" r="0.74"/>
					</g>
					<g>
						<circle style="fill:#FE55A1;" cx="189.85" cy="67.39" r="0.74"/>
					</g>
				</g>
				<g>
					<g>
						<circle style="fill:#FE55A1;" cx="146.36" cy="73.15" r="0.74"/>
					</g>
					<g>
						<circle style="fill:#FE55A1;" cx="151.8" cy="73.15" r="0.74"/>
					</g>
					<g>
						<circle style="fill:#FE55A1;" cx="157.23" cy="73.15" r="0.74"/>
					</g>
					<g>
						<circle style="fill:#FE55A1;" cx="162.67" cy="73.15" r="0.74"/>
					</g>
					<g>
						<circle style="fill:#FE55A1;" cx="168.11" cy="73.15" r="0.74"/>
					</g>
					<g>
						<circle style="fill:#FE55A1;" cx="173.54" cy="73.15" r="0.74"/>
					</g>
					<g>
						<circle style="fill:#FE55A1;" cx="178.98" cy="73.15" r="0.74"/>
					</g>
					<g>
						<circle style="fill:#FE55A1;" cx="184.41" cy="73.15" r="0.74"/>
					</g>
					<g>
						<circle style="fill:#FE55A1;" cx="189.85" cy="73.15" r="0.74"/>
					</g>
				</g>
				<g>
					<g>
						<circle style="fill:#FE55A1;" cx="146.36" cy="78.9" r="0.74"/>
					</g>
					<g>
						<circle style="fill:#FE55A1;" cx="151.8" cy="78.9" r="0.74"/>
					</g>
					<g>
						<circle style="fill:#FE55A1;" cx="157.23" cy="78.9" r="0.74"/>
					</g>
					<g>
						<circle style="fill:#FE55A1;" cx="162.67" cy="78.9" r="0.74"/>
					</g>
					<g>
						<circle style="fill:#FE55A1;" cx="168.11" cy="78.9" r="0.74"/>
					</g>
					<g>
						<circle style="fill:#FE55A1;" cx="173.54" cy="78.9" r="0.74"/>
					</g>
					<g>
						<circle style="fill:#FE55A1;" cx="178.98" cy="78.9" r="0.74"/>
					</g>
					<g>
						<circle style="fill:#FE55A1;" cx="184.41" cy="78.9" r="0.74"/>
					</g>
					<g>
						<circle style="fill:#FE55A1;" cx="189.85" cy="78.9" r="0.74"/>
					</g>
				</g>
				<g>
					<g>
						<circle style="fill:#FE55A1;" cx="146.36" cy="84.66" r="0.74"/>
					</g>
					<g>
						<circle style="fill:#FE55A1;" cx="151.8" cy="84.66" r="0.74"/>
					</g>
					<g>
						<circle style="fill:#FE55A1;" cx="157.23" cy="84.66" r="0.74"/>
					</g>
					<g>
						<circle style="fill:#FE55A1;" cx="162.67" cy="84.66" r="0.74"/>
					</g>
					<g>
						<circle style="fill:#FE55A1;" cx="168.11" cy="84.66" r="0.74"/>
					</g>
					<g>
						<circle style="fill:#FE55A1;" cx="173.54" cy="84.66" r="0.74"/>
					</g>
					<g>
						<circle style="fill:#FE55A1;" cx="178.98" cy="84.66" r="0.74"/>
					</g>
					<g>
						<circle style="fill:#FE55A1;" cx="184.41" cy="84.66" r="0.74"/>
					</g>
					<g>
						<circle style="fill:#FE55A1;" cx="189.85" cy="84.66" r="0.74"/>
					</g>
				</g>
				<g>
					<g>
						<circle style="fill:#FE55A1;" cx="146.36" cy="90.41" r="0.74"/>
					</g>
					<g>
						<circle style="fill:#FE55A1;" cx="151.8" cy="90.41" r="0.74"/>
					</g>
					<g>
						<circle style="fill:#FE55A1;" cx="157.23" cy="90.41" r="0.74"/>
					</g>
					<g>
						<circle style="fill:#FE55A1;" cx="162.67" cy="90.41" r="0.74"/>
					</g>
					<g>
						<circle style="fill:#FE55A1;" cx="168.11" cy="90.41" r="0.74"/>
					</g>
					<g>
						<circle style="fill:#FE55A1;" cx="173.54" cy="90.41" r="0.74"/>
					</g>
					<g>
						<circle style="fill:#FE55A1;" cx="178.98" cy="90.41" r="0.74"/>
					</g>
					<g>
						<circle style="fill:#FE55A1;" cx="184.41" cy="90.41" r="0.74"/>
					</g>
					<g>
						<circle style="fill:#FE55A1;" cx="189.85" cy="90.41" r="0.74"/>
					</g>
				</g>
				<g>
					<g>
						<circle style="fill:#FE55A1;" cx="146.36" cy="96.16" r="0.74"/>
					</g>
					<g>
						<circle style="fill:#FE55A1;" cx="151.8" cy="96.16" r="0.74"/>
					</g>
					<g>
						<circle style="fill:#FE55A1;" cx="157.23" cy="96.16" r="0.74"/>
					</g>
					<g>
						<circle style="fill:#FE55A1;" cx="162.67" cy="96.16" r="0.74"/>
					</g>
					<g>
						<circle style="fill:#FE55A1;" cx="168.11" cy="96.16" r="0.74"/>
					</g>
					<g>
						<circle style="fill:#FE55A1;" cx="173.54" cy="96.16" r="0.74"/>
					</g>
					<g>
						<circle style="fill:#FE55A1;" cx="178.98" cy="96.16" r="0.74"/>
					</g>
					<g>
						<circle style="fill:#FE55A1;" cx="184.41" cy="96.16" r="0.74"/>
					</g>
					<g>
						<circle style="fill:#FE55A1;" cx="189.85" cy="96.16" r="0.74"/>
					</g>
				</g>
				<g>
					<g>
						<path style="fill:#FE55A1;" d="M147.1,101.92c0,0.41-0.33,0.74-0.74,0.74s-0.74-0.33-0.74-0.74c0-0.41,0.33-0.74,0.74-0.74
							S147.1,101.51,147.1,101.92z"/>
					</g>
					<g>
						<path style="fill:#FE55A1;" d="M152.54,101.92c0,0.41-0.33,0.74-0.74,0.74c-0.41,0-0.74-0.33-0.74-0.74
							c0-0.41,0.33-0.74,0.74-0.74C152.2,101.18,152.54,101.51,152.54,101.92z"/>
					</g>
					<g>
						<path style="fill:#FE55A1;" d="M157.97,101.92c0,0.41-0.33,0.74-0.74,0.74c-0.41,0-0.74-0.33-0.74-0.74
							c0-0.41,0.33-0.74,0.74-0.74C157.64,101.18,157.97,101.51,157.97,101.92z"/>
					</g>
					<g>
						<path style="fill:#FE55A1;" d="M163.41,101.92c0,0.41-0.33,0.74-0.74,0.74c-0.41,0-0.74-0.33-0.74-0.74
							c0-0.41,0.33-0.74,0.74-0.74C163.08,101.18,163.41,101.51,163.41,101.92z"/>
					</g>
					<g>
						<path style="fill:#FE55A1;" d="M168.85,101.92c0,0.41-0.33,0.74-0.74,0.74c-0.41,0-0.74-0.33-0.74-0.74
							c0-0.41,0.33-0.74,0.74-0.74C168.51,101.18,168.85,101.51,168.85,101.92z"/>
					</g>
					<g>
						<path style="fill:#FE55A1;" d="M174.28,101.92c0,0.41-0.33,0.74-0.74,0.74s-0.74-0.33-0.74-0.74c0-0.41,0.33-0.74,0.74-0.74
							S174.28,101.51,174.28,101.92z"/>
					</g>
					<g>
						<path style="fill:#FE55A1;" d="M179.72,101.92c0,0.41-0.33,0.74-0.74,0.74c-0.41,0-0.74-0.33-0.74-0.74
							c0-0.41,0.33-0.74,0.74-0.74C179.39,101.18,179.72,101.51,179.72,101.92z"/>
					</g>
					<g>
						<path style="fill:#FE55A1;" d="M185.15,101.92c0,0.41-0.33,0.74-0.74,0.74c-0.41,0-0.74-0.33-0.74-0.74
							c0-0.41,0.33-0.74,0.74-0.74C184.82,101.18,185.15,101.51,185.15,101.92z"/>
					</g>
					<g>
						<path style="fill:#FE55A1;" d="M190.59,101.92c0,0.41-0.33,0.74-0.74,0.74c-0.41,0-0.74-0.33-0.74-0.74
							c0-0.41,0.33-0.74,0.74-0.74C190.26,101.18,190.59,101.51,190.59,101.92z"/>
					</g>
				</g>
				<g>
					<g>
						<circle style="fill:#FE55A1;" cx="146.36" cy="107.67" r="0.74"/>
					</g>
					<g>
						<circle style="fill:#FE55A1;" cx="151.8" cy="107.67" r="0.74"/>
					</g>
					<g>
						<circle style="fill:#FE55A1;" cx="157.23" cy="107.67" r="0.74"/>
					</g>
					<g>
						<circle style="fill:#FE55A1;" cx="162.67" cy="107.67" r="0.74"/>
					</g>
					<g>
						<circle style="fill:#FE55A1;" cx="168.11" cy="107.67" r="0.74"/>
					</g>
					<g>
						<circle style="fill:#FE55A1;" cx="173.54" cy="107.67" r="0.74"/>
					</g>
					<g>
						<circle style="fill:#FE55A1;" cx="178.98" cy="107.67" r="0.74"/>
					</g>
					<g>
						<circle style="fill:#FE55A1;" cx="184.41" cy="107.67" r="0.74"/>
					</g>
					<g>
						<circle style="fill:#FE55A1;" cx="189.85" cy="107.67" r="0.74"/>
					</g>
				</g>
				<g>
					<g>
						<circle style="fill:#FE55A1;" cx="146.36" cy="113.43" r="0.74"/>
					</g>
					<g>
						<circle style="fill:#FE55A1;" cx="151.8" cy="113.43" r="0.74"/>
					</g>
					<g>
						<circle style="fill:#FE55A1;" cx="157.23" cy="113.43" r="0.74"/>
					</g>
					<g>
						<circle style="fill:#FE55A1;" cx="162.67" cy="113.43" r="0.74"/>
					</g>
					<g>
						<circle style="fill:#FE55A1;" cx="168.11" cy="113.43" r="0.74"/>
					</g>
					<g>
						<circle style="fill:#FE55A1;" cx="173.54" cy="113.43" r="0.74"/>
					</g>
					<g>
						<circle style="fill:#FE55A1;" cx="178.98" cy="113.43" r="0.74"/>
					</g>
					<g>
						<circle style="fill:#FE55A1;" cx="184.41" cy="113.43" r="0.74"/>
					</g>
					<g>
						<circle style="fill:#FE55A1;" cx="189.85" cy="113.43" r="0.74"/>
					</g>
				</g>
				<g>
					<g>
						<circle style="fill:#FE55A1;" cx="146.36" cy="119.18" r="0.74"/>
					</g>
					<g>
						<circle style="fill:#FE55A1;" cx="151.8" cy="119.18" r="0.74"/>
					</g>
					<g>
						<circle style="fill:#FE55A1;" cx="157.23" cy="119.18" r="0.74"/>
					</g>
					<g>
						<circle style="fill:#FE55A1;" cx="162.67" cy="119.18" r="0.74"/>
					</g>
					<g>
						<circle style="fill:#FE55A1;" cx="168.11" cy="119.18" r="0.74"/>
					</g>
					<g>
						<circle style="fill:#FE55A1;" cx="173.54" cy="119.18" r="0.74"/>
					</g>
					<g>
						<circle style="fill:#FE55A1;" cx="178.98" cy="119.18" r="0.74"/>
					</g>
					<g>
						<circle style="fill:#FE55A1;" cx="184.41" cy="119.18" r="0.74"/>
					</g>
					<g>
						<circle style="fill:#FE55A1;" cx="189.85" cy="119.18" r="0.74"/>
					</g>
				</g>
				<g>
					<g>
						<circle style="fill:#FE55A1;" cx="146.36" cy="124.93" r="0.74"/>
					</g>
					<g>
						<circle style="fill:#FE55A1;" cx="151.8" cy="124.93" r="0.74"/>
					</g>
					<g>
						<circle style="fill:#FE55A1;" cx="157.23" cy="124.93" r="0.74"/>
					</g>
					<g>
						<circle style="fill:#FE55A1;" cx="162.67" cy="124.93" r="0.74"/>
					</g>
					<g>
						<circle style="fill:#FE55A1;" cx="168.11" cy="124.93" r="0.74"/>
					</g>
					<g>
						<circle style="fill:#FE55A1;" cx="173.54" cy="124.93" r="0.74"/>
					</g>
					<g>
						<circle style="fill:#FE55A1;" cx="178.98" cy="124.93" r="0.74"/>
					</g>
					<g>
						<circle style="fill:#FE55A1;" cx="184.41" cy="124.93" r="0.74"/>
					</g>
					<g>
						<circle style="fill:#FE55A1;" cx="189.85" cy="124.93" r="0.74"/>
					</g>
				</g>
				<g>
					<g>
						<circle style="fill:#FE55A1;" cx="146.36" cy="130.69" r="0.74"/>
					</g>
					<g>
						<circle style="fill:#FE55A1;" cx="151.8" cy="130.69" r="0.74"/>
					</g>
					<g>
						<circle style="fill:#FE55A1;" cx="157.23" cy="130.69" r="0.74"/>
					</g>
					<g>
						<circle style="fill:#FE55A1;" cx="162.67" cy="130.69" r="0.74"/>
					</g>
					<g>
						<circle style="fill:#FE55A1;" cx="168.11" cy="130.69" r="0.74"/>
					</g>
					<g>
						<circle style="fill:#FE55A1;" cx="173.54" cy="130.69" r="0.74"/>
					</g>
					<g>
						<circle style="fill:#FE55A1;" cx="178.98" cy="130.69" r="0.74"/>
					</g>
					<g>
						<circle style="fill:#FE55A1;" cx="184.41" cy="130.69" r="0.74"/>
					</g>
					<g>
						<circle style="fill:#FE55A1;" cx="189.85" cy="130.69" r="0.74"/>
					</g>
				</g>
				<g>
					<g>
						<circle style="fill:#FE55A1;" cx="146.36" cy="136.44" r="0.74"/>
					</g>
					<g>
						<circle style="fill:#FE55A1;" cx="151.8" cy="136.44" r="0.74"/>
					</g>
					<g>
						<circle style="fill:#FE55A1;" cx="157.23" cy="136.44" r="0.74"/>
					</g>
					<g>
						<circle style="fill:#FE55A1;" cx="162.67" cy="136.44" r="0.74"/>
					</g>
					<g>
						<circle style="fill:#FE55A1;" cx="168.11" cy="136.44" r="0.74"/>
					</g>
					<g>
						<circle style="fill:#FE55A1;" cx="173.54" cy="136.44" r="0.74"/>
					</g>
					<g>
						<circle style="fill:#FE55A1;" cx="178.98" cy="136.44" r="0.74"/>
					</g>
					<g>
						<circle style="fill:#FE55A1;" cx="184.41" cy="136.44" r="0.74"/>
					</g>
					<g>
						<circle style="fill:#FE55A1;" cx="189.85" cy="136.44" r="0.74"/>
					</g>
				</g>
			</g>
		</g>
		<g>
			<path style="fill:#3D314C;" d="M176.18,50.14c-1.49,2.47-4.97,6.94-10.4,6.62c-5.65-0.35-6.11-3.53-5.99-5.06
				c0.84-0.35,1.38-0.54,1.38-0.54s0.59-0.12,1.55-0.49c1.84-0.73,5.4-1.85,11.41-0.92C174.85,49.85,175.54,49.99,176.18,50.14z"/>
		</g>
		<g>
			<path style="fill:#8E2323;" d="M184.98,17.76v0.14c0,3.28-2.66,5.94-5.94,5.94c-1.59,0-3.03-0.62-4.1-1.64
				c-1.13-1.08-1.84-2.6-1.84-4.29c0-0.65,0.11-1.28,0.3-1.87c0.2-0.62,0.51-1.2,0.9-1.72c1.09-1.43,2.8-2.35,4.73-2.35
				C182.28,11.96,184.91,14.55,184.98,17.76z"/>
		</g>
		<g>
			<path style="fill:#701212;" d="M184.98,17.76v0.14c0,3.28-2.66,5.94-5.94,5.94c-1.59,0-3.03-0.62-4.1-1.64l-1.53-6.16
				c0.2-0.62,0.51-1.2,0.9-1.72c1.66,0.61,4.47,1.86,6.84,4.13C182.7,19.91,184.14,19.27,184.98,17.76z"/>
		</g>
		<g>
			<path style="fill:#AE3F3F;" d="M180.92,28.55c-1.38,9.98-10.38,15.25-12.81,14.38c-0.41-0.15-1.03-0.63-1.77-1.32
				c-3.6-3.39-10.09-11.85-10.09-11.85c-3.84-2.45-5.64-10.34-2.69-12.93c2.96-2.58,4.86-0.69,4.86-0.69s3.28-5.26,11.23-3.46
				c6.3,1.43,10.57,4.31,11.37,10.42C181.23,24.68,181.21,26.49,180.92,28.55z"/>
		</g>
		<g>
			<path style="fill:#8E2323;" d="M180.92,28.55c-1.38,9.98-10.38,15.25-12.81,14.38c-0.41-0.15-1.03-0.63-1.77-1.32l-8.56-15.37
				c10.85,4.35,21.06,1.64,23.23-3.15C181.23,24.68,181.21,26.49,180.92,28.55z"/>
		</g>
		<g>
			<path style="fill:#FEBEB7;" d="M174.13,49.74c0,0-4.67,6.12-8.99,5.33c-4.32-0.78-3.97-3.92-3.97-3.92l0.48-0.21l1.44-0.64
				c0,0,0-0.72-0.04-1.73c-0.05-1.35-0.17-3.22-0.46-4.53l9.36-3.66c-0.25,0.67-0.38,1.58-0.46,2.55c-0.2,2.83,0.2,6.23,0.2,6.23
				l1.46,0.35L174.13,49.74z"/>
		</g>
		<g>
			<path style="fill:#C8625C;" d="M171.93,40.38c-0.25,0.67-0.38,1.58-0.46,2.55c-1.4,1.85-3.68,5.59-8.44,5.64
				c-0.05-1.35-0.17-3.22-0.46-4.53L171.93,40.38z"/>
		</g>
		<g>
			<path style="fill:#FEBEB7;" d="M177.96,37.52c-2.75,0.92-3.24-0.9-3.24-0.9s-4.1,9.54-11.49,8.52c-0.09-0.01-0.17-0.02-0.27-0.04
				c-7.54-1.3-7.39-9.49-7.3-12.14c0.09-2.6-1.33-4.75-0.77-8.44c0.01-0.07,0.01-0.14,0.03-0.22c0.05,0.04,0.09,0.07,0.14,0.11
				c8.77,6.64,18.65,6.34,18.65,6.34s0.01,0.07,0.01,0.18c0.07,0.69,0.32,3.09,0.81,2.19c0.58-1.04,2.45-2.95,4.12-2.56
				C180.34,30.96,180.71,36.59,177.96,37.52z"/>
		</g>
		<g>
			<path style="fill:#FDCFCB;" d="M163.24,45.14c-0.09-0.01-0.17-0.02-0.27-0.04c-7.54-1.3-7.39-9.49-7.3-12.14
				c0.09-2.6-1.33-4.75-0.77-8.44c0.25,4.01,1.93,6.57,2.1,10.13C157.15,37.75,157.44,42.88,163.24,45.14z"/>
		</g>
		<g>
			<path style="fill:#F1A09B;" d="M173.75,30.93c-6.93,3.92-16.29-2.69-18.67-6.52c8.77,6.64,18.65,6.34,18.65,6.34
				S173.74,30.82,173.75,30.93z"/>
		</g>
		<g>
			<path style="fill:#C8625C;" d="M177.24,35.91c-0.04,0-0.09-0.02-0.12-0.05c-0.46-0.43-0.63-1.02-0.45-1.61
				c0.19-0.64,0.76-1.15,1.4-1.25c0.1-0.02,0.19,0.05,0.21,0.15c0.02,0.1-0.05,0.19-0.15,0.21c-0.51,0.09-0.96,0.49-1.12,1
				c-0.08,0.27-0.14,0.78,0.35,1.25c0.07,0.07,0.08,0.18,0.01,0.26C177.33,35.89,177.28,35.91,177.24,35.91z"/>
		</g>
		<g>
			<g>
				<path style="fill:#C8625C;" d="M162.28,38.28c-0.18,0-0.38-0.03-0.59-0.12c-0.56-0.21-0.85-0.84-0.76-1.63
					c0.08-0.69,0.49-1.46,1.17-1.55c0.1-0.01,0.19,0.06,0.2,0.16c0.01,0.1-0.06,0.19-0.16,0.2c-0.47,0.06-0.79,0.68-0.86,1.23
					c-0.06,0.48,0.05,1.06,0.53,1.25c0.94,0.36,1.31-0.41,1.35-0.5c0.04-0.09,0.15-0.13,0.24-0.09c0.09,0.04,0.13,0.15,0.09,0.24
					C163.36,37.8,162.95,38.28,162.28,38.28z"/>
			</g>
			<g>
				<path style="fill:#23143A;" d="M167.43,34.35c0,0.67-0.36,1.21-0.81,1.21c-0.45,0-0.81-0.54-0.81-1.21
					c0-0.67,0.36-1.21,0.81-1.21C167.07,33.14,167.43,33.69,167.43,34.35z"/>
			</g>
			<g>
				<path style="fill:#23143A;" d="M159.69,34.26c0,0.67-0.36,1.21-0.81,1.21c-0.45,0-0.81-0.54-0.81-1.21s0.36-1.21,0.81-1.21
					C159.33,33.05,159.69,33.59,159.69,34.26z"/>
			</g>
			<g>
				<path style="fill:#AE3F3F;" d="M157.37,29.53c-0.1,0-0.2-0.06-0.24-0.15c-0.06-0.14-0.01-0.3,0.13-0.36
					c0.06-0.03,1.6-0.75,3.24-0.17c0.14,0.05,0.22,0.21,0.17,0.35c-0.05,0.14-0.21,0.22-0.35,0.17c-1.43-0.5-2.81,0.14-2.82,0.15
					C157.45,29.52,157.41,29.53,157.37,29.53z"/>
			</g>
		</g>
		<g>
			<path style="fill:#701212;" d="M167.99,40.87c-0.46,0.67-1.21,1.35-2.29,1.56c-0.46,0.09-0.93,0.07-1.38-0.04
				c-1.72-0.41-3.05-1.97-1.56-2.01c3.05-0.07,5.44-1.45,5.73-1.11C168.64,39.45,168.48,40.16,167.99,40.87z"/>
		</g>
		<g>
			<path style="fill:#FEBEB7;" d="M157.44,65.95c-5.49-0.34-6.74,3.09-7.71,6.06c-0.97,2.97-9.03,12.11-7.99,15.35
				c1.62,5.05,5.82,5.91,7.99,1.48c2.17-4.44,3.97-15.57,5.87-18.53S157.44,65.95,157.44,65.95z"/>
		</g>
		<g>
			<g>
				<path style="fill:#E45368;" d="M169.23,73.15v1.42c0,0.36-0.29,0.65-0.64,0.65h-15.16c-0.35,0-0.64-0.29-0.64-0.65v-1.42
					c0-0.35,0.29-0.64,0.64-0.64h15.16C168.94,72.51,169.23,72.8,169.23,73.15z"/>
			</g>
			<g>
				<path style="fill:#BB354F;" d="M169.23,73.15v0.54c0,0.35-0.29,0.64-0.64,0.64h-15.16c-0.35,0-0.64-0.29-0.64-0.64v-0.54
					c0-0.35,0.29-0.64,0.64-0.64h15.16C168.94,72.51,169.23,72.8,169.23,73.15z"/>
			</g>
			<g>
				<path style="fill:#50E7A6;" d="M169.92,72.74c-0.35,0.01-0.48-0.14-0.54-0.23c0.09,0.21,0.35,0.88-0.14,0.75
					c-0.57-0.14-1.35-0.66-1.35-0.66c0,0.11-0.02,1.14-0.8,0.92c-0.82-0.24-1.35-0.8-1.35-0.8l-0.45,0.82l-2.48-0.96
					c0,0-0.23,0.97-1.18,0.8c-0.95-0.16-1.55-0.8-1.55-0.8s-0.07,0.77-0.27,0.59c-0.2-0.17-1.48-0.64-1.48-0.64s0.04,1.97-0.82,1.78
					c-0.64-0.14-0.82-0.85-0.87-1.2c0,0.21-0.06,0.51-0.4,0.43c-0.52-0.13-0.62-0.48-0.62-0.48s-0.46,1.19-1.38,0.86
					c-0.93-0.33-1.03-0.99-1.03-0.99l-1.14,0.61c0,0-0.03-0.44,0.04-0.94c0.07-0.45,0.22-0.95,0.54-1.21l16.19-0.5
					c0,0,0.33,0.4,0.64,0.82c0.01,0,0.01,0,0.01,0C169.86,72.21,170.17,72.73,169.92,72.74z"/>
			</g>
			<g>
				<path style="fill:#3ACDA5;" d="M169.25,72.35c-0.57-0.14-1.35-0.66-1.35-0.66c0,0.11-0.02,1.14-0.8,0.91
					c-0.82-0.23-1.35-0.79-1.35-0.79l-0.45,0.81l-2.48-0.96c0,0-0.23,0.97-1.18,0.81c-0.95-0.17-1.55-0.8-1.55-0.8
					s-0.07,0.76-0.27,0.59c-0.2-0.17-1.48-0.64-1.48-0.64s0.04,1.97-0.82,1.79c-0.64-0.14-0.82-0.85-0.87-1.2
					c0,0.21-0.06,0.51-0.4,0.43c-0.52-0.13-0.62-0.47-0.62-0.47s-0.46,1.19-1.38,0.85c-0.93-0.33-1.03-0.98-1.03-0.98l-1.09,0.58
					c0.07-0.45,0.22-0.95,0.54-1.21l16.19-0.5c0,0,0.33,0.4,0.64,0.82c-0.07-0.05-0.1-0.1-0.12-0.14
					C169.47,71.8,169.73,72.47,169.25,72.35z"/>
			</g>
			<g>
				<path style="fill:#F1A09B;" d="M167.33,71.97c-3.1,0.01-14.57,0.24-14.86-0.47c-0.07-0.17-0.09-0.34-0.1-0.51
					c-0.01-0.57,0.25-1.1,0.25-1.1c1.9-3.24,4.86-4.47,8.45-4.46c3.58,0.01,6.99,1.66,8.12,3.59c0.29,0.49,0.51,0.93,0.63,1.3
					C170.17,71.41,169.64,71.97,167.33,71.97z"/>
			</g>
			<g>
				<path style="fill:#F1A09B;" d="M169.44,75.75v1.17c0,0.5-0.4,0.9-0.9,0.9h-15.07c-0.49,0-0.9-0.4-0.9-0.9v-1.17
					c0-0.29,0.25-0.53,0.54-0.53h15.79C169.2,75.22,169.44,75.46,169.44,75.75z"/>
			</g>
			<g>
				<path style="fill:#D77A77;" d="M167.33,71.97c-3.1,0.01-14.57,0.24-14.86-0.47c-0.07-0.17-0.09-0.34-0.1-0.51
					c4.57,0.95,12.96,0.86,17.44-0.67C170.17,71.41,169.64,71.97,167.33,71.97z"/>
			</g>
			<g>
				<path style="fill:#D77A77;" d="M169.44,75.75v0.17c-3.61,0.83-13.85-0.46-16.86-0.02v-0.15c0-0.29,0.25-0.53,0.54-0.53h15.79
					C169.2,75.22,169.44,75.46,169.44,75.75z"/>
			</g>
			<g>
				<circle style="fill:#FEC5C4;" cx="160.19" cy="69.28" r="0.21"/>
			</g>
			<g>
				<path style="fill:#FEC5C4;" d="M164.34,66.93c0,0.12-0.09,0.21-0.21,0.21c-0.12,0-0.21-0.09-0.21-0.21s0.09-0.21,0.21-0.21
					C164.25,66.72,164.34,66.81,164.34,66.93z"/>
			</g>
			<g>
				<path style="fill:#FEC5C4;" d="M158.76,67.35c0,0.12-0.09,0.21-0.21,0.21s-0.21-0.09-0.21-0.21s0.09-0.21,0.21-0.21
					S158.76,67.24,158.76,67.35z"/>
			</g>
			<g>
				<path style="fill:#FEC5C4;" d="M161.57,66.55c0,0.12-0.09,0.21-0.21,0.21c-0.12,0-0.21-0.09-0.21-0.21
					c0-0.12,0.09-0.21,0.21-0.21C161.47,66.34,161.57,66.43,161.57,66.55z"/>
			</g>
			<g>
				<path style="fill:#FEC5C4;" d="M162.81,68.39c0,0.12-0.09,0.21-0.21,0.21c-0.12,0-0.21-0.09-0.21-0.21s0.09-0.21,0.21-0.21
					C162.71,68.18,162.81,68.27,162.81,68.39z"/>
			</g>
		</g>
		<g>
			<path style="fill:#FEBEB7;" d="M185.58,92.59c-4.71-1.11-16.05-15.06-17.14-16.87c-1.09-1.8-0.56-4.06-0.81-6.05
				c-0.25-1.98-2.27-2.86-2.13-3.34c0.14-0.48,1.72-1,3.4-0.58c3.91,0.96,2.54,7.39,3.79,8.59c1.24,1.2,9.66,6.98,9.66,6.98
				l-0.66-3.97l-1.5-9.01l-0.57-3.42c1.56-6.5,4.69-8.81,5.99-9.51c0.28-0.15,0.62,0.01,0.68,0.33c0,0.01,0.01,0.03,0.01,0.05
				c0.62,3.57,3.67,21.08,4.42,26.97C191.54,89.31,190.3,93.7,185.58,92.59z"/>
		</g>
		<g>
			<path style="fill:#F1A09B;" d="M174.13,49.74c0,0-4.67,6.12-8.99,5.33c-4.32-0.78-3.97-3.92-3.97-3.92l0.48-0.21
				c0.14,1.02,0.78,3.37,3.86,3.45c3.11,0.07,6.39-3.41,7.64-4.88L174.13,49.74z"/>
		</g>
		<g>
			<path style="fill:#F8A39C;" d="M186.72,84.46c-0.49,0-4.37-3.14-4.37-3.14l-0.66-3.97C183.68,79.97,187.07,84.46,186.72,84.46z"
				/>
		</g>
		<g>
			<path style="fill:#E73D7B;" d="M162.17,191.27l-0.07,3.2c-0.01,0.63-0.53,1.14-1.17,1.14h-17.26c-0.78,0-1.02-1.05-0.33-1.4
				l8.88-4.42l0.98,1.48H162.17z"/>
		</g>
		<g>
			<path style="fill:#E73D7B;" d="M178.65,190.74c-2.03,2.2-3.2,4.87-1.26,4.87c1.94,0,1.94,0,1.94,0l0,0c0,0,8.69,0.61,8.87,0
				c0.18-0.61,0.22-3.26-0.95-4.49C186.08,189.89,181.1,188.45,178.65,190.74z"/>
		</g>
		<g>
			<path style="fill:#CD1762;" d="M172.8,90.41c-6.5,10.59-15.36,13.3-15.36,13.3S167.78,104.09,172.8,90.41z"/>
		</g>
		<g>
			<path style="fill:#F8A39C;" d="M186.29,55.78c-2.89,2.22-5.38,8.56-6.1,12.56l-0.57-3.42c1.56-6.5,4.69-8.81,5.99-9.51
				c0.28-0.15,0.62,0.01,0.68,0.33C186.29,55.75,186.29,55.76,186.29,55.78z"/>
		</g>
		<g>
			<path style="fill:#E73D7B;" d="M167.99,40.87c-0.46,0.67-1.21,1.35-2.29,1.56c-0.46,0.09-0.93,0.07-1.38-0.04
				c0.28-1.07,1.25-1.86,2.41-1.86C167.19,40.52,167.62,40.65,167.99,40.87z"/>
		</g>
		<g>
			<g>
				<path style="fill:#3D314C;" d="M158.78,36.91c-1.87,0-3.39-1.52-3.39-3.39c0-1.87,1.52-3.39,3.39-3.39
					c1.87,0,3.39,1.52,3.39,3.39C162.18,35.39,160.66,36.91,158.78,36.91z M158.78,30.66c-1.57,0-2.85,1.28-2.85,2.85
					c0,1.57,1.28,2.85,2.85,2.85c1.57,0,2.85-1.28,2.85-2.85C161.64,31.94,160.36,30.66,158.78,30.66z"/>
			</g>
			<g>
				<path style="fill:#3D314C;" d="M166.16,36.91c-1.87,0-3.39-1.52-3.39-3.39c0-1.87,1.52-3.39,3.39-3.39s3.39,1.52,3.39,3.39
					C169.55,35.39,168.03,36.91,166.16,36.91z M166.16,30.66c-1.57,0-2.85,1.28-2.85,2.85c0,1.57,1.28,2.85,2.85,2.85
					s2.85-1.28,2.85-2.85C169.01,31.94,167.73,30.66,166.16,30.66z"/>
			</g>
			<g>
				<rect x="161.91" y="33.02" style="fill:#3D314C;" width="1.13" height="0.54"/>
			</g>
			<g>
				<rect x="168.76" y="31.51" style="fill:#3D314C;" width="6.57" height="0.54"/>
			</g>
		</g>
	</g>
	<g>
		<g>
			<path style="fill:#282828;" d="M144.15,125.33h-2c-0.28,0-0.5-0.29-0.5-0.64s0.22-0.64,0.5-0.64h2c0.28,0,0.5,0.29,0.5,0.64
				S144.42,125.33,144.15,125.33z"/>
		</g>
		<g>
			<path style="fill:#282828;" d="M137.98,125.33h-4.17c-0.28,0-0.5-0.29-0.5-0.64s0.22-0.64,0.5-0.64h4.17
				c0.28,0,0.5,0.29,0.5,0.64S138.25,125.33,137.98,125.33z M129.64,125.33h-4.17c-0.28,0-0.5-0.29-0.5-0.64s0.22-0.64,0.5-0.64
				h4.17c0.28,0,0.5,0.29,0.5,0.64S129.91,125.33,129.64,125.33z M121.3,125.33h-4.17c-0.28,0-0.5-0.29-0.5-0.64s0.22-0.64,0.5-0.64
				h4.17c0.28,0,0.5,0.29,0.5,0.64S121.57,125.33,121.3,125.33z M112.96,125.33h-4.17c-0.28,0-0.5-0.29-0.5-0.64s0.22-0.64,0.5-0.64
				h4.17c0.28,0,0.5,0.29,0.5,0.64S113.23,125.33,112.96,125.33z M104.62,125.33h-4.17c-0.28,0-0.5-0.29-0.5-0.64
				s0.22-0.64,0.5-0.64h4.17c0.28,0,0.5,0.29,0.5,0.64S104.89,125.33,104.62,125.33z M96.28,125.33h-4.17c-0.28,0-0.5-0.29-0.5-0.64
				s0.22-0.64,0.5-0.64h4.17c0.28,0,0.5,0.29,0.5,0.64S96.55,125.33,96.28,125.33z M87.94,125.33h-4.17c-0.28,0-0.5-0.29-0.5-0.64
				s0.22-0.64,0.5-0.64h4.17c0.28,0,0.5,0.29,0.5,0.64S88.21,125.33,87.94,125.33z M79.6,125.33h-4.17c-0.28,0-0.5-0.29-0.5-0.64
				s0.22-0.64,0.5-0.64h4.17c0.28,0,0.5,0.29,0.5,0.64S79.87,125.33,79.6,125.33z M71.26,125.33h-4.17c-0.28,0-0.5-0.29-0.5-0.64
				s0.22-0.64,0.5-0.64h4.17c0.28,0,0.5,0.29,0.5,0.64S71.53,125.33,71.26,125.33z M62.92,125.33h-4.17c-0.28,0-0.5-0.29-0.5-0.64
				s0.22-0.64,0.5-0.64h4.17c0.28,0,0.5,0.29,0.5,0.64S63.19,125.33,62.92,125.33z"/>
		</g>
		<g>
			<path style="fill:#282828;" d="M54.58,125.33h-2c-0.28,0-0.5-0.29-0.5-0.64s0.22-0.64,0.5-0.64h2c0.28,0,0.5,0.29,0.5,0.64
				S54.85,125.33,54.58,125.33z"/>
		</g>
	</g>
	<g>
		<path style="fill:#282828;" d="M90.44,112.64v0.67H90.3c-0.61,0.01-1.1,0.19-1.46,0.54c-0.36,0.35-0.57,0.85-0.63,1.48
			c0.33-0.37,0.77-0.56,1.33-0.56c0.54,0,0.97,0.19,1.29,0.57c0.32,0.38,0.48,0.87,0.48,1.47c0,0.64-0.17,1.15-0.52,1.53
			c-0.35,0.38-0.81,0.57-1.4,0.57c-0.59,0-1.07-0.23-1.44-0.68c-0.37-0.45-0.55-1.04-0.55-1.76v-0.3c0-1.14,0.24-2.01,0.73-2.61
			c0.49-0.6,1.21-0.91,2.17-0.92H90.44z M89.41,115.43c-0.27,0-0.52,0.08-0.74,0.24c-0.23,0.16-0.38,0.36-0.47,0.61v0.29
			c0,0.51,0.11,0.92,0.34,1.23s0.51,0.47,0.86,0.47c0.35,0,0.63-0.13,0.83-0.39c0.2-0.26,0.3-0.6,0.3-1.02
			c0-0.42-0.1-0.77-0.31-1.03C90.02,115.56,89.75,115.43,89.41,115.43z"/>
		<path style="fill:#282828;" d="M94.86,118.83v-3.99h-0.73v-0.61h0.73v-0.47c0-0.49,0.13-0.87,0.39-1.14
			c0.26-0.27,0.64-0.4,1.12-0.4c0.18,0,0.36,0.02,0.54,0.07l-0.04,0.63c-0.13-0.03-0.27-0.04-0.42-0.04c-0.25,0-0.45,0.07-0.59,0.22
			c-0.14,0.15-0.21,0.36-0.21,0.64v0.49h0.98v0.61h-0.98v3.99H94.86z"/>
		<path style="fill:#282828;" d="M99.3,118.91c-0.62,0-1.13-0.2-1.52-0.61s-0.59-0.96-0.59-1.64v-0.14c0-0.46,0.09-0.86,0.26-1.22
			c0.17-0.36,0.42-0.64,0.73-0.84c0.31-0.2,0.65-0.3,1.02-0.3c0.6,0,1.06,0.2,1.39,0.59c0.33,0.39,0.5,0.96,0.5,1.69v0.33h-3.11
			c0.01,0.45,0.14,0.82,0.4,1.1c0.25,0.28,0.58,0.42,0.97,0.42c0.28,0,0.51-0.06,0.7-0.17c0.19-0.11,0.36-0.26,0.51-0.45l0.48,0.37
			C100.65,118.62,100.07,118.91,99.3,118.91z M99.2,114.8c-0.32,0-0.58,0.12-0.8,0.35c-0.22,0.23-0.35,0.55-0.4,0.97h2.3v-0.06
			c-0.02-0.4-0.13-0.71-0.32-0.93S99.53,114.8,99.2,114.8z"/>
		<path style="fill:#282828;" d="M103.91,118.91c-0.62,0-1.13-0.2-1.52-0.61c-0.39-0.41-0.59-0.96-0.59-1.64v-0.14
			c0-0.46,0.09-0.86,0.26-1.22c0.17-0.36,0.42-0.64,0.73-0.84c0.31-0.2,0.65-0.3,1.02-0.3c0.6,0,1.06,0.2,1.39,0.59
			c0.33,0.39,0.5,0.96,0.5,1.69v0.33h-3.11c0.01,0.45,0.14,0.82,0.4,1.1c0.25,0.28,0.58,0.42,0.97,0.42c0.28,0,0.51-0.06,0.7-0.17
			c0.19-0.11,0.36-0.26,0.51-0.45l0.48,0.37C105.25,118.62,104.68,118.91,103.91,118.91z M103.81,114.8c-0.32,0-0.58,0.12-0.8,0.35
			c-0.22,0.23-0.35,0.55-0.4,0.97h2.3v-0.06c-0.02-0.4-0.13-0.71-0.32-0.93C104.4,114.9,104.14,114.8,103.81,114.8z"/>
		<path style="fill:#282828;" d="M107.67,113.12v1.11h0.86v0.61h-0.86v2.85c0,0.18,0.04,0.32,0.12,0.41
			c0.08,0.09,0.21,0.14,0.39,0.14c0.09,0,0.22-0.02,0.37-0.05v0.63c-0.21,0.06-0.41,0.08-0.6,0.08c-0.35,0-0.62-0.11-0.79-0.32
			c-0.18-0.21-0.27-0.51-0.27-0.9v-2.85h-0.84v-0.61h0.84v-1.11H107.67z"/>
	</g>
</g>
<path style="fill:none;" d="M200,100C200,44.77,155.23,0,100,0S0,44.77,0,100s44.77,100,100,100S200,155.23,200,100L200,100z"/>
</svg>
