<?xml version="1.0" encoding="utf-8"?>
<!-- Generator: Adobe Illustrator 22.0.1, SVG Export Plug-In . SVG Version: 6.00 Build 0)  -->
<svg version="1.1" id="Layer_1" xmlns="http://www.w3.org/2000/svg" xmlns:xlink="http://www.w3.org/1999/xlink" x="0px" y="0px"
	 viewBox="0 0 100 100" style="enable-background:new 0 0 100 100;" xml:space="preserve">
<g>
	<circle style="fill:#353535;" cx="50" cy="50" r="49.14"/>
	<path style="fill:#FFFFFF;" d="M71.19,28.43c-0.19,0-0.38,0.03-0.57,0.11L21.16,47.33c-1.4,0.53-1.36,2.52,0.06,3l11.47,3.87
		l6.91,13.84c0,0,0,0.01,0.01,0.01l0.02,0.04l0,0c0.13,0.26,0.39,0.42,0.66,0.42c0.16,0,0.33-0.05,0.48-0.18l6.48-5.49l-7.23-5.49
		l0.57,7.21l-5.2-10.77l27.64-16.6l-23,20.16l17.91,13.59c0.6,0.45,1.29,0.67,1.96,0.67c1.42,0,2.79-0.93,3.17-2.47l9.68-38.72
		C72.99,29.36,72.17,28.43,71.19,28.43z"/>
</g>
</svg>
