<?xml version="1.0" encoding="utf-8"?>
<!-- Generator: Adobe Illustrator 25.2.0, SVG Export Plug-In . SVG Version: 6.00 Build 0)  -->
<svg version="1.1" id="Capa_1" xmlns="http://www.w3.org/2000/svg" xmlns:xlink="http://www.w3.org/1999/xlink" x="0px" y="0px"
	 viewBox="0 0 512 512" style="enable-background:new 0 0 512 512;" xml:space="preserve">
<style type="text/css">
	.st0{fill:#3F51B5;}
</style>
<g>
	<path class="st0" d="M493.3,251.6c-6.1-1.2-12.2,0.1-17.3,3.5c-4.2,2.8-7.4,6.9-9,11.7l-26.3-11.5c0.1-1.8,0.1-3.6,0.1-5.3
		c0-15.5-1.9-30.8-5.8-45.7l11.8-8c7.5,6.6,18.4,8.5,27.9,4.4c12.8-5.6,18.9-20.4,14-33.7l-5.6-14.9c-5-13.5-19.5-20.6-33-16.2
		c-6.8,2.2-12.3,7-15.4,13.4c-1.8,3.7-2.7,7.6-2.7,11.5l-13.4,1.9c-1.8-3.4-3.8-6.8-6-10.2c-2.2-3.5-6.9-4.6-10.4-2.3
		c-3.5,2.2-4.6,6.9-2.4,10.4c2.5,4,4.8,8,6.9,11.9c2,3.9,6.4,6.1,10.7,5.5l24.1-3.4c2.2-0.3,4.2-1.6,5.4-3.6
		c1.2-1.9,1.4-4.3,0.6-6.4c-1-2.9-0.9-6,0.5-8.8c1.3-2.8,3.7-4.8,6.6-5.8c5.7-1.9,12,1.4,14.2,7.2l5.6,14.9
		c2.2,5.8-0.5,12.4-5.9,14.7c-5.2,2.2-11.2,0.3-14.1-4.5c-1.1-1.8-2.8-3-4.8-3.4c-2-0.4-4.1,0-5.8,1.1l-20,13.6
		c-3.7,2.5-5.4,7.1-4.2,11.5c4,14.6,6.1,29.7,6.1,44.9c0,2.5-0.1,5.1-0.2,7.7c-0.2,4.3,2.3,8.4,6.3,10.1l37.5,16.4
		c2.1,0.9,4.5,0.8,6.5-0.2c2-1.1,3.4-3,3.9-5.2l1.2-6.1c0.4-2.1,1.6-3.9,3.4-5.1c1.8-1.2,3.9-1.6,6-1.2c4.4,0.9,7.2,5.1,6.4,9.5
		l-6.2,31.4c-0.4,2.2-1.7,4-3.6,5.2c-1.9,1.2-4.1,1.6-6.3,1c-4.1-1-6.7-5.4-5.9-9.8l0.2-0.8c0.4-2.3-0.2-4.6-1.7-6.4
		c-1.5-1.7-3.7-2.7-6-2.6l-40.6,1.9c-4.3,0.2-8.1,3.1-9.5,7.2c-3.8,11.4-8.8,22.3-14.8,32.6c-2.3,3.8-1.9,8.7,1,12.1l18,21.3
		c1.3,1.6,3.3,2.5,5.3,2.7c2.1,0.1,4.1-0.6,5.6-2.1c4-3.8,10.2-4.2,14.6-0.8c2.4,1.8,3.9,4.5,4.3,7.4c0.4,3-0.4,5.9-2.2,8.3
		l-5.2,6.8c-3.7,4.9-10.7,6.1-15.6,2.8c-4.1-2.8-5.9-8.1-4.3-12.9c1.2-3.7-0.5-7.7-4.1-9.3l-25.9-11.4c-4.1-1.8-8.9-0.8-12,2.5
		c-11.5,12.7-24.9,23.5-39.6,32.1c-3.7,2.2-5.8,6.5-5.1,10.7l6.6,40.4c0.4,2.2,1.7,4.2,3.7,5.3c2,1.1,4.4,1.3,6.5,0.4l5.7-2.3
		c2.1-0.8,4.3-0.8,6.3,0.2c2,0.9,3.5,2.6,4.3,4.7c1.4,4-0.9,8.6-5,10.3l-29.3,11.7c-2.1,0.8-4.3,0.8-6.3-0.2c-2-0.9-3.5-2.6-4.3-4.7
		c-1.4-4,0.9-8.6,5-10.3l0.8-0.3c2.1-0.9,3.8-2.6,4.4-4.9c0.6-2.2,0.2-4.6-1.1-6.5l-23.6-33.1c-2.5-3.5-7-5.1-11.2-4
		c-13.8,3.6-28,5.4-42.3,5.4c-11.3,0-22.7-1.1-33.8-3.4c-4.2-0.9-8.6,1-10.9,4.6l-23.6,37.1c-1.2,1.9-1.5,4.3-0.8,6.5
		c0.7,2.2,2.4,3.9,4.5,4.6l0.8,0.3c2.9,1,5.2,3.1,6.5,5.9c1.3,2.8,1.4,5.9,0.4,8.7c-0.3,0.8-0.5,1.7-0.5,2.6c0,2.8-0.8,5-2.4,6.1
		c-1.5,1.1-3.8,1.1-6.5,0.1l-29-10.6c-5.8-2.1-8.9-8.6-6.9-14.5c1-2.8,3-5.1,5.8-6.4c2.9-1.4,6.4-1.6,9.4-0.5l0.7,0.2
		c2.2,0.8,4.6,0.5,6.5-0.7c2-1.2,3.3-3.3,3.5-5.6l4.8-43.5c0.5-4.3-1.8-8.5-5.6-10.5c-17.6-9.1-33.3-21.1-46.7-35.7
		c-3-3.2-7.6-4.3-11.7-2.6l-35.4,14.5c-2,0.8-3.5,2.4-4.2,4.4c-0.7,2-0.6,4.2,0.4,6.1c2.2,4.2,0.9,9.4-3.1,12
		c-4.1,2.7-9.9,1.4-12.9-2.8l-9.1-13.1c-2.9-4.2-2.2-9.8,1.6-12.8c2-1.5,4.4-2.2,6.9-1.9c2.5,0.3,4.7,1.6,6.2,3.6
		c1.4,1.8,3.5,2.9,5.7,3c2.2,0.1,4.4-0.8,5.9-2.5l25-28.2c2.9-3.3,3.5-8.1,1.3-12c-2.7-4.8-5.2-9.9-7.4-15.2
		c-1.6-3.8-6.1-5.6-9.9-3.9c-3.8,1.6-5.6,6.1-3.9,9.9c2,4.7,4.2,9.3,6.6,13.7l-17.9,20.2c-2.9-1.8-6.1-2.9-9.6-3.4
		c-6.5-0.8-12.9,0.9-18.1,5c-10,7.9-12.1,22.5-4.6,33.2l9.1,13.1c7.6,10.9,22.6,14,33.5,6.8c8.1-5.3,12.1-14.7,10.7-23.8l26.1-10.7
		c13.4,14.1,28.9,25.9,45.9,35.1l-3.6,32.3c-4.3-0.1-8.6,0.8-12.5,2.6c-6.5,3.1-11.3,8.4-13.6,15.1c-4.7,13.5,2.5,28.6,16,33.5
		l29,10.6c2.9,1.1,5.8,1.6,8.7,1.6c4.2,0,8.3-1.2,11.6-3.5c5.3-3.7,8.4-9.8,8.7-17.1c1.9-6.3,1.5-13-1.3-19
		c-1.8-3.9-4.4-7.1-7.7-9.7l17.6-27.7c25.3,4.7,51.8,4,76.7-2l17.1,24c-6.7,6.1-9.6,15.7-6.5,24.7c2.1,6,6.4,10.8,12.2,13.5
		c5.7,2.6,12.3,2.8,18.2,0.4L371,479c11.7-4.7,17.7-17.5,13.7-29.1c-2.1-6-6.4-10.8-12.2-13.5c-4.8-2.2-10.1-2.6-15.2-1.4l-4.6-28.3
		c14.1-8.6,26.9-18.9,38.2-30.9l17.5,7.7c-0.5,9,3.7,17.9,11.3,23.1c11.5,7.9,27.4,5.3,36-6l5.2-6.8c4.3-5.6,6.1-12.5,5.2-19.4
		c-0.9-7-4.5-13.1-10.1-17.4c-8.1-6.2-18.8-7.1-27.5-2.8L417,340.4c5.4-9.5,9.9-19.5,13.5-29.8l29.5-1.3c1.5,9,8,16.6,17.2,18.8
		c6.2,1.5,12.6,0.5,17.9-3c5.3-3.4,9-8.9,10.2-15l6.2-31.4C514,266.2,505.8,254.1,493.3,251.6L493.3,251.6z"/>
	<path class="st0" d="M48.4,271.9l28.2,6.5c0.6,3.9,1.4,7.9,2.3,11.9c0.8,3.5,3.9,5.9,7.3,5.9c0.5,0,1.1-0.1,1.7-0.2
		c4-0.9,6.6-4.9,5.7-9c-1-4.6-1.9-9.2-2.5-13.7c-0.6-4.3-3.8-7.8-8-8.8l-39.9-9.2c-2.2-0.5-4.6,0-6.3,1.4c-1.8,1.4-2.8,3.6-2.9,5.8
		l0,4.7c0,5.2-4.3,9.5-9.6,9.5c-2.5,0-4.8-1-6.6-2.7c-1.8-1.8-2.7-4.1-2.7-6.6l0.3-29c0-2.7,1.2-5.3,3.1-7.1
		c1.8-1.8,4.1-2.7,6.6-2.6c5.1,0.1,9.2,4.4,9.2,9.5c0,2.3,1,4.5,2.8,5.9c1.8,1.4,4.2,2,6.4,1.4l39.6-9.3c4.2-1,7.4-4.5,8-8.8
		c2.9-21.7,10-42.3,20.9-61.2c2.2-3.8,1.8-8.7-1.1-12l-18.9-22.2c-1.5-1.7-3.6-2.7-5.9-2.6c-2.3,0.1-4.4,1.2-5.8,3l-1.6,2.2
		c-1.2,1.6-3,2.6-5,2.9c-2,0.2-4-0.4-5.6-1.7c-3-2.5-3.4-7.1-0.9-10.4l12.6-16.6c2.4-3.2,7.1-3.9,10.3-1.4c3,2.3,3.8,6.6,1.8,9.8
		c-1.2,1.9-1.5,4.1-0.8,6.2c0.6,2.1,2.2,3.8,4.2,4.7l26.4,11.4c4.1,1.8,8.9,0.7,11.9-2.6c12-13.2,26-24.3,41.4-33.1
		c3.7-2.1,5.8-6.4,5.2-10.7l-6.1-40.5c-0.3-2.3-1.7-4.2-3.7-5.4c-2-1.1-4.4-1.3-6.5-0.5l-5.8,2.2c-2.1,0.8-4.3,0.7-6.3-0.2
		c-2-1-3.5-2.6-4.2-4.8c-1.3-4,1-8.6,5.2-10.2l29.4-11.3c2.1-0.8,4.3-0.7,6.3,0.2c2,1,3.5,2.6,4.2,4.8c1.3,4-1,8.6-5.2,10.2
		l-0.8,0.3c-2.2,0.8-3.8,2.6-4.5,4.8c-0.7,2.2-0.3,4.6,1,6.5l23.2,33.4c2.5,3.5,6.9,5.2,11.1,4.2c13.1-3.2,26.6-4.8,40.2-4.8h0
		c4.4,0,8.4-2.8,9.9-6.9l7.7-21.5c0.7-1.9,0.6-4.1-0.4-5.9c-0.9-1.8-2.5-3.2-4.5-3.8c-5.6-1.7-9.1-7.2-8.5-13c0.4-3.1,2-5.9,4.6-7.9
		c2.7-2.1,6.2-3.1,9.5-2.7l10.5,1.3c6.8,0.9,11.8,6.9,11.1,13.5c-0.6,5.1-4.1,9.2-9,10.5c-3.6,0.9-6,4.4-5.6,8.1l2.7,23.3
		c0.5,4.4,3.8,8.1,8.2,9c16.8,3.7,32.9,9.9,47.8,18.6c3.7,2.2,8.5,1.8,11.8-0.9l31.8-25.8c1.8-1.4,2.8-3.6,2.8-5.9
		c0-2.3-1.1-4.4-2.8-5.8l-4.8-3.8c-1.7-1.4-2.8-3.4-3-5.6c-0.2-2.2,0.5-4.4,2-6.1c2.8-3.2,7.9-3.5,11.4-0.7l24.7,19.6
		c1.7,1.4,2.8,3.4,3,5.6c0.2,2.2-0.5,4.4-2,6.1c-2.8,3.2-7.9,3.5-11.4,0.7l-0.7-0.5c-1.8-1.4-4.2-2-6.4-1.4
		c-2.2,0.5-4.1,2.1-5.1,4.2l-17,37c-1.8,3.9-1,8.6,2,11.7c1.1,1.1,2.1,2.2,3.4,3.6c2.8,3.1,7.6,3.3,10.6,0.4
		c3.1-2.8,3.2-7.6,0.4-10.6c-0.5-0.6-1-1.1-1.5-1.6l12.4-26.8c8.7,2.8,18.4,0.5,24.6-6.6c4.2-4.8,6.2-11,5.6-17.3
		c-0.6-6.3-3.7-12.1-8.6-16l-24.7-19.6c-9.9-7.8-24-6.7-32.1,2.6c-4.2,4.8-6.2,11-5.6,17.3c0.5,5.2,2.7,10.1,6.3,13.9l-22.3,18.1
		c-14.5-8.1-30.1-14.1-46.2-18l-1.7-14.4c7.6-4.2,13-12,14-20.9c1.6-14.7-9.2-28.1-24.2-30l-10.5-1.3c-7.3-0.9-14.8,1.2-20.7,5.7
		c-5.8,4.5-9.4,10.9-10.2,18c-1.2,10.3,3.5,20.2,11.8,25.8l-4.4,12.2c-12.7,0.2-25.2,1.7-37.5,4.5l-16.8-24.2
		c6.8-6,9.8-15.6,6.8-24.6c-2-6.1-6.3-10.9-12.1-13.6c-5.7-2.7-12.3-2.9-18.2-0.7l-29.4,11.3c-11.8,4.5-17.9,17.2-14,29
		c2,6.1,6.3,10.9,12.1,13.6c4.7,2.2,10.1,2.8,15.2,1.6l4.3,28.4c-14.8,8.7-28.3,19.5-40.2,32.1l-17-7.3c1.4-8-1.7-16.5-8.5-21.7
		c-4.8-3.6-10.6-5.1-16.6-4.3c-5.9,0.8-11.2,3.9-14.8,8.7l-12.6,16.6c-7.4,9.7-5.9,23.4,3.3,31c4.8,4,10.7,5.8,16.9,5.1
		c3.9-0.4,7.5-1.9,10.7-4.2l11.4,13.4c-10.5,19-17.5,39.4-20.8,60.8L47.4,229c-3.5-8.8-12.1-15.2-22.1-15.5
		c-6.5-0.2-12.7,2.3-17.4,6.8c-4.8,4.7-7.6,11.1-7.7,17.8l-0.3,29c-0.1,6.5,2.4,12.7,7,17.3c4.6,4.6,10.7,7.2,17.3,7.2
		C36.2,291.7,46.2,283.2,48.4,271.9L48.4,271.9z"/>
	<path class="st0" d="M220.4,230.9c3.7-1.9,5.1-6.5,3.1-10.2c-1.9-3.7-6.5-5.1-10.2-3.1c-18,9.5-38.4,7-48.7-6
		c-5.7-7.3-7.7-16.9-5.6-27.2c2.3-10.7,8.7-20.8,18.2-28.2c9.5-7.5,20.7-11.4,31.7-11.1c10.5,0.3,19.4,4.5,25.1,11.8
		c8.6,10.9,8.5,27.3-0.3,41.6c-2.2,3.5-1.1,8.2,2.5,10.3c3.5,2.2,8.2,1.1,10.3-2.5c12.1-19.8,11.8-42.8-0.7-58.8
		c-8.6-10.8-21.5-17.1-36.5-17.5c-14.5-0.4-29.2,4.7-41.4,14.3c-12.2,9.6-20.6,22.8-23.6,37c-3.1,14.7-0.1,28.7,8.5,39.6
		c9,11.4,23.1,17.4,38.3,17.4C200.8,238.4,210.9,235.9,220.4,230.9L220.4,230.9z"/>
	<path class="st0" d="M366.2,163.5c0-15.6-14.5-28.3-32.3-28.3c-17.8,0-32.3,12.7-32.3,28.3s14.5,28.3,32.3,28.3
		C351.7,191.8,366.2,179.1,366.2,163.5z M316.6,163.5c0-7.3,7.8-13.2,17.3-13.2c9.5,0,17.3,5.9,17.3,13.2c0,7.3-7.8,13.2-17.3,13.2
		C324.4,176.7,316.6,170.8,316.6,163.5z"/>
	<path class="st0" d="M279,292.7c0-19.1-15.5-34.6-34.6-34.6c-19.1,0-34.6,15.5-34.6,34.6s15.5,34.6,34.6,34.6
		C263.5,327.3,279,311.8,279,292.7z M224.8,292.7c0-10.8,8.8-19.6,19.6-19.6c10.8,0,19.6,8.8,19.6,19.6s-8.8,19.6-19.6,19.6
		C233.6,312.3,224.8,303.5,224.8,292.7z"/>
	<path class="st0" d="M377,278.5c0-14.8-12.1-26.9-26.9-26.9c-14.8,0-26.9,12.1-26.9,26.9c0,14.8,12.1,26.9,26.9,26.9
		C364.9,305.5,377,293.4,377,278.5z M338.2,278.5c0-6.6,5.3-11.9,11.9-11.9c6.6,0,11.9,5.3,11.9,11.9c0,6.6-5.3,11.9-11.9,11.9
		C343.5,290.4,338.2,285.1,338.2,278.5z"/>
	<path class="st0" d="M278.4,399.7c14.6,0,26.4-11.8,26.4-26.4c0-14.6-11.8-26.4-26.4-26.4c-14.6,0-26.4,11.8-26.4,26.4
		C252,387.8,263.8,399.7,278.4,399.7z M278.4,361.9c6.3,0,11.4,5.1,11.4,11.4c0,6.3-5.1,11.4-11.4,11.4c-6.3,0-11.4-5.1-11.4-11.4
		C267,367,272.1,361.9,278.4,361.9z"/>
	<path class="st0" d="M160.3,355.3c15,0,27.2-12.2,27.2-27.2S175.2,301,160.3,301s-27.2,12.2-27.2,27.2S145.3,355.3,160.3,355.3z
		 M160.3,316c6.7,0,12.1,5.4,12.1,12.1s-5.4,12.1-12.1,12.1c-6.7,0-12.1-5.4-12.1-12.1S153.6,316,160.3,316z"/>
	<path class="st0" d="M313.3,234.1c0-4.2-3.4-7.5-7.5-7.5h-6.6c-4.2,0-7.5,3.4-7.5,7.5s3.4,7.5,7.5,7.5h6.6
		C309.9,241.6,313.3,238.2,313.3,234.1z"/>
	<path class="st0" d="M210.4,373h6.8c4.2,0,7.5-3.4,7.5-7.5s-3.4-7.5-7.5-7.5h-6.8c-4.2,0-7.5,3.4-7.5,7.5S206.3,373,210.4,373z"/>
	<path class="st0" d="M147.2,263.5c4.2,0,7.5-3.4,7.5-7.5c0-4.2-3.4-7.5-7.5-7.5h-6.6c-4.2,0-7.5,3.4-7.5,7.5c0,4.2,3.4,7.5,7.5,7.5
		H147.2z"/>
	<path class="st0" d="M280.6,132c4.2,0,7.5-3.4,7.5-7.5c0-4.2-3.4-7.5-7.5-7.5h-9.2c-4.2,0-7.5,3.4-7.5,7.5c0,4.2,3.4,7.5,7.5,7.5
		H280.6z"/>
	<path class="st0" d="M330.6,333.5c-4.2,0-7.5,3.4-7.5,7.5c0,4.2,3.4,7.5,7.5,7.5h10.1c4.2,0,7.5-3.4,7.5-7.5c0-4.2-3.4-7.5-7.5-7.5
		H330.6z"/>
</g>
</svg>
