<?xml version="1.0" encoding="utf-8"?>
<!-- Generator: Adobe Illustrator 25.2.0, SVG Export Plug-In . SVG Version: 6.00 Build 0)  -->
<svg version="1.1" id="Layer_1" xmlns="http://www.w3.org/2000/svg" xmlns:xlink="http://www.w3.org/1999/xlink" x="0px" y="0px"
	 viewBox="0 0 496 496" style="enable-background:new 0 0 496 496;" xml:space="preserve">
<style type="text/css">
	.st0{fill:#3F51B5;stroke:#FFFFFF;stroke-width:8;stroke-miterlimit:10;}
	.st1{fill:#3F51B5;stroke:#FFFFFF;stroke-width:7;stroke-miterlimit:10;}
	.st2{fill:#3F51B5;}
	.st3{fill:#FFFFFF;stroke:#FFFFFF;stroke-width:8.1251;stroke-miterlimit:10;}
	.st4{fill:#FFFFFF;stroke:#3F51B5;stroke-width:7;stroke-miterlimit:10;}
	.st5{fill:none;stroke:#3F51B5;stroke-width:5.6152;stroke-linecap:round;stroke-miterlimit:10;}
</style>
<path class="st0" d="M380.1,207.3c0-95.7-77.6-173.3-173.3-173.3S33.6,111.7,33.6,207.3s77.6,173.3,173.3,173.3
	C302.5,380.5,380,303,380.1,207.3z M50.1,207.3c0-86.6,70.2-156.8,156.8-156.8c86.6,0,156.8,70.2,156.8,156.8
	c0,86.6-70.2,156.8-156.8,156.8C120.4,364,50.2,293.9,50.1,207.3z"/>
<path class="st1" d="M445.3,398.4L445.3,398.4L445.3,398.4l-17.5-17.5c-3.1-3.1-7.3-4.9-11.7-4.8h0c-1.4,0-2.8,0.2-4.2,0.6
	l-20.7-20.7c1.5-5.7-0.1-11.7-4.2-15.9l-12.7-12.7c63-87.3,48.3-208.4-33.7-278.2s-203.8-64.8-280,11.3s-81,198-11.2,280
	c69.8,82,190.9,96.6,278.2,33.6l12.7,12.7c4.1,4.2,10.2,5.8,15.9,4.2l20.7,20.7c-1.6,5.7,0,11.8,4.2,15.9l17.5,17.5l0,0l0,0
	l40.8,40.8c8.3,8.6,20.5,12,32.1,8.9c11.5-3,20.5-12,23.5-23.5c3-11.5-0.4-23.8-8.9-32.1L445.3,398.4z M17.1,207.3
	C17.1,123.7,71.7,49.9,151.7,25.6c80-24.3,166.5,6.6,212.9,76.1c46.5,69.5,41.9,161.2-11.1,225.9c-0.2,0.2-0.4,0.5-0.6,0.7
	c-7.5,9.1-15.9,17.4-24.9,24.9c-0.3,0.2-0.6,0.5-0.9,0.7c-56.7,46.5-135.2,56.2-201.5,24.8C59.3,347.5,17.1,280.7,17.1,207.3z
	 M343.9,361.3c1.6-1.4,3.1-2.8,4.6-4.3c2.8-2.6,5.5-5.4,8.1-8.1c1.4-1.5,2.9-3,4.2-4.6c1-1.1,2.1-2.2,3.1-3.3l11.2,11.2l0,0
	l-23.3,23.3l-5.8-5.8l-5.4-5.4C341.8,363.4,342.8,362.3,343.9,361.3z M381,369.8l17.5,17.5l-11.7,11.7l-17.5-17.5L381,369.8z
	 M416,393.1l11.7,11.7l-23.3,23.3l-11.7-11.7L416,393.1z M474.3,474.8c-6.5,6.2-16.8,6.2-23.3,0l-35-35l23.3-23.3l35,35
	c3.1,3.1,4.8,7.3,4.8,11.7C479.1,467.5,477.4,471.7,474.3,474.8z"/>
<g>
	<path class="st2" d="M302,205.5c-2.4-0.5-4.9,0-6.9,1.4c-1.7,1.1-3,2.8-3.6,4.7l-10.5-4.6c0-0.7,0-1.4,0-2.1
		c0-6.2-0.8-12.3-2.3-18.3l4.7-3.2c3,2.6,7.4,3.4,11.2,1.8c5.1-2.2,7.6-8.2,5.6-13.5l-2.2-6c-2-5.4-7.8-8.3-13.2-6.5
		c-2.7,0.9-4.9,2.8-6.2,5.4c-0.7,1.5-1.1,3-1.1,4.6l-5.4,0.8c-0.7-1.4-1.5-2.7-2.4-4.1c-0.9-1.4-2.8-1.8-4.2-0.9
		c-1.4,0.9-1.8,2.8-1,4.2c1,1.6,1.9,3.2,2.8,4.8c0.8,1.6,2.6,2.4,4.3,2.2l9.7-1.4c0.9-0.1,1.7-0.6,2.2-1.4c0.5-0.8,0.6-1.7,0.2-2.6
		c-0.4-1.2-0.4-2.4,0.2-3.5c0.5-1.1,1.5-1.9,2.6-2.3c2.3-0.8,4.8,0.6,5.7,2.9l2.2,6c0.9,2.3-0.2,5-2.4,5.9c-2.1,0.9-4.5,0.1-5.6-1.8
		c-0.4-0.7-1.1-1.2-1.9-1.4c-0.8-0.2-1.6,0-2.3,0.4l-8,5.4c-1.5,1-2.2,2.8-1.7,4.6c1.6,5.8,2.4,11.9,2.4,18c0,1,0,2-0.1,3.1
		c-0.1,1.7,0.9,3.4,2.5,4l15,6.6c0.8,0.4,1.8,0.3,2.6-0.1c0.8-0.4,1.4-1.2,1.6-2.1l0.5-2.4c0.2-0.8,0.6-1.6,1.4-2
		c0.7-0.5,1.6-0.6,2.4-0.5c1.8,0.4,2.9,2,2.6,3.8l-2.5,12.6c-0.2,0.9-0.7,1.6-1.4,2.1c-0.8,0.5-1.6,0.6-2.5,0.4
		c-1.6-0.4-2.7-2.2-2.4-3.9l0.1-0.3c0.2-0.9-0.1-1.8-0.7-2.6c-0.6-0.7-1.5-1.1-2.4-1l-16.3,0.8c-1.7,0.1-3.2,1.2-3.8,2.9
		c-1.5,4.6-3.5,8.9-5.9,13.1c-0.9,1.5-0.8,3.5,0.4,4.8l7.2,8.5c0.5,0.6,1.3,1,2.1,1.1c0.8,0,1.6-0.2,2.2-0.8
		c1.6-1.5,4.1-1.7,5.8-0.3c1,0.7,1.6,1.8,1.7,3c0.2,1.2-0.2,2.4-0.9,3.3l-2.1,2.7c-1.5,2-4.3,2.4-6.2,1.1c-1.6-1.1-2.4-3.2-1.7-5.2
		c0.5-1.5-0.2-3.1-1.6-3.7l-10.4-4.6c-1.6-0.7-3.6-0.3-4.8,1c-4.6,5.1-10,9.4-15.9,12.9c-1.5,0.9-2.3,2.6-2,4.3l2.6,16.2
		c0.2,0.9,0.7,1.7,1.5,2.1s1.8,0.5,2.6,0.2l2.3-0.9c0.8-0.3,1.7-0.3,2.5,0.1c0.8,0.4,1.4,1,1.7,1.9c0.6,1.6-0.4,3.4-2,4.1l-11.7,4.7
		c-0.8,0.3-1.7,0.3-2.5-0.1c-0.8-0.4-1.4-1-1.7-1.9c-0.6-1.6,0.4-3.4,2-4.1l0.3-0.1c0.8-0.4,1.5-1,1.8-2c0.2-0.9,0.1-1.8-0.4-2.6
		l-9.5-13.3c-1-1.4-2.8-2-4.5-1.6c-5.5,1.4-11.2,2.2-16.9,2.2c-4.5,0-9.1-0.4-13.5-1.4c-1.7-0.4-3.4,0.4-4.4,1.8l-9.5,14.9
		c-0.5,0.8-0.6,1.7-0.3,2.6c0.3,0.9,1,1.6,1.8,1.8l0.3,0.1c1.2,0.4,2.1,1.2,2.6,2.4c0.5,1.1,0.6,2.4,0.2,3.5c-0.1,0.3-0.2,0.7-0.2,1
		c0,1.1-0.3,2-1,2.4c-0.6,0.4-1.5,0.4-2.6,0l-11.6-4.2c-2.3-0.8-3.6-3.4-2.8-5.8c0.4-1.1,1.2-2,2.3-2.6c1.2-0.6,2.6-0.6,3.8-0.2
		l0.3,0.1c0.9,0.3,1.8,0.2,2.6-0.3c0.8-0.5,1.3-1.3,1.4-2.2l1.9-17.4c0.2-1.7-0.7-3.4-2.2-4.2c-7.1-3.6-13.3-8.5-18.7-14.3
		c-1.2-1.3-3-1.7-4.7-1L139,255c-0.8,0.3-1.4,1-1.7,1.8s-0.2,1.7,0.2,2.4c0.9,1.7,0.4,3.8-1.2,4.8c-1.6,1.1-4,0.6-5.2-1.1l-3.6-5.2
		c-1.2-1.7-0.9-3.9,0.6-5.1c0.8-0.6,1.8-0.9,2.8-0.8c1,0.1,1.9,0.6,2.5,1.4c0.6,0.7,1.4,1.2,2.3,1.2c0.9,0,1.8-0.3,2.4-1l10-11.3
		c1.2-1.3,1.4-3.2,0.5-4.8c-1.1-1.9-2.1-4-3-6.1c-0.6-1.5-2.4-2.2-4-1.6c-1.5,0.6-2.2,2.4-1.6,4c0.8,1.9,1.7,3.7,2.6,5.5l-7.2,8.1
		c-1.2-0.7-2.4-1.2-3.8-1.4c-2.6-0.3-5.2,0.4-7.3,2c-4,3.2-4.8,9-1.8,13.3l3.6,5.2c3,4.4,9.1,5.6,13.4,2.7c3.2-2.1,4.8-5.9,4.3-9.5
		l10.5-4.3c5.4,5.6,11.6,10.4,18.4,14.1l-1.4,12.9c-1.7,0-3.4,0.3-5,1c-2.6,1.2-4.5,3.4-5.4,6c-1.9,5.4,1,11.5,6.4,13.4l11.6,4.2
		c1.2,0.4,2.3,0.6,3.5,0.6c1.7,0,3.3-0.5,4.6-1.4c2.1-1.5,3.4-3.9,3.5-6.9c0.8-2.5,0.6-5.2-0.5-7.6c-0.7-1.6-1.8-2.8-3.1-3.9
		l7.1-11.1c10.1,1.9,20.8,1.6,30.7-0.8l6.9,9.6c-2.7,2.4-3.8,6.3-2.6,9.9c0.8,2.4,2.6,4.3,4.9,5.4c2.3,1,4.9,1.1,7.3,0.2l11.9-4.5
		c4.7-1.9,7.1-7,5.5-11.7c-0.8-2.4-2.6-4.3-4.9-5.4c-1.9-0.9-4-1-6.1-0.6l-1.8-11.3c5.6-3.4,10.8-7.6,15.3-12.4l7,3.1
		c-0.2,3.6,1.5,7.2,4.5,9.3c4.6,3.2,11,2.1,14.4-2.4l2.1-2.7c1.7-2.2,2.4-5,2.1-7.8c-0.4-2.8-1.8-5.2-4-7c-3.2-2.5-7.5-2.8-11-1.1
		l-4.6-5.5c2.2-3.8,4-7.8,5.4-11.9l11.8-0.5c0.6,3.6,3.2,6.7,6.9,7.5c2.5,0.6,5,0.2,7.2-1.2c2.1-1.4,3.6-3.6,4.1-6l2.5-12.6
		C310.3,211.4,307,206.5,302,205.5L302,205.5z"/>
	<path class="st2" d="M123.7,213.7l11.3,2.6c0.2,1.6,0.6,3.2,0.9,4.8c0.3,1.4,1.6,2.4,2.9,2.4c0.2,0,0.4,0,0.7-0.1
		c1.6-0.4,2.6-2,2.3-3.6c-0.4-1.8-0.8-3.7-1-5.5c-0.2-1.7-1.5-3.1-3.2-3.5l-16-3.7c-0.9-0.2-1.8,0-2.5,0.6c-0.7,0.6-1.1,1.4-1.2,2.3
		v1.9c0,2.1-1.7,3.8-3.8,3.8c-1,0-1.9-0.4-2.6-1.1c-0.7-0.7-1.1-1.6-1.1-2.6l0.1-11.6c0-1.1,0.5-2.1,1.2-2.8c0.7-0.7,1.6-1.1,2.6-1
		c2,0,3.7,1.8,3.7,3.8c0,0.9,0.4,1.8,1.1,2.4c0.7,0.6,1.7,0.8,2.6,0.6l15.9-3.7c1.7-0.4,3-1.8,3.2-3.5c1.2-8.7,4-16.9,8.4-24.5
		c0.9-1.5,0.7-3.5-0.4-4.8l-7.6-8.9c-0.6-0.7-1.4-1.1-2.4-1c-0.9,0-1.8,0.5-2.3,1.2l-0.6,0.9c-0.5,0.6-1.2,1-2,1.2
		c-0.8,0.1-1.6-0.2-2.2-0.7c-1.2-1-1.4-2.8-0.4-4.2l5-6.7c1-1.3,2.8-1.6,4.1-0.6c1.2,0.9,1.5,2.6,0.7,3.9c-0.5,0.8-0.6,1.6-0.3,2.5
		c0.2,0.8,0.9,1.5,1.7,1.9l10.6,4.6c1.6,0.7,3.6,0.3,4.8-1c4.8-5.3,10.4-9.7,16.6-13.3c1.5-0.8,2.3-2.6,2.1-4.3l-2.4-16.2
		c-0.1-0.9-0.7-1.7-1.5-2.2c-0.8-0.4-1.8-0.5-2.6-0.2l-2.3,0.9c-0.8,0.3-1.7,0.3-2.5-0.1c-0.8-0.4-1.4-1-1.7-1.9
		c-0.5-1.6,0.4-3.4,2.1-4.1l11.8-4.5c0.8-0.3,1.7-0.3,2.5,0.1c0.8,0.4,1.4,1,1.7,1.9c0.5,1.6-0.4,3.4-2.1,4.1l-0.3,0.1
		c-0.9,0.3-1.5,1-1.8,1.9c-0.3,0.9-0.1,1.8,0.4,2.6l9.3,13.4c1,1.4,2.8,2.1,4.4,1.7c5.2-1.3,10.7-1.9,16.1-1.9l0,0
		c1.8,0,3.4-1.1,4-2.8l3.1-8.6c0.3-0.8,0.2-1.6-0.2-2.4c-0.4-0.7-1-1.3-1.8-1.5c-2.2-0.7-3.6-2.9-3.4-5.2c0.2-1.2,0.8-2.4,1.8-3.2
		c1.1-0.8,2.5-1.2,3.8-1.1l4.2,0.5c2.7,0.4,4.7,2.8,4.4,5.4c-0.2,2-1.6,3.7-3.6,4.2c-1.4,0.4-2.4,1.8-2.2,3.2l1.1,9.3
		c0.2,1.8,1.5,3.2,3.3,3.6c6.7,1.5,13.2,4,19.1,7.5c1.5,0.9,3.4,0.7,4.7-0.4l12.7-10.3c0.7-0.6,1.1-1.4,1.1-2.4s-0.4-1.8-1.1-2.3
		l-1.9-1.5c-0.7-0.6-1.1-1.4-1.2-2.2s0.2-1.8,0.8-2.4c1.1-1.3,3.2-1.4,4.6-0.3l9.9,7.9c0.7,0.6,1.1,1.4,1.2,2.2
		c0.1,0.9-0.2,1.8-0.8,2.4c-1.1,1.3-3.2,1.4-4.6,0.3l-0.3-0.2c-0.7-0.6-1.7-0.8-2.6-0.6c-0.9,0.2-1.6,0.8-2,1.7l-6.8,14.8
		c-0.7,1.6-0.4,3.4,0.8,4.7c0.4,0.4,0.8,0.9,1.4,1.4c1.1,1.2,3,1.3,4.2,0.2c1.2-1.1,1.3-3,0.2-4.2c-0.2-0.2-0.4-0.4-0.6-0.6l5-10.7
		c3.5,1.1,7.4,0.2,9.9-2.6c1.7-1.9,2.5-4.4,2.2-6.9c-0.2-2.5-1.5-4.8-3.4-6.4l-9.9-7.9c-4-3.1-9.6-2.7-12.9,1
		c-1.7,1.9-2.5,4.4-2.2,6.9c0.2,2.1,1.1,4,2.5,5.6l-8.9,7.3c-5.8-3.2-12.1-5.6-18.5-7.2L224,128c3-1.7,5.2-4.8,5.6-8.4
		c0.6-5.9-3.7-11.3-9.7-12l-4.2-0.5c-2.9-0.4-5.9,0.5-8.3,2.3c-2.3,1.8-3.8,4.4-4.1,7.2c-0.5,4.1,1.4,8.1,4.7,10.3l-1.8,4.9
		c-5.1,0.1-10.1,0.7-15,1.8l-6.7-9.7c2.7-2.4,3.9-6.2,2.7-9.9c-0.8-2.4-2.5-4.4-4.8-5.4c-2.3-1.1-4.9-1.2-7.3-0.3l-11.8,4.5
		c-4.7,1.8-7.2,6.9-5.6,11.6c0.8,2.4,2.5,4.4,4.8,5.4c1.9,0.9,4,1.1,6.1,0.6l1.7,11.4c-5.9,3.5-11.3,7.8-16.1,12.9l-6.8-2.9
		c0.6-3.2-0.7-6.6-3.4-8.7c-1.9-1.4-4.2-2-6.7-1.7c-2.4,0.3-4.5,1.6-5.9,3.5l-5,6.7c-3,3.9-2.4,9.4,1.3,12.4c1.9,1.6,4.3,2.3,6.8,2
		c1.6-0.2,3-0.8,4.3-1.7l4.6,5.4c-4.2,7.6-7,15.8-8.3,24.4l-11.7,2.4c-1.4-3.5-4.8-6.1-8.9-6.2c-2.6-0.1-5.1,0.9-7,2.7
		c-1.9,1.9-3,4.4-3.1,7.1l-0.1,11.6c0,2.6,1,5.1,2.8,6.9c1.8,1.8,4.3,2.9,6.9,2.9C118.9,221.6,122.9,218.2,123.7,213.7L123.7,213.7z
		"/>
</g>
<g>
	<path class="st3" d="M207.5,152.1L160,234.5c-0.6,1.1,0.2,2.4,1.4,2.4h95c1.2,0,2-1.3,1.4-2.4l-47.5-82.3
		C209.7,151.1,208.1,151.1,207.5,152.1z"/>
	<path class="st4" d="M207.7,159.9l-40.9,70.9c-0.5,0.9,0.1,2,1.2,2h81.9c1,0,1.7-1.1,1.2-2l-40.9-70.9
		C209.5,159,208.2,159,207.7,159.9z"/>
	<g>
		<line class="st5" x1="208.9" y1="188.3" x2="208.9" y2="210.6"/>
		<line class="st5" x1="208.9" y1="217.9" x2="208.9" y2="217.9"/>
	</g>
</g>
</svg>
